%TF.GenerationSoftware,KiCad,Pcbnew,(6.0.1-0)*%
%TF.CreationDate,2022-02-10T18:28:46-05:00*%
%TF.ProjectId,torch,746f7263-682e-46b6-9963-61645f706362,rev?*%
%TF.SameCoordinates,Original*%
%TF.FileFunction,Legend,Bot*%
%TF.FilePolarity,Positive*%
%FSLAX46Y46*%
G04 Gerber Fmt 4.6, Leading zero omitted, Abs format (unit mm)*
G04 Created by KiCad (PCBNEW (6.0.1-0)) date 2022-02-10 18:28:46*
%MOMM*%
%LPD*%
G01*
G04 APERTURE LIST*
%ADD10C,0.150000*%
G04 APERTURE END LIST*
D10*
X142739000Y-71413714D02*
X142739000Y-72223238D01*
X142786619Y-72318476D01*
X142834238Y-72366095D01*
X142929476Y-72413714D01*
X143072333Y-72413714D01*
X143167571Y-72366095D01*
X142739000Y-72032761D02*
X142834238Y-72080380D01*
X143024714Y-72080380D01*
X143119952Y-72032761D01*
X143167571Y-71985142D01*
X143215190Y-71889904D01*
X143215190Y-71604190D01*
X143167571Y-71508952D01*
X143119952Y-71461333D01*
X143024714Y-71413714D01*
X142834238Y-71413714D01*
X142739000Y-71461333D01*
X142262809Y-72080380D02*
X142262809Y-71413714D01*
X142262809Y-71080380D02*
X142310428Y-71128000D01*
X142262809Y-71175619D01*
X142215190Y-71128000D01*
X142262809Y-71080380D01*
X142262809Y-71175619D01*
X141929476Y-71413714D02*
X141548523Y-71413714D01*
X141786619Y-71080380D02*
X141786619Y-71937523D01*
X141739000Y-72032761D01*
X141643761Y-72080380D01*
X141548523Y-72080380D01*
X141215190Y-72080380D02*
X141215190Y-71080380D01*
X140786619Y-72080380D02*
X140786619Y-71556571D01*
X140834238Y-71461333D01*
X140929476Y-71413714D01*
X141072333Y-71413714D01*
X141167571Y-71461333D01*
X141215190Y-71508952D01*
X139881857Y-71413714D02*
X139881857Y-72080380D01*
X140310428Y-71413714D02*
X140310428Y-71937523D01*
X140262809Y-72032761D01*
X140167571Y-72080380D01*
X140024714Y-72080380D01*
X139929476Y-72032761D01*
X139881857Y-71985142D01*
X139405666Y-72080380D02*
X139405666Y-71080380D01*
X139405666Y-71461333D02*
X139310428Y-71413714D01*
X139119952Y-71413714D01*
X139024714Y-71461333D01*
X138977095Y-71508952D01*
X138929476Y-71604190D01*
X138929476Y-71889904D01*
X138977095Y-71985142D01*
X139024714Y-72032761D01*
X139119952Y-72080380D01*
X139310428Y-72080380D01*
X139405666Y-72032761D01*
X138500904Y-71985142D02*
X138453285Y-72032761D01*
X138500904Y-72080380D01*
X138548523Y-72032761D01*
X138500904Y-71985142D01*
X138500904Y-72080380D01*
X137596142Y-72032761D02*
X137691380Y-72080380D01*
X137881857Y-72080380D01*
X137977095Y-72032761D01*
X138024714Y-71985142D01*
X138072333Y-71889904D01*
X138072333Y-71604190D01*
X138024714Y-71508952D01*
X137977095Y-71461333D01*
X137881857Y-71413714D01*
X137691380Y-71413714D01*
X137596142Y-71461333D01*
X137024714Y-72080380D02*
X137119952Y-72032761D01*
X137167571Y-71985142D01*
X137215190Y-71889904D01*
X137215190Y-71604190D01*
X137167571Y-71508952D01*
X137119952Y-71461333D01*
X137024714Y-71413714D01*
X136881857Y-71413714D01*
X136786619Y-71461333D01*
X136739000Y-71508952D01*
X136691380Y-71604190D01*
X136691380Y-71889904D01*
X136739000Y-71985142D01*
X136786619Y-72032761D01*
X136881857Y-72080380D01*
X137024714Y-72080380D01*
X136262809Y-72080380D02*
X136262809Y-71413714D01*
X136262809Y-71508952D02*
X136215190Y-71461333D01*
X136119952Y-71413714D01*
X135977095Y-71413714D01*
X135881857Y-71461333D01*
X135834238Y-71556571D01*
X135834238Y-72080380D01*
X135834238Y-71556571D02*
X135786619Y-71461333D01*
X135691380Y-71413714D01*
X135548523Y-71413714D01*
X135453285Y-71461333D01*
X135405666Y-71556571D01*
X135405666Y-72080380D01*
X134215190Y-71032761D02*
X135072333Y-72318476D01*
X133453285Y-71413714D02*
X133453285Y-72223238D01*
X133500904Y-72318476D01*
X133548523Y-72366095D01*
X133643761Y-72413714D01*
X133786619Y-72413714D01*
X133881857Y-72366095D01*
X133453285Y-72032761D02*
X133548523Y-72080380D01*
X133739000Y-72080380D01*
X133834238Y-72032761D01*
X133881857Y-71985142D01*
X133929476Y-71889904D01*
X133929476Y-71604190D01*
X133881857Y-71508952D01*
X133834238Y-71461333D01*
X133739000Y-71413714D01*
X133548523Y-71413714D01*
X133453285Y-71461333D01*
X132834238Y-72080380D02*
X132929476Y-72032761D01*
X132977095Y-71937523D01*
X132977095Y-71080380D01*
X132072333Y-72032761D02*
X132167571Y-72080380D01*
X132358047Y-72080380D01*
X132453285Y-72032761D01*
X132500904Y-71937523D01*
X132500904Y-71556571D01*
X132453285Y-71461333D01*
X132358047Y-71413714D01*
X132167571Y-71413714D01*
X132072333Y-71461333D01*
X132024714Y-71556571D01*
X132024714Y-71651809D01*
X132500904Y-71747047D01*
X131596142Y-72080380D02*
X131596142Y-71413714D01*
X131596142Y-71080380D02*
X131643761Y-71128000D01*
X131596142Y-71175619D01*
X131548523Y-71128000D01*
X131596142Y-71080380D01*
X131596142Y-71175619D01*
X130691380Y-72032761D02*
X130786619Y-72080380D01*
X130977095Y-72080380D01*
X131072333Y-72032761D01*
X131119952Y-71985142D01*
X131167571Y-71889904D01*
X131167571Y-71604190D01*
X131119952Y-71508952D01*
X131072333Y-71461333D01*
X130977095Y-71413714D01*
X130786619Y-71413714D01*
X130691380Y-71461333D01*
X130262809Y-72080380D02*
X130262809Y-71080380D01*
X129834238Y-72080380D02*
X129834238Y-71556571D01*
X129881857Y-71461333D01*
X129977095Y-71413714D01*
X130119952Y-71413714D01*
X130215190Y-71461333D01*
X130262809Y-71508952D01*
X128643761Y-71032761D02*
X129500904Y-72318476D01*
X128310428Y-71413714D02*
X128310428Y-72413714D01*
X128310428Y-71461333D02*
X128215190Y-71413714D01*
X128024714Y-71413714D01*
X127929476Y-71461333D01*
X127881857Y-71508952D01*
X127834238Y-71604190D01*
X127834238Y-71889904D01*
X127881857Y-71985142D01*
X127929476Y-72032761D01*
X128024714Y-72080380D01*
X128215190Y-72080380D01*
X128310428Y-72032761D01*
X126977095Y-72032761D02*
X127072333Y-72080380D01*
X127262809Y-72080380D01*
X127358047Y-72032761D01*
X127405666Y-71985142D01*
X127453285Y-71889904D01*
X127453285Y-71604190D01*
X127405666Y-71508952D01*
X127358047Y-71461333D01*
X127262809Y-71413714D01*
X127072333Y-71413714D01*
X126977095Y-71461333D01*
X126548523Y-72080380D02*
X126548523Y-71080380D01*
X126548523Y-71461333D02*
X126453285Y-71413714D01*
X126262809Y-71413714D01*
X126167571Y-71461333D01*
X126119952Y-71508952D01*
X126072333Y-71604190D01*
X126072333Y-71889904D01*
X126119952Y-71985142D01*
X126167571Y-72032761D01*
X126262809Y-72080380D01*
X126453285Y-72080380D01*
X126548523Y-72032761D01*
X125691380Y-72032761D02*
X125596142Y-72080380D01*
X125405666Y-72080380D01*
X125310428Y-72032761D01*
X125262809Y-71937523D01*
X125262809Y-71889904D01*
X125310428Y-71794666D01*
X125405666Y-71747047D01*
X125548523Y-71747047D01*
X125643761Y-71699428D01*
X125691380Y-71604190D01*
X125691380Y-71556571D01*
X125643761Y-71461333D01*
X125548523Y-71413714D01*
X125405666Y-71413714D01*
X125310428Y-71461333D01*
X139476904Y-80208476D02*
X139572142Y-80160857D01*
X139762619Y-80160857D01*
X139857857Y-80208476D01*
X139953095Y-80303714D01*
X140000714Y-80398952D01*
X140000714Y-80589428D01*
X139953095Y-80684666D01*
X139857857Y-80779904D01*
X139762619Y-80827523D01*
X139572142Y-80827523D01*
X139476904Y-80779904D01*
X139667380Y-79827523D02*
X139905476Y-79875142D01*
X140143571Y-80018000D01*
X140286428Y-80256095D01*
X140334047Y-80494190D01*
X140286428Y-80732285D01*
X140143571Y-80970380D01*
X139905476Y-81113238D01*
X139667380Y-81160857D01*
X139429285Y-81113238D01*
X139191190Y-80970380D01*
X139048333Y-80732285D01*
X139000714Y-80494190D01*
X139048333Y-80256095D01*
X139191190Y-80018000D01*
X139429285Y-79875142D01*
X139667380Y-79827523D01*
X137810238Y-80970380D02*
X137810238Y-79970380D01*
X137476904Y-80684666D01*
X137143571Y-79970380D01*
X137143571Y-80970380D01*
X136238809Y-80970380D02*
X136238809Y-80446571D01*
X136286428Y-80351333D01*
X136381666Y-80303714D01*
X136572142Y-80303714D01*
X136667380Y-80351333D01*
X136238809Y-80922761D02*
X136334047Y-80970380D01*
X136572142Y-80970380D01*
X136667380Y-80922761D01*
X136715000Y-80827523D01*
X136715000Y-80732285D01*
X136667380Y-80637047D01*
X136572142Y-80589428D01*
X136334047Y-80589428D01*
X136238809Y-80541809D01*
X135905476Y-80303714D02*
X135524523Y-80303714D01*
X135762619Y-79970380D02*
X135762619Y-80827523D01*
X135715000Y-80922761D01*
X135619761Y-80970380D01*
X135524523Y-80970380D01*
X135334047Y-80303714D02*
X134953095Y-80303714D01*
X135191190Y-79970380D02*
X135191190Y-80827523D01*
X135143571Y-80922761D01*
X135048333Y-80970380D01*
X134953095Y-80970380D01*
X133334047Y-80018000D02*
X133429285Y-79970380D01*
X133572142Y-79970380D01*
X133715000Y-80018000D01*
X133810238Y-80113238D01*
X133857857Y-80208476D01*
X133905476Y-80398952D01*
X133905476Y-80541809D01*
X133857857Y-80732285D01*
X133810238Y-80827523D01*
X133715000Y-80922761D01*
X133572142Y-80970380D01*
X133476904Y-80970380D01*
X133334047Y-80922761D01*
X133286428Y-80875142D01*
X133286428Y-80541809D01*
X133476904Y-80541809D01*
X132715000Y-80970380D02*
X132810238Y-80922761D01*
X132857857Y-80827523D01*
X132857857Y-79970380D01*
X131953095Y-80922761D02*
X132048333Y-80970380D01*
X132238809Y-80970380D01*
X132334047Y-80922761D01*
X132381666Y-80827523D01*
X132381666Y-80446571D01*
X132334047Y-80351333D01*
X132238809Y-80303714D01*
X132048333Y-80303714D01*
X131953095Y-80351333D01*
X131905476Y-80446571D01*
X131905476Y-80541809D01*
X132381666Y-80637047D01*
X131476904Y-80970380D02*
X131476904Y-80303714D01*
X131476904Y-79970380D02*
X131524523Y-80018000D01*
X131476904Y-80065619D01*
X131429285Y-80018000D01*
X131476904Y-79970380D01*
X131476904Y-80065619D01*
X130572142Y-80922761D02*
X130667380Y-80970380D01*
X130857857Y-80970380D01*
X130953095Y-80922761D01*
X131000714Y-80875142D01*
X131048333Y-80779904D01*
X131048333Y-80494190D01*
X131000714Y-80398952D01*
X130953095Y-80351333D01*
X130857857Y-80303714D01*
X130667380Y-80303714D01*
X130572142Y-80351333D01*
X130143571Y-80970380D02*
X130143571Y-79970380D01*
X129715000Y-80970380D02*
X129715000Y-80446571D01*
X129762619Y-80351333D01*
X129857857Y-80303714D01*
X130000714Y-80303714D01*
X130095952Y-80351333D01*
X130143571Y-80398952D01*
X128524523Y-80065619D02*
X128476904Y-80018000D01*
X128381666Y-79970380D01*
X128143571Y-79970380D01*
X128048333Y-80018000D01*
X128000714Y-80065619D01*
X127953095Y-80160857D01*
X127953095Y-80256095D01*
X128000714Y-80398952D01*
X128572142Y-80970380D01*
X127953095Y-80970380D01*
X127334047Y-79970380D02*
X127238809Y-79970380D01*
X127143571Y-80018000D01*
X127095952Y-80065619D01*
X127048333Y-80160857D01*
X127000714Y-80351333D01*
X127000714Y-80589428D01*
X127048333Y-80779904D01*
X127095952Y-80875142D01*
X127143571Y-80922761D01*
X127238809Y-80970380D01*
X127334047Y-80970380D01*
X127429285Y-80922761D01*
X127476904Y-80875142D01*
X127524523Y-80779904D01*
X127572142Y-80589428D01*
X127572142Y-80351333D01*
X127524523Y-80160857D01*
X127476904Y-80065619D01*
X127429285Y-80018000D01*
X127334047Y-79970380D01*
X126619761Y-80065619D02*
X126572142Y-80018000D01*
X126476904Y-79970380D01*
X126238809Y-79970380D01*
X126143571Y-80018000D01*
X126095952Y-80065619D01*
X126048333Y-80160857D01*
X126048333Y-80256095D01*
X126095952Y-80398952D01*
X126667380Y-80970380D01*
X126048333Y-80970380D01*
X125667380Y-80065619D02*
X125619761Y-80018000D01*
X125524523Y-79970380D01*
X125286428Y-79970380D01*
X125191190Y-80018000D01*
X125143571Y-80065619D01*
X125095952Y-80160857D01*
X125095952Y-80256095D01*
X125143571Y-80398952D01*
X125715000Y-80970380D01*
X125095952Y-80970380D01*
%TO.C,logo*%
G36*
X173925600Y-67084297D02*
G01*
X173997183Y-67093175D01*
X174152882Y-67114367D01*
X174306412Y-67140470D01*
X174445170Y-67170730D01*
X174577209Y-67206926D01*
X174710580Y-67250838D01*
X174960841Y-67353196D01*
X175214040Y-67487131D01*
X175452036Y-67645136D01*
X175673047Y-67825434D01*
X175875295Y-68026248D01*
X176057001Y-68245799D01*
X176216384Y-68482311D01*
X176351666Y-68734006D01*
X176461066Y-68999107D01*
X176489111Y-69083127D01*
X176546719Y-69293273D01*
X176590028Y-69509846D01*
X176617293Y-69723113D01*
X176620513Y-69791161D01*
X176626769Y-69923338D01*
X176626769Y-70073379D01*
X176674973Y-70090183D01*
X176718386Y-70107383D01*
X176790239Y-70140169D01*
X176875076Y-70182066D01*
X176965902Y-70229410D01*
X177055725Y-70278538D01*
X177137549Y-70325788D01*
X177204383Y-70367494D01*
X177377473Y-70491024D01*
X177600487Y-70680769D01*
X177801655Y-70889902D01*
X177979839Y-71116931D01*
X178133902Y-71360362D01*
X178262705Y-71618703D01*
X178365111Y-71890460D01*
X178399569Y-72004521D01*
X178440604Y-72168616D01*
X178469426Y-72330577D01*
X178487761Y-72500838D01*
X178497335Y-72689834D01*
X178497766Y-72764849D01*
X178498325Y-72862339D01*
X178483246Y-73115564D01*
X178447042Y-73355926D01*
X178388691Y-73589502D01*
X178307175Y-73822369D01*
X178245315Y-73977640D01*
X178290449Y-74023673D01*
X178356839Y-74091386D01*
X178428816Y-74167639D01*
X178608157Y-74386526D01*
X178762851Y-74620099D01*
X178892644Y-74866230D01*
X178997286Y-75122788D01*
X179076525Y-75387645D01*
X179130109Y-75658671D01*
X179157786Y-75933736D01*
X179158992Y-76153685D01*
X179159305Y-76210711D01*
X179134413Y-76487468D01*
X179082860Y-76761875D01*
X179004393Y-77031804D01*
X178898760Y-77295126D01*
X178765710Y-77549711D01*
X178727985Y-77612206D01*
X178657004Y-77720619D01*
X178580460Y-77824806D01*
X178493831Y-77930439D01*
X178392595Y-78043191D01*
X178272229Y-78168735D01*
X178093225Y-78350997D01*
X178048435Y-78396602D01*
X178146052Y-78671334D01*
X178147464Y-78675311D01*
X178215023Y-78876927D01*
X178267472Y-79060239D01*
X178306093Y-79231935D01*
X178332169Y-79398703D01*
X178346982Y-79567230D01*
X178348661Y-79628700D01*
X178351816Y-79744204D01*
X178351331Y-79801678D01*
X178331434Y-80091205D01*
X178283188Y-80373977D01*
X178207674Y-80648250D01*
X178105972Y-80912280D01*
X177979162Y-81164324D01*
X177828324Y-81402640D01*
X177654537Y-81625483D01*
X177458883Y-81831111D01*
X177242440Y-82017781D01*
X177006289Y-82183748D01*
X176751511Y-82327271D01*
X176628703Y-82388606D01*
X176619825Y-82460188D01*
X176598633Y-82615887D01*
X176584562Y-82698649D01*
X176572530Y-82769417D01*
X176542270Y-82908175D01*
X176506074Y-83040214D01*
X176462162Y-83173586D01*
X176359446Y-83424559D01*
X176225476Y-83677559D01*
X176067430Y-83915414D01*
X175887100Y-84136332D01*
X175686278Y-84338518D01*
X175466755Y-84520178D01*
X175230322Y-84679520D01*
X174978771Y-84814749D01*
X174713893Y-84924072D01*
X174629873Y-84952117D01*
X174419727Y-85009724D01*
X174203154Y-85053033D01*
X173989887Y-85080298D01*
X173789662Y-85089775D01*
X173639621Y-85089775D01*
X173622817Y-85137979D01*
X173605617Y-85181392D01*
X173572831Y-85253245D01*
X173558782Y-85281692D01*
X173530934Y-85338081D01*
X173483590Y-85428908D01*
X173434462Y-85518730D01*
X173387212Y-85600555D01*
X173345506Y-85667388D01*
X173221976Y-85840478D01*
X173032231Y-86063492D01*
X172823098Y-86264660D01*
X172596069Y-86442844D01*
X172352638Y-86596907D01*
X172094297Y-86725710D01*
X171822540Y-86828116D01*
X171708479Y-86862575D01*
X171544384Y-86903609D01*
X171382423Y-86932431D01*
X171212162Y-86950766D01*
X171023166Y-86960341D01*
X170850661Y-86961331D01*
X170597436Y-86946252D01*
X170357074Y-86910047D01*
X170123498Y-86851697D01*
X169890631Y-86770180D01*
X169735360Y-86708321D01*
X169677150Y-86765393D01*
X169621614Y-86819844D01*
X169549357Y-86888158D01*
X169328816Y-87069171D01*
X169090784Y-87226580D01*
X168837078Y-87359507D01*
X168569512Y-87467076D01*
X168289905Y-87548410D01*
X168000071Y-87602632D01*
X167919502Y-87612214D01*
X167670878Y-87625217D01*
X167413352Y-87615790D01*
X167154251Y-87584709D01*
X166900898Y-87532749D01*
X166660619Y-87460687D01*
X166608854Y-87441920D01*
X166415603Y-87362653D01*
X166235407Y-87272352D01*
X166063220Y-87167738D01*
X165893997Y-87045533D01*
X165722694Y-86902458D01*
X165544265Y-86735234D01*
X165386225Y-86580019D01*
X165643353Y-86580019D01*
X165700241Y-86639408D01*
X165735416Y-86674322D01*
X165808094Y-86740371D01*
X165893560Y-86812771D01*
X165984186Y-86885309D01*
X166072343Y-86951775D01*
X166150403Y-87005956D01*
X166309372Y-87101338D01*
X166552848Y-87219929D01*
X166809787Y-87315347D01*
X167074951Y-87385735D01*
X167343101Y-87429232D01*
X167554716Y-87443562D01*
X167829869Y-87436288D01*
X168103592Y-87400542D01*
X168372940Y-87337054D01*
X168634970Y-87246554D01*
X168886735Y-87129771D01*
X169125293Y-86987437D01*
X169190310Y-86942619D01*
X169259468Y-86892068D01*
X169318200Y-86846068D01*
X169362857Y-86807622D01*
X169389789Y-86779730D01*
X169395346Y-86765393D01*
X169391194Y-86763158D01*
X169363371Y-86750680D01*
X169311814Y-86728498D01*
X169239228Y-86697730D01*
X169148319Y-86659495D01*
X169103350Y-86640674D01*
X170071135Y-86640674D01*
X170073098Y-86642105D01*
X170098204Y-86652207D01*
X170144959Y-86666767D01*
X170207066Y-86684135D01*
X170278227Y-86702659D01*
X170352144Y-86720689D01*
X170422521Y-86736574D01*
X170483060Y-86748662D01*
X170536055Y-86756364D01*
X170627183Y-86765155D01*
X170734538Y-86772034D01*
X170850441Y-86776787D01*
X170967218Y-86779194D01*
X171077190Y-86779042D01*
X171172682Y-86776112D01*
X171246017Y-86770187D01*
X171276380Y-86766203D01*
X171553356Y-86713662D01*
X171822191Y-86633688D01*
X172080630Y-86527614D01*
X172326417Y-86396773D01*
X172557297Y-86242497D01*
X172771014Y-86066119D01*
X172965313Y-85868971D01*
X173137940Y-85652386D01*
X173151730Y-85632527D01*
X173185868Y-85580503D01*
X173223940Y-85519632D01*
X173262598Y-85455605D01*
X173298494Y-85394108D01*
X173328279Y-85340831D01*
X173348606Y-85301463D01*
X173356125Y-85281692D01*
X173354663Y-85281036D01*
X173331183Y-85279009D01*
X173280990Y-85277106D01*
X173206588Y-85275355D01*
X173110483Y-85273790D01*
X172995182Y-85272439D01*
X172863190Y-85271336D01*
X172717012Y-85270509D01*
X172559155Y-85269990D01*
X172392124Y-85269810D01*
X171428122Y-85269810D01*
X170746206Y-85951850D01*
X170708309Y-85989775D01*
X170592207Y-86106231D01*
X170483340Y-86215828D01*
X170383461Y-86316777D01*
X170294323Y-86407290D01*
X170217681Y-86485576D01*
X170155288Y-86549846D01*
X170108897Y-86598312D01*
X170080261Y-86629185D01*
X170071135Y-86640674D01*
X169103350Y-86640674D01*
X169041792Y-86614910D01*
X168922352Y-86565095D01*
X168792706Y-86511166D01*
X168655558Y-86454242D01*
X168513614Y-86395442D01*
X168369579Y-86335884D01*
X168226159Y-86276685D01*
X168086060Y-86218965D01*
X167951985Y-86163840D01*
X167826642Y-86112430D01*
X167712735Y-86065852D01*
X167612971Y-86025225D01*
X167530053Y-85991667D01*
X167466688Y-85966297D01*
X167425581Y-85950231D01*
X167409438Y-85944589D01*
X167408780Y-85944672D01*
X167388460Y-85950912D01*
X167342740Y-85966453D01*
X167274076Y-85990420D01*
X167184926Y-86021936D01*
X167077748Y-86060126D01*
X166954999Y-86104116D01*
X166819137Y-86153029D01*
X166672619Y-86205992D01*
X166517902Y-86262127D01*
X166049084Y-86432539D01*
X165643353Y-86580019D01*
X165386225Y-86580019D01*
X165316398Y-86511440D01*
X165041666Y-86609057D01*
X165037689Y-86610469D01*
X164836073Y-86678029D01*
X164652761Y-86730477D01*
X164481065Y-86769098D01*
X164314297Y-86795174D01*
X164145770Y-86809988D01*
X163968796Y-86814822D01*
X163911322Y-86814337D01*
X163621795Y-86794440D01*
X163339023Y-86746194D01*
X163064750Y-86670680D01*
X162800720Y-86568978D01*
X162548676Y-86442168D01*
X162310360Y-86291329D01*
X162087517Y-86117543D01*
X161881889Y-85921888D01*
X161695219Y-85705446D01*
X161529252Y-85469295D01*
X161421103Y-85277312D01*
X161621044Y-85277312D01*
X161709717Y-85412338D01*
X161810529Y-85555420D01*
X161990211Y-85769450D01*
X162189927Y-85962863D01*
X162407590Y-86134388D01*
X162641113Y-86282755D01*
X162888408Y-86406693D01*
X163147390Y-86504931D01*
X163415970Y-86576199D01*
X163692062Y-86619226D01*
X163699248Y-86619941D01*
X163796729Y-86627053D01*
X163906503Y-86631241D01*
X164018045Y-86632385D01*
X164120827Y-86630366D01*
X164204324Y-86625063D01*
X164238186Y-86621371D01*
X164355970Y-86604481D01*
X164482441Y-86581205D01*
X164609883Y-86553323D01*
X164730578Y-86522614D01*
X164836808Y-86490858D01*
X164920854Y-86459835D01*
X164984757Y-86432539D01*
X164403083Y-85851076D01*
X163829110Y-85277312D01*
X164339179Y-85277312D01*
X165367053Y-86300452D01*
X166094696Y-86033367D01*
X166137019Y-86017832D01*
X166277129Y-85966403D01*
X166408978Y-85918005D01*
X166529723Y-85873681D01*
X166636521Y-85834476D01*
X166726526Y-85801434D01*
X166796895Y-85775599D01*
X166844784Y-85758015D01*
X166867348Y-85749726D01*
X166867540Y-85749650D01*
X167935973Y-85749650D01*
X167936282Y-85750412D01*
X167954090Y-85760330D01*
X167996802Y-85780411D01*
X168062117Y-85809666D01*
X168147739Y-85847102D01*
X168251368Y-85891728D01*
X168370707Y-85942554D01*
X168503457Y-85998588D01*
X168647320Y-86058838D01*
X168799998Y-86122313D01*
X168834501Y-86136602D01*
X168986320Y-86199370D01*
X169129487Y-86258392D01*
X169261621Y-86312697D01*
X169380339Y-86361312D01*
X169483259Y-86403267D01*
X169568000Y-86437589D01*
X169632180Y-86463308D01*
X169673416Y-86479452D01*
X169689327Y-86485049D01*
X169697656Y-86478699D01*
X169725695Y-86453058D01*
X169771463Y-86409500D01*
X169833035Y-86349911D01*
X169908484Y-86276174D01*
X169995884Y-86190174D01*
X170093308Y-86093793D01*
X170198831Y-85988917D01*
X170310526Y-85877430D01*
X170918007Y-85269810D01*
X169245823Y-85269810D01*
X169219930Y-85279182D01*
X168596692Y-85504767D01*
X168481551Y-85546533D01*
X168356012Y-85592290D01*
X168241583Y-85634230D01*
X168141119Y-85671295D01*
X168057471Y-85702427D01*
X167993496Y-85726568D01*
X167967478Y-85736670D01*
X167952045Y-85742662D01*
X167935973Y-85749650D01*
X166867540Y-85749650D01*
X166871960Y-85747902D01*
X166879694Y-85743001D01*
X166880318Y-85736670D01*
X166871540Y-85727799D01*
X166851065Y-85715278D01*
X166816602Y-85697997D01*
X166765856Y-85674846D01*
X166696535Y-85644716D01*
X166606345Y-85606496D01*
X166492993Y-85559076D01*
X166354187Y-85501347D01*
X165799213Y-85270852D01*
X166747324Y-85270852D01*
X167067377Y-85404229D01*
X167119074Y-85425760D01*
X167206779Y-85462226D01*
X167283361Y-85493990D01*
X167344676Y-85519338D01*
X167386584Y-85536555D01*
X167404944Y-85543927D01*
X167414525Y-85542206D01*
X167448832Y-85532057D01*
X167503455Y-85514351D01*
X167573839Y-85490687D01*
X167655427Y-85462670D01*
X167743664Y-85431901D01*
X167833995Y-85399982D01*
X167921863Y-85368516D01*
X168002714Y-85339105D01*
X168071991Y-85313350D01*
X168125139Y-85292855D01*
X168157602Y-85279221D01*
X168157673Y-85279182D01*
X168145469Y-85277760D01*
X168106168Y-85276408D01*
X168042602Y-85275157D01*
X167957605Y-85274039D01*
X167854009Y-85273084D01*
X167734649Y-85272325D01*
X167602356Y-85271791D01*
X167459965Y-85271516D01*
X166747324Y-85270852D01*
X165799213Y-85270852D01*
X165796016Y-85269524D01*
X165067598Y-85273418D01*
X164339179Y-85277312D01*
X163829110Y-85277312D01*
X163821409Y-85269614D01*
X162721227Y-85273463D01*
X161621044Y-85277312D01*
X161421103Y-85277312D01*
X161385729Y-85214516D01*
X161324394Y-85091709D01*
X161252812Y-85082831D01*
X161097113Y-85061639D01*
X160943583Y-85035535D01*
X160804825Y-85005275D01*
X160672786Y-84969079D01*
X160539414Y-84925167D01*
X160288441Y-84822452D01*
X160035441Y-84688481D01*
X159797586Y-84530436D01*
X159576668Y-84350106D01*
X159374482Y-84149284D01*
X159192822Y-83929760D01*
X159033480Y-83693327D01*
X158898251Y-83441776D01*
X158788928Y-83176898D01*
X158760883Y-83092878D01*
X158703276Y-82882733D01*
X158659967Y-82666159D01*
X158632702Y-82452893D01*
X158629338Y-82381813D01*
X158809138Y-82381813D01*
X158810919Y-82406563D01*
X158815102Y-82451386D01*
X158821051Y-82509267D01*
X158829156Y-82573668D01*
X158853195Y-82713531D01*
X158885535Y-82860096D01*
X158923339Y-83001127D01*
X158963767Y-83124388D01*
X159004293Y-83227724D01*
X159126439Y-83484629D01*
X159272107Y-83724729D01*
X159439806Y-83946665D01*
X159628045Y-84149079D01*
X159835334Y-84330612D01*
X160060181Y-84489905D01*
X160301095Y-84625598D01*
X160556585Y-84736334D01*
X160825160Y-84820754D01*
X160879554Y-84834635D01*
X160947768Y-84851167D01*
X160993695Y-84860524D01*
X161021428Y-84863297D01*
X161035065Y-84860073D01*
X161038701Y-84851441D01*
X161037338Y-84846518D01*
X161027434Y-84817163D01*
X161008826Y-84764072D01*
X160982562Y-84690132D01*
X160949691Y-84598230D01*
X160911261Y-84491254D01*
X160868320Y-84372090D01*
X160821916Y-84243625D01*
X160773097Y-84108748D01*
X160722913Y-83970344D01*
X160672409Y-83831301D01*
X160622636Y-83694506D01*
X160574641Y-83562846D01*
X160529473Y-83439209D01*
X160488179Y-83326481D01*
X160451807Y-83227549D01*
X160448552Y-83218742D01*
X160835245Y-83218742D01*
X160839716Y-83232666D01*
X160853602Y-83272360D01*
X160876026Y-83335369D01*
X160906107Y-83419243D01*
X160942960Y-83521532D01*
X160985704Y-83639784D01*
X161033454Y-83771551D01*
X161085329Y-83914380D01*
X161140446Y-84065823D01*
X161426653Y-84851441D01*
X161447891Y-84909739D01*
X163461624Y-84909739D01*
X162943714Y-84391830D01*
X162813790Y-84261906D01*
X163338303Y-84261906D01*
X163349547Y-84278278D01*
X163373809Y-84306169D01*
X163412740Y-84347505D01*
X163467995Y-84404213D01*
X163541226Y-84478220D01*
X163634087Y-84571451D01*
X163971528Y-84909739D01*
X164442996Y-84909739D01*
X164504315Y-84909691D01*
X164614379Y-84909349D01*
X164712038Y-84908712D01*
X164793770Y-84907825D01*
X164856057Y-84906730D01*
X164895377Y-84905469D01*
X164908212Y-84904086D01*
X164905367Y-84902663D01*
X164879996Y-84891600D01*
X164830548Y-84870624D01*
X164759616Y-84840817D01*
X164669790Y-84803261D01*
X164563661Y-84759039D01*
X164443821Y-84709233D01*
X164312862Y-84654924D01*
X164173373Y-84597195D01*
X164126405Y-84577774D01*
X163985977Y-84519690D01*
X163852843Y-84464595D01*
X163729923Y-84413700D01*
X163620136Y-84368213D01*
X163526402Y-84329346D01*
X163451641Y-84298308D01*
X163398772Y-84276310D01*
X163370715Y-84264560D01*
X163366135Y-84262639D01*
X163348250Y-84256013D01*
X163338421Y-84255127D01*
X163338303Y-84261906D01*
X162813790Y-84261906D01*
X162425805Y-83873920D01*
X161631647Y-83544749D01*
X161515431Y-83496622D01*
X161376462Y-83439195D01*
X161247989Y-83386238D01*
X161132470Y-83338758D01*
X161032363Y-83297761D01*
X160950129Y-83264255D01*
X160888225Y-83239245D01*
X160849111Y-83223739D01*
X160835245Y-83218742D01*
X160448552Y-83218742D01*
X160421407Y-83145301D01*
X160398026Y-83082624D01*
X160382712Y-83042405D01*
X160376514Y-83027531D01*
X160374364Y-83026406D01*
X160350764Y-83016028D01*
X160303641Y-82995992D01*
X160236008Y-82967545D01*
X160150877Y-82931932D01*
X160051263Y-82890401D01*
X159940178Y-82844198D01*
X159820635Y-82794569D01*
X159695647Y-82742762D01*
X159568229Y-82690023D01*
X159441393Y-82637598D01*
X159318151Y-82586734D01*
X159201518Y-82538679D01*
X159094506Y-82494677D01*
X159000129Y-82455977D01*
X158921400Y-82423824D01*
X158861332Y-82399465D01*
X158822938Y-82384147D01*
X158809232Y-82379116D01*
X158809138Y-82381813D01*
X158629338Y-82381813D01*
X158623225Y-82252668D01*
X158623225Y-82102626D01*
X158575021Y-82085822D01*
X158531608Y-82068623D01*
X158459755Y-82035837D01*
X158374919Y-81993940D01*
X158284092Y-81946596D01*
X158194270Y-81897467D01*
X158112445Y-81850218D01*
X158045612Y-81808512D01*
X157872522Y-81684982D01*
X157649508Y-81495237D01*
X157448340Y-81286103D01*
X157270156Y-81059074D01*
X157116093Y-80815643D01*
X156987290Y-80557303D01*
X156884884Y-80285545D01*
X156850425Y-80171484D01*
X156809391Y-80007390D01*
X156780569Y-79845429D01*
X156762234Y-79675168D01*
X156752659Y-79486172D01*
X156752228Y-79411157D01*
X156936651Y-79411157D01*
X156937052Y-79497692D01*
X156938397Y-79590595D01*
X156941161Y-79665229D01*
X156945882Y-79728273D01*
X156953099Y-79786405D01*
X156963347Y-79846304D01*
X156977165Y-79914648D01*
X157013501Y-80070993D01*
X157063268Y-80241678D01*
X157123298Y-80404060D01*
X157197553Y-80569917D01*
X157297269Y-80758405D01*
X157451882Y-80996400D01*
X157628704Y-81214567D01*
X157826996Y-81412109D01*
X158046017Y-81588229D01*
X158285029Y-81742129D01*
X158326024Y-81765300D01*
X158376964Y-81793088D01*
X158414070Y-81812091D01*
X158431308Y-81819131D01*
X158431964Y-81817668D01*
X158433991Y-81794189D01*
X158435894Y-81743995D01*
X158437645Y-81669594D01*
X158439210Y-81573489D01*
X158440561Y-81458188D01*
X158441664Y-81326195D01*
X158442491Y-81180018D01*
X158442701Y-81116169D01*
X158803261Y-81116169D01*
X158803364Y-81287369D01*
X158803751Y-81453198D01*
X158804464Y-81592614D01*
X158805543Y-81707516D01*
X158807031Y-81799806D01*
X158808967Y-81871384D01*
X158811392Y-81924151D01*
X158814348Y-81960006D01*
X158817875Y-81980852D01*
X158822014Y-81988589D01*
X158822356Y-81988728D01*
X158841450Y-81996618D01*
X158885302Y-82014777D01*
X158951149Y-82042059D01*
X159036230Y-82077320D01*
X159137781Y-82119415D01*
X159253040Y-82167198D01*
X159379245Y-82219525D01*
X159513633Y-82275250D01*
X159525843Y-82280313D01*
X159659024Y-82335482D01*
X159783349Y-82386887D01*
X159896127Y-82433421D01*
X159994662Y-82473977D01*
X160076262Y-82507447D01*
X160138234Y-82532725D01*
X160177883Y-82548703D01*
X160192516Y-82554276D01*
X160193970Y-82554004D01*
X160195747Y-82550764D01*
X160195042Y-82542033D01*
X160191076Y-82525540D01*
X160183075Y-82499013D01*
X160170260Y-82460183D01*
X160151856Y-82406777D01*
X160127086Y-82336525D01*
X160095173Y-82247156D01*
X160055341Y-82136399D01*
X160006812Y-82001982D01*
X159948812Y-81841635D01*
X159921336Y-81765714D01*
X160307950Y-81765714D01*
X160313645Y-81786515D01*
X160328222Y-81830556D01*
X160350235Y-81893915D01*
X160378239Y-81972672D01*
X160410786Y-82062905D01*
X160446430Y-82160694D01*
X160483725Y-82262118D01*
X160521224Y-82363257D01*
X160557482Y-82460189D01*
X160591051Y-82548995D01*
X160591729Y-82550764D01*
X160620486Y-82625753D01*
X160644341Y-82686542D01*
X160661168Y-82727441D01*
X160669521Y-82744531D01*
X160684273Y-82752934D01*
X160724071Y-82771735D01*
X160785419Y-82799189D01*
X160865063Y-82833881D01*
X160959749Y-82874394D01*
X161066222Y-82919312D01*
X161181229Y-82967218D01*
X161284302Y-83009863D01*
X161393784Y-83055099D01*
X161492676Y-83095896D01*
X161577553Y-83130843D01*
X161644989Y-83158531D01*
X161691558Y-83177549D01*
X161713834Y-83186486D01*
X161713868Y-83184119D01*
X161697761Y-83164207D01*
X161662970Y-83125831D01*
X161611109Y-83070662D01*
X161543791Y-83000371D01*
X161462632Y-82916627D01*
X161369244Y-82821103D01*
X161265242Y-82715467D01*
X161152241Y-82601393D01*
X161031854Y-82480549D01*
X160961820Y-82410483D01*
X160843762Y-82292563D01*
X160733013Y-82182181D01*
X160631307Y-82081053D01*
X160540377Y-81990893D01*
X160461956Y-81913416D01*
X160397779Y-81850337D01*
X160349578Y-81803370D01*
X160319089Y-81774231D01*
X160308044Y-81764633D01*
X160307950Y-81765714D01*
X159921336Y-81765714D01*
X159699049Y-81151500D01*
X158803261Y-80251384D01*
X158803261Y-81116169D01*
X158442701Y-81116169D01*
X158443010Y-81022160D01*
X158443190Y-80855129D01*
X158443190Y-79891128D01*
X158292760Y-79740725D01*
X158802859Y-79740725D01*
X159097569Y-80033531D01*
X159109209Y-80045084D01*
X159184304Y-80119001D01*
X159251247Y-80183858D01*
X159307437Y-80237213D01*
X159350271Y-80276622D01*
X159377148Y-80299643D01*
X159385466Y-80303833D01*
X159382646Y-80295613D01*
X159370413Y-80261202D01*
X159349492Y-80202877D01*
X159320833Y-80123271D01*
X159285386Y-80025014D01*
X159244100Y-79910738D01*
X159197925Y-79783075D01*
X159147811Y-79644656D01*
X159094707Y-79498113D01*
X158810762Y-78714898D01*
X158806810Y-79227811D01*
X158805630Y-79381012D01*
X158802859Y-79740725D01*
X158292760Y-79740725D01*
X157761150Y-79209211D01*
X157723225Y-79171314D01*
X157606769Y-79055212D01*
X157497172Y-78946345D01*
X157396223Y-78846466D01*
X157305710Y-78757329D01*
X157227424Y-78680687D01*
X157163154Y-78618294D01*
X157114688Y-78571902D01*
X157083815Y-78543267D01*
X157072326Y-78534140D01*
X157070860Y-78536163D01*
X157060718Y-78561420D01*
X157046081Y-78608435D01*
X157028570Y-78671029D01*
X157009807Y-78743019D01*
X156991416Y-78818226D01*
X156975017Y-78890469D01*
X156962234Y-78953567D01*
X156961410Y-78958071D01*
X156951362Y-79023539D01*
X156944186Y-79095785D01*
X156939558Y-79180605D01*
X156937154Y-79283797D01*
X156936651Y-79411157D01*
X156752228Y-79411157D01*
X156751669Y-79313666D01*
X156766748Y-79060441D01*
X156802953Y-78820079D01*
X156861303Y-78586503D01*
X156942820Y-78353636D01*
X157004679Y-78198365D01*
X156959547Y-78152333D01*
X157227951Y-78152333D01*
X157234301Y-78160661D01*
X157259942Y-78188700D01*
X157303500Y-78234469D01*
X157363089Y-78296041D01*
X157436826Y-78371490D01*
X157522826Y-78458889D01*
X157619207Y-78556314D01*
X157724083Y-78661836D01*
X157835570Y-78773531D01*
X158443190Y-79381012D01*
X158443190Y-77708829D01*
X158419600Y-77643655D01*
X158803261Y-77643655D01*
X159403539Y-79292556D01*
X159771692Y-80303833D01*
X160003818Y-80941458D01*
X161320167Y-82256311D01*
X162249030Y-83184119D01*
X162636515Y-83571164D01*
X164254791Y-84240452D01*
X165859398Y-84904086D01*
X165873066Y-84909739D01*
X169192806Y-84907653D01*
X169223646Y-84896404D01*
X170283697Y-84896404D01*
X170293635Y-84900050D01*
X170318900Y-84902884D01*
X170361939Y-84905013D01*
X170425198Y-84906548D01*
X170511124Y-84907598D01*
X170622162Y-84908273D01*
X170760759Y-84908682D01*
X171278505Y-84909739D01*
X171788379Y-84909739D01*
X172653163Y-84909739D01*
X172824363Y-84909636D01*
X172990193Y-84909249D01*
X173129608Y-84908536D01*
X173244511Y-84907457D01*
X173336801Y-84905969D01*
X173408379Y-84904033D01*
X173461145Y-84901608D01*
X173497001Y-84898652D01*
X173502905Y-84897653D01*
X173919120Y-84897653D01*
X173922858Y-84907777D01*
X173925314Y-84907404D01*
X173950940Y-84904184D01*
X173996394Y-84898821D01*
X174053763Y-84892254D01*
X174129517Y-84881987D01*
X174265413Y-84857283D01*
X174407367Y-84825037D01*
X174543362Y-84788078D01*
X174661382Y-84749233D01*
X174723976Y-84725264D01*
X174986694Y-84605546D01*
X175231756Y-84461937D01*
X175458154Y-84295433D01*
X175664877Y-84107034D01*
X175850916Y-83897737D01*
X176015261Y-83668538D01*
X176156905Y-83420437D01*
X176274836Y-83154431D01*
X176295573Y-83096422D01*
X176318550Y-83024461D01*
X176341130Y-82947247D01*
X176361859Y-82870418D01*
X176379283Y-82799616D01*
X176391949Y-82740479D01*
X176398402Y-82698649D01*
X176397188Y-82679765D01*
X176394686Y-82680017D01*
X176369820Y-82687357D01*
X176320741Y-82703549D01*
X176250332Y-82727560D01*
X176161473Y-82758358D01*
X176057047Y-82794911D01*
X175939933Y-82836186D01*
X175813015Y-82881152D01*
X175679172Y-82928777D01*
X175541287Y-82978028D01*
X175402241Y-83027872D01*
X175264915Y-83077279D01*
X175132190Y-83125215D01*
X175006948Y-83170648D01*
X174892071Y-83212546D01*
X174790439Y-83249878D01*
X174704934Y-83281610D01*
X174638438Y-83306711D01*
X174593831Y-83324148D01*
X174573995Y-83332890D01*
X174568292Y-83343713D01*
X174552028Y-83379549D01*
X174526632Y-83437495D01*
X174493378Y-83514524D01*
X174491862Y-83518066D01*
X174453537Y-83607611D01*
X174408383Y-83713731D01*
X174359188Y-83829859D01*
X174307225Y-83952970D01*
X174253766Y-84080037D01*
X174200083Y-84208036D01*
X174147449Y-84333941D01*
X174097137Y-84454727D01*
X174050418Y-84567369D01*
X174008567Y-84668840D01*
X173972855Y-84756117D01*
X173944554Y-84826173D01*
X173924938Y-84875983D01*
X173919120Y-84897653D01*
X173502905Y-84897653D01*
X173517847Y-84895125D01*
X173525583Y-84890986D01*
X173525733Y-84890619D01*
X173533669Y-84871413D01*
X173551870Y-84827460D01*
X173579191Y-84761519D01*
X173614487Y-84676353D01*
X173656615Y-84574722D01*
X173704430Y-84459386D01*
X173756787Y-84333108D01*
X173812543Y-84198647D01*
X173817976Y-84185539D01*
X173872975Y-84052346D01*
X173923947Y-83927983D01*
X173969815Y-83815142D01*
X174009501Y-83716519D01*
X174041928Y-83634806D01*
X174066016Y-83572697D01*
X174080690Y-83532886D01*
X174084870Y-83518066D01*
X174084351Y-83517969D01*
X174065347Y-83522983D01*
X174021283Y-83537196D01*
X173954884Y-83559658D01*
X173868873Y-83589422D01*
X173765973Y-83625538D01*
X173648910Y-83667057D01*
X173520405Y-83713031D01*
X173383183Y-83762510D01*
X172688494Y-84013951D01*
X172376320Y-84324624D01*
X172238436Y-84461845D01*
X171788379Y-84909739D01*
X171278505Y-84909739D01*
X171570774Y-84617182D01*
X171579622Y-84608320D01*
X171654568Y-84532843D01*
X171721161Y-84465058D01*
X171776811Y-84407653D01*
X171818931Y-84363319D01*
X171844934Y-84334746D01*
X171852230Y-84324624D01*
X171841801Y-84327965D01*
X171805902Y-84340486D01*
X171747444Y-84361235D01*
X171669527Y-84389090D01*
X171575247Y-84422931D01*
X171467705Y-84461637D01*
X171349998Y-84504086D01*
X171225224Y-84549158D01*
X171096483Y-84595731D01*
X170966872Y-84642685D01*
X170839491Y-84688898D01*
X170717436Y-84733250D01*
X170603808Y-84774619D01*
X170501704Y-84811885D01*
X170414223Y-84843926D01*
X170344463Y-84869621D01*
X170295523Y-84887850D01*
X170286640Y-84891834D01*
X170283697Y-84896404D01*
X169223646Y-84896404D01*
X170835629Y-84308421D01*
X172478453Y-83709189D01*
X172781663Y-83405635D01*
X173296114Y-83405635D01*
X173296116Y-83405720D01*
X173307366Y-83408317D01*
X173307478Y-83408304D01*
X173327422Y-83402437D01*
X173370968Y-83387465D01*
X173434132Y-83364884D01*
X173512932Y-83336186D01*
X173603386Y-83302868D01*
X173701510Y-83266422D01*
X173803322Y-83228344D01*
X173904838Y-83190128D01*
X174002077Y-83153268D01*
X174091055Y-83119259D01*
X174167789Y-83089594D01*
X174228298Y-83065769D01*
X174268597Y-83049277D01*
X174284705Y-83041614D01*
X174288349Y-83034936D01*
X174302591Y-83003918D01*
X174325770Y-82951170D01*
X174356324Y-82880407D01*
X174357458Y-82877755D01*
X174755737Y-82877755D01*
X174769660Y-82873284D01*
X174809355Y-82859398D01*
X174872364Y-82836974D01*
X174956238Y-82806893D01*
X175058526Y-82770040D01*
X175176779Y-82727296D01*
X175308545Y-82679546D01*
X175451375Y-82627671D01*
X175602818Y-82572554D01*
X176446734Y-82265109D01*
X176446734Y-80251376D01*
X175410915Y-81287195D01*
X175115809Y-81999166D01*
X175081743Y-82081353D01*
X175033616Y-82197569D01*
X174976189Y-82336538D01*
X174923232Y-82465011D01*
X174875752Y-82580530D01*
X174834756Y-82680637D01*
X174801249Y-82762871D01*
X174776240Y-82824775D01*
X174760733Y-82863889D01*
X174755737Y-82877755D01*
X174357458Y-82877755D01*
X174392689Y-82795344D01*
X174433302Y-82699694D01*
X174476598Y-82597174D01*
X174521014Y-82491497D01*
X174564987Y-82386377D01*
X174606954Y-82285531D01*
X174645350Y-82192672D01*
X174678612Y-82111515D01*
X174705176Y-82045775D01*
X174723480Y-81999166D01*
X174721072Y-81999158D01*
X174701083Y-82015345D01*
X174662635Y-82050210D01*
X174607399Y-82102141D01*
X174537044Y-82169524D01*
X174453241Y-82250745D01*
X174357660Y-82344191D01*
X174251971Y-82448248D01*
X174137843Y-82561303D01*
X174016948Y-82681742D01*
X173946673Y-82751961D01*
X173828546Y-82870081D01*
X173717852Y-82980872D01*
X173616317Y-83082602D01*
X173525669Y-83173537D01*
X173447631Y-83251945D01*
X173383931Y-83316092D01*
X173336294Y-83364245D01*
X173306446Y-83394670D01*
X173296114Y-83405635D01*
X172781663Y-83405635D01*
X173793314Y-82392837D01*
X175108176Y-81076485D01*
X175384315Y-80408853D01*
X175776046Y-80408853D01*
X175779241Y-80406081D01*
X175800179Y-80385904D01*
X175838423Y-80348324D01*
X175891412Y-80295877D01*
X175956588Y-80231099D01*
X176031391Y-80156527D01*
X176113262Y-80074697D01*
X176296232Y-79891591D01*
X176806608Y-79891591D01*
X176807867Y-80251376D01*
X176810457Y-80991773D01*
X176814306Y-82091956D01*
X176949333Y-82003283D01*
X176982865Y-81980898D01*
X177205301Y-81812422D01*
X177407510Y-81623485D01*
X177588409Y-81416198D01*
X177746916Y-81192671D01*
X177881948Y-80955016D01*
X177992422Y-80705344D01*
X178077257Y-80445765D01*
X178135369Y-80178391D01*
X178165676Y-79905332D01*
X178167095Y-79628700D01*
X178159169Y-79518297D01*
X178139951Y-79359278D01*
X178112549Y-79199471D01*
X178078526Y-79046557D01*
X178039446Y-78908221D01*
X177996871Y-78792146D01*
X177969534Y-78728243D01*
X176957604Y-79740540D01*
X176806608Y-79891591D01*
X176296232Y-79891591D01*
X176447171Y-79740540D01*
X176443202Y-79272084D01*
X176439232Y-78803628D01*
X176155445Y-79489968D01*
X176154340Y-79492639D01*
X176096483Y-79632497D01*
X176040580Y-79767502D01*
X175987988Y-79894385D01*
X175940064Y-80009879D01*
X175898166Y-80110714D01*
X175863651Y-80193622D01*
X175837876Y-80255334D01*
X175822198Y-80292580D01*
X175813376Y-80313447D01*
X175793239Y-80362219D01*
X175779956Y-80396137D01*
X175776046Y-80408853D01*
X175384315Y-80408853D01*
X175777455Y-79458344D01*
X176414977Y-77916984D01*
X176806518Y-77916984D01*
X176810412Y-78645348D01*
X176814306Y-79373713D01*
X177325660Y-78862355D01*
X177837013Y-78350997D01*
X177565040Y-77605826D01*
X177543310Y-77546295D01*
X177492104Y-77406063D01*
X177444171Y-77274866D01*
X177400513Y-77155440D01*
X177362131Y-77050521D01*
X177330027Y-76962847D01*
X177305200Y-76895152D01*
X177288654Y-76850174D01*
X177281389Y-76830649D01*
X177281377Y-76830620D01*
X177275584Y-76829403D01*
X177264360Y-76843922D01*
X177246903Y-76875914D01*
X177222413Y-76927118D01*
X177190091Y-76999271D01*
X177149133Y-77094113D01*
X177098742Y-77213381D01*
X177038115Y-77358813D01*
X176838376Y-77840204D01*
X176806518Y-77916984D01*
X176414977Y-77916984D01*
X176446734Y-77840204D01*
X176446734Y-76175143D01*
X176808690Y-76175143D01*
X176808692Y-76328238D01*
X176809223Y-76475014D01*
X176810284Y-76603631D01*
X176814306Y-76954228D01*
X176948082Y-76630699D01*
X176970766Y-76575603D01*
X177006440Y-76487908D01*
X177036968Y-76411549D01*
X177060744Y-76350613D01*
X177076158Y-76309186D01*
X177077123Y-76306025D01*
X177481938Y-76306025D01*
X177481984Y-76306488D01*
X177487933Y-76326244D01*
X177503235Y-76371464D01*
X177527007Y-76439673D01*
X177558367Y-76528394D01*
X177596433Y-76635152D01*
X177640322Y-76757471D01*
X177689151Y-76892875D01*
X177742039Y-77038888D01*
X177798103Y-77193035D01*
X177804373Y-77210239D01*
X177860120Y-77363079D01*
X177912722Y-77507087D01*
X177961289Y-77639843D01*
X178004934Y-77758925D01*
X178042766Y-77861914D01*
X178073896Y-77946388D01*
X178097435Y-78009927D01*
X178112495Y-78050109D01*
X178118185Y-78064514D01*
X178122602Y-78062945D01*
X178143619Y-78044800D01*
X178177908Y-78010578D01*
X178221437Y-77964647D01*
X178270172Y-77911379D01*
X178320082Y-77855142D01*
X178367133Y-77800306D01*
X178407292Y-77751241D01*
X178457792Y-77685289D01*
X178549486Y-77551899D01*
X178634368Y-77407681D01*
X178718192Y-77243230D01*
X178727904Y-77222756D01*
X178833322Y-76963543D01*
X178910363Y-76697489D01*
X178959188Y-76426800D01*
X178979957Y-76153685D01*
X178972832Y-75880353D01*
X178937974Y-75609010D01*
X178875543Y-75341867D01*
X178785702Y-75081129D01*
X178668611Y-74829007D01*
X178524431Y-74587707D01*
X178479614Y-74522690D01*
X178429062Y-74453532D01*
X178383063Y-74394800D01*
X178344616Y-74350143D01*
X178316724Y-74323211D01*
X178302387Y-74317654D01*
X178300143Y-74321718D01*
X178287606Y-74349441D01*
X178265376Y-74400939D01*
X178234573Y-74473504D01*
X178196313Y-74564429D01*
X178151713Y-74671003D01*
X178101892Y-74790520D01*
X178047967Y-74920271D01*
X177991055Y-75057548D01*
X177932275Y-75199641D01*
X177872742Y-75343844D01*
X177813576Y-75487447D01*
X177755893Y-75627742D01*
X177700811Y-75762021D01*
X177649448Y-75887576D01*
X177602920Y-76001698D01*
X177562347Y-76101678D01*
X177528844Y-76184810D01*
X177503530Y-76248384D01*
X177487522Y-76289692D01*
X177486953Y-76291355D01*
X177481938Y-76306025D01*
X177077123Y-76306025D01*
X177081603Y-76291355D01*
X177077467Y-76276272D01*
X177064274Y-76236268D01*
X177043350Y-76175539D01*
X177016059Y-76097993D01*
X176983763Y-76007536D01*
X176947826Y-75908075D01*
X176814306Y-75540611D01*
X176810284Y-75896823D01*
X176810278Y-75897365D01*
X176809219Y-76027571D01*
X176808690Y-76175143D01*
X176446734Y-76175143D01*
X176446734Y-74532351D01*
X176423008Y-74467177D01*
X176806805Y-74467177D01*
X177041761Y-75116308D01*
X177083528Y-75231449D01*
X177129285Y-75356988D01*
X177171224Y-75471417D01*
X177208289Y-75571881D01*
X177239421Y-75655529D01*
X177263563Y-75719504D01*
X177279657Y-75760955D01*
X177286645Y-75777027D01*
X177288168Y-75775386D01*
X177299426Y-75753030D01*
X177320437Y-75706911D01*
X177350016Y-75639855D01*
X177386978Y-75554684D01*
X177430140Y-75454222D01*
X177478316Y-75341294D01*
X177530323Y-75218724D01*
X177584976Y-75089335D01*
X177641090Y-74955951D01*
X177697482Y-74821397D01*
X177752966Y-74688496D01*
X177806358Y-74560072D01*
X177856474Y-74438948D01*
X177902130Y-74327950D01*
X177942141Y-74229901D01*
X177975322Y-74147625D01*
X178000489Y-74083946D01*
X178016458Y-74041687D01*
X178022044Y-74023673D01*
X178015693Y-74015344D01*
X177990052Y-73987305D01*
X177946495Y-73941537D01*
X177886906Y-73879965D01*
X177813169Y-73804516D01*
X177727168Y-73717116D01*
X177630788Y-73619692D01*
X177525912Y-73514169D01*
X177414424Y-73402474D01*
X176806805Y-72794993D01*
X176806805Y-74467177D01*
X176423008Y-74467177D01*
X175846455Y-72883449D01*
X175474152Y-71860770D01*
X175861619Y-71860770D01*
X175862618Y-71864444D01*
X175871867Y-71891870D01*
X175890039Y-71943667D01*
X175916184Y-72017194D01*
X175949355Y-72109807D01*
X175988605Y-72218863D01*
X176032985Y-72341722D01*
X176081547Y-72475740D01*
X176133344Y-72618274D01*
X176154013Y-72675067D01*
X176205618Y-72816818D01*
X176254225Y-72950268D01*
X176298798Y-73072575D01*
X176338298Y-73180897D01*
X176371690Y-73272391D01*
X176397936Y-73344214D01*
X176415999Y-73393524D01*
X176424844Y-73417477D01*
X176428828Y-73426360D01*
X176433398Y-73429303D01*
X176437045Y-73419365D01*
X176439878Y-73394100D01*
X176442007Y-73351061D01*
X176443542Y-73287802D01*
X176444593Y-73201876D01*
X176445267Y-73090838D01*
X176445677Y-72952241D01*
X176446734Y-72434495D01*
X176296969Y-72284878D01*
X176806805Y-72284878D01*
X176956449Y-72434495D01*
X177485749Y-72963700D01*
X177520261Y-72998193D01*
X177636750Y-73114444D01*
X177746479Y-73223681D01*
X177847646Y-73324126D01*
X177938447Y-73414000D01*
X178017079Y-73491523D01*
X178081737Y-73554916D01*
X178130619Y-73602399D01*
X178161920Y-73632194D01*
X178173837Y-73642521D01*
X178175656Y-73641414D01*
X178185793Y-73620533D01*
X178200391Y-73577416D01*
X178217947Y-73517611D01*
X178236956Y-73446663D01*
X178255917Y-73370121D01*
X178273326Y-73293531D01*
X178287680Y-73222439D01*
X178288789Y-73216372D01*
X178298769Y-73151114D01*
X178305888Y-73079147D01*
X178310472Y-72994656D01*
X178312849Y-72891828D01*
X178313344Y-72764849D01*
X178312942Y-72678314D01*
X178311598Y-72585410D01*
X178308834Y-72510776D01*
X178304112Y-72447732D01*
X178296896Y-72389600D01*
X178286647Y-72329702D01*
X178272829Y-72261357D01*
X178236493Y-72105013D01*
X178186726Y-71934328D01*
X178126696Y-71771946D01*
X178052441Y-71606088D01*
X177952725Y-71417601D01*
X177798112Y-71179606D01*
X177621290Y-70961439D01*
X177422999Y-70763897D01*
X177203977Y-70587777D01*
X176964965Y-70433876D01*
X176923971Y-70410706D01*
X176873031Y-70382918D01*
X176835924Y-70363915D01*
X176818686Y-70356875D01*
X176818031Y-70358337D01*
X176816004Y-70381817D01*
X176814100Y-70432010D01*
X176812350Y-70506412D01*
X176810784Y-70602517D01*
X176809434Y-70717818D01*
X176808330Y-70849810D01*
X176807503Y-70995988D01*
X176806984Y-71153845D01*
X176806805Y-71320876D01*
X176806805Y-72284878D01*
X176296969Y-72284878D01*
X176154176Y-72142226D01*
X176145314Y-72133378D01*
X176069838Y-72058432D01*
X176002052Y-71991839D01*
X175944647Y-71936189D01*
X175900314Y-71894069D01*
X175871741Y-71868066D01*
X175861619Y-71860770D01*
X175474152Y-71860770D01*
X175246177Y-71234547D01*
X173929828Y-69919686D01*
X173001021Y-68991928D01*
X173536153Y-68991928D01*
X173552339Y-69011917D01*
X173587205Y-69050365D01*
X173639136Y-69105601D01*
X173706518Y-69175956D01*
X173787739Y-69259759D01*
X173881185Y-69355340D01*
X173985242Y-69461029D01*
X174098297Y-69575157D01*
X174218737Y-69696052D01*
X174288828Y-69766192D01*
X174407017Y-69884341D01*
X174517920Y-69995056D01*
X174619797Y-70096611D01*
X174710912Y-70187279D01*
X174789528Y-70265334D01*
X174853905Y-70329048D01*
X174902307Y-70376696D01*
X174932996Y-70406551D01*
X174944234Y-70416886D01*
X174945831Y-70415256D01*
X174942682Y-70398133D01*
X174939503Y-70389456D01*
X174926924Y-70354969D01*
X174906163Y-70297978D01*
X174878481Y-70221948D01*
X174845140Y-70130346D01*
X174807401Y-70026638D01*
X174766527Y-69914287D01*
X174739950Y-69841574D01*
X174700284Y-69734368D01*
X174664083Y-69638086D01*
X174660464Y-69628649D01*
X175054963Y-69628649D01*
X175059977Y-69647653D01*
X175074190Y-69691717D01*
X175096653Y-69758116D01*
X175126416Y-69844127D01*
X175162532Y-69947027D01*
X175204052Y-70064090D01*
X175250025Y-70192595D01*
X175299505Y-70329817D01*
X175330429Y-70415256D01*
X175550945Y-71024506D01*
X175998840Y-71474564D01*
X176446734Y-71924621D01*
X176446734Y-71059837D01*
X176446631Y-70888637D01*
X176446244Y-70722807D01*
X176445531Y-70583392D01*
X176444451Y-70468489D01*
X176442964Y-70376199D01*
X176441028Y-70304621D01*
X176438602Y-70251855D01*
X176435646Y-70215999D01*
X176432119Y-70195153D01*
X176427980Y-70187417D01*
X176427613Y-70187267D01*
X176408408Y-70179331D01*
X176364454Y-70161130D01*
X176298514Y-70133809D01*
X176213348Y-70098513D01*
X176111716Y-70056385D01*
X175996381Y-70008570D01*
X175870102Y-69956213D01*
X175735642Y-69900457D01*
X175722534Y-69895024D01*
X175589341Y-69840025D01*
X175464977Y-69789053D01*
X175352137Y-69743185D01*
X175253513Y-69703499D01*
X175171800Y-69671072D01*
X175109691Y-69646984D01*
X175069880Y-69632310D01*
X175055061Y-69628130D01*
X175054963Y-69628649D01*
X174660464Y-69628649D01*
X174632680Y-69556192D01*
X174607409Y-69492150D01*
X174589605Y-69449423D01*
X174580601Y-69431475D01*
X174578012Y-69429765D01*
X174553225Y-69417665D01*
X174505664Y-69396205D01*
X174439024Y-69366948D01*
X174357001Y-69331458D01*
X174263289Y-69291298D01*
X174161582Y-69248032D01*
X174055576Y-69203223D01*
X173948965Y-69158434D01*
X173845445Y-69115230D01*
X173748709Y-69075172D01*
X173662454Y-69039826D01*
X173590373Y-69010754D01*
X173536161Y-68989520D01*
X173536153Y-68991928D01*
X173001021Y-68991928D01*
X172613479Y-68604824D01*
X170995339Y-67935545D01*
X169395336Y-67273768D01*
X170340622Y-67273768D01*
X171026962Y-67557555D01*
X171028941Y-67558373D01*
X171168977Y-67616298D01*
X171304311Y-67672318D01*
X171431653Y-67725070D01*
X171547712Y-67773189D01*
X171649199Y-67815310D01*
X171732824Y-67850068D01*
X171795296Y-67876099D01*
X171833326Y-67892037D01*
X171953349Y-67942732D01*
X171615523Y-67604280D01*
X171278133Y-67266266D01*
X171788371Y-67266266D01*
X172306384Y-67784280D01*
X172464836Y-67942732D01*
X172824398Y-68302293D01*
X173604113Y-68625832D01*
X173705121Y-68667744D01*
X173844620Y-68725626D01*
X173974274Y-68779422D01*
X174091531Y-68828071D01*
X174193837Y-68870515D01*
X174278640Y-68905695D01*
X174343387Y-68932552D01*
X174385525Y-68950027D01*
X174402502Y-68957060D01*
X174408402Y-68951824D01*
X174403280Y-68922320D01*
X174385553Y-68869406D01*
X174382210Y-68860405D01*
X174366703Y-68818230D01*
X174342477Y-68752025D01*
X174310641Y-68664825D01*
X174272301Y-68559666D01*
X174228562Y-68439585D01*
X174180533Y-68307617D01*
X174129318Y-68166798D01*
X174076025Y-68020165D01*
X173820122Y-67315812D01*
X174216759Y-67315812D01*
X174217012Y-67318314D01*
X174224352Y-67343180D01*
X174240543Y-67392259D01*
X174264554Y-67462668D01*
X174295352Y-67551527D01*
X174331905Y-67655953D01*
X174373181Y-67773067D01*
X174418147Y-67899985D01*
X174465771Y-68033828D01*
X174515022Y-68171713D01*
X174564867Y-68310759D01*
X174614273Y-68448085D01*
X174662209Y-68580810D01*
X174707642Y-68706052D01*
X174749541Y-68820929D01*
X174786872Y-68922561D01*
X174797732Y-68951824D01*
X174818605Y-69008066D01*
X174843706Y-69074562D01*
X174861143Y-69119169D01*
X174869884Y-69139005D01*
X174874669Y-69142078D01*
X174903571Y-69156019D01*
X174956294Y-69179684D01*
X175030268Y-69211974D01*
X175122928Y-69251790D01*
X175231706Y-69298030D01*
X175354034Y-69349594D01*
X175487346Y-69405384D01*
X175629073Y-69464298D01*
X175701892Y-69494464D01*
X175840979Y-69552054D01*
X175971082Y-69605889D01*
X176089527Y-69654864D01*
X176193637Y-69697873D01*
X176280734Y-69733810D01*
X176348143Y-69761572D01*
X176393187Y-69780051D01*
X176413190Y-69788143D01*
X176427069Y-69792973D01*
X176441866Y-69791161D01*
X176440321Y-69767718D01*
X176436176Y-69741586D01*
X176430171Y-69693130D01*
X176424311Y-69636733D01*
X176421963Y-69614571D01*
X176406326Y-69511623D01*
X176382518Y-69393621D01*
X176352956Y-69270798D01*
X176320054Y-69153386D01*
X176286227Y-69051618D01*
X176262259Y-68989024D01*
X176142541Y-68726306D01*
X175998931Y-68481244D01*
X175832428Y-68254846D01*
X175644029Y-68048123D01*
X175434731Y-67862084D01*
X175205533Y-67697739D01*
X174957432Y-67556095D01*
X174691425Y-67438164D01*
X174633416Y-67417427D01*
X174561456Y-67394450D01*
X174484241Y-67371870D01*
X174407413Y-67351141D01*
X174336610Y-67333717D01*
X174277474Y-67321051D01*
X174235643Y-67314598D01*
X174216759Y-67315812D01*
X173820122Y-67315812D01*
X173802121Y-67266266D01*
X171788371Y-67266266D01*
X171278133Y-67266266D01*
X171277697Y-67265829D01*
X170809159Y-67269798D01*
X170340622Y-67273768D01*
X169395336Y-67273768D01*
X169377198Y-67266266D01*
X166069345Y-67266266D01*
X166048738Y-67273768D01*
X164420444Y-67866545D01*
X162771542Y-68466823D01*
X162468740Y-68769967D01*
X161456680Y-69783172D01*
X160141819Y-71099521D01*
X159868783Y-71759651D01*
X159472540Y-72717661D01*
X158803261Y-74335802D01*
X158803261Y-77643655D01*
X158419600Y-77643655D01*
X158208233Y-77059697D01*
X158166467Y-76944557D01*
X158120710Y-76819018D01*
X158078770Y-76704589D01*
X158041705Y-76604124D01*
X158010573Y-76520477D01*
X157986432Y-76456501D01*
X157970338Y-76415051D01*
X157963350Y-76398979D01*
X157961827Y-76400619D01*
X157950568Y-76422976D01*
X157929557Y-76469094D01*
X157899979Y-76536151D01*
X157863016Y-76621322D01*
X157819854Y-76721783D01*
X157771678Y-76834711D01*
X157719671Y-76957282D01*
X157665018Y-77086671D01*
X157608904Y-77220054D01*
X157552513Y-77354609D01*
X157497028Y-77487510D01*
X157443636Y-77615934D01*
X157393520Y-77737057D01*
X157347864Y-77848055D01*
X157307854Y-77946104D01*
X157274673Y-78028381D01*
X157249506Y-78092060D01*
X157233537Y-78134319D01*
X157227951Y-78152333D01*
X156959547Y-78152333D01*
X156893156Y-78084619D01*
X156821178Y-78008366D01*
X156641837Y-77789479D01*
X156487144Y-77555906D01*
X156357350Y-77309776D01*
X156252708Y-77053217D01*
X156173469Y-76788360D01*
X156119886Y-76517335D01*
X156092208Y-76242270D01*
X156090815Y-75988170D01*
X156270483Y-75988170D01*
X156274688Y-76259590D01*
X156306558Y-76530222D01*
X156365147Y-76796796D01*
X156449510Y-77056040D01*
X156558701Y-77304683D01*
X156691774Y-77539454D01*
X156847784Y-77757081D01*
X156863349Y-77776186D01*
X156899294Y-77818220D01*
X156926763Y-77847415D01*
X156940779Y-77858351D01*
X156941666Y-77857243D01*
X156951767Y-77836438D01*
X156971876Y-77791347D01*
X157000872Y-77724655D01*
X157037629Y-77639048D01*
X157081026Y-77537213D01*
X157129938Y-77421835D01*
X157183242Y-77295600D01*
X157239814Y-77161194D01*
X157298531Y-77021303D01*
X157358270Y-76878612D01*
X157417907Y-76735808D01*
X157476319Y-76595576D01*
X157532382Y-76460602D01*
X157584973Y-76333572D01*
X157632968Y-76217171D01*
X157675244Y-76114087D01*
X157710677Y-76027004D01*
X157738145Y-75958608D01*
X157756523Y-75911585D01*
X157764688Y-75888622D01*
X157764768Y-75887644D01*
X157762531Y-75877961D01*
X158170025Y-75877961D01*
X158172040Y-75887644D01*
X158173105Y-75892759D01*
X158185249Y-75932967D01*
X158205317Y-75993887D01*
X158231944Y-76071481D01*
X158263763Y-76161708D01*
X158299409Y-76260532D01*
X158330341Y-76345072D01*
X158363475Y-76434904D01*
X158392138Y-76511822D01*
X158414892Y-76572004D01*
X158430303Y-76611623D01*
X158436934Y-76626854D01*
X158436945Y-76626864D01*
X158438189Y-76613385D01*
X158439329Y-76572807D01*
X158440341Y-76508014D01*
X158441202Y-76421889D01*
X158441889Y-76317314D01*
X158442378Y-76197173D01*
X158442646Y-76064347D01*
X158442669Y-75921720D01*
X158442148Y-75210330D01*
X158307029Y-75532894D01*
X158284618Y-75586641D01*
X158248248Y-75675010D01*
X158216940Y-75752517D01*
X158192358Y-75814972D01*
X158176165Y-75858183D01*
X158170025Y-75877961D01*
X157762531Y-75877961D01*
X157759610Y-75865315D01*
X157745064Y-75817670D01*
X157721986Y-75747194D01*
X157691236Y-75656371D01*
X157653671Y-75547689D01*
X157610150Y-75423632D01*
X157561529Y-75286686D01*
X157508668Y-75139335D01*
X157452423Y-74984067D01*
X157132981Y-74106359D01*
X157073592Y-74163247D01*
X157038678Y-74198421D01*
X156972629Y-74271099D01*
X156900229Y-74356566D01*
X156827691Y-74447192D01*
X156761225Y-74535349D01*
X156707044Y-74613408D01*
X156611662Y-74772378D01*
X156493071Y-75015854D01*
X156397653Y-75272793D01*
X156327265Y-75537956D01*
X156283768Y-75806106D01*
X156270483Y-75988170D01*
X156090815Y-75988170D01*
X156090690Y-75965294D01*
X156115581Y-75688538D01*
X156167135Y-75414131D01*
X156245602Y-75144201D01*
X156351235Y-74880879D01*
X156484285Y-74626294D01*
X156522009Y-74563800D01*
X156592990Y-74455386D01*
X156669534Y-74351200D01*
X156756163Y-74245567D01*
X156857399Y-74132815D01*
X156977766Y-74007271D01*
X157157144Y-73824628D01*
X157413255Y-73824628D01*
X157689900Y-74584992D01*
X157717360Y-74660387D01*
X157768439Y-74800203D01*
X157816108Y-74930137D01*
X157859396Y-75047568D01*
X157897330Y-75149880D01*
X157928936Y-75234452D01*
X157953244Y-75298668D01*
X157969280Y-75339908D01*
X157976072Y-75355553D01*
X157977489Y-75354695D01*
X157988727Y-75334604D01*
X158009604Y-75290604D01*
X158038857Y-75225571D01*
X158075225Y-75142379D01*
X158117445Y-75043905D01*
X158164256Y-74933021D01*
X158214395Y-74812604D01*
X158443190Y-74259459D01*
X158443190Y-72795018D01*
X157928223Y-73309823D01*
X157413255Y-73824628D01*
X157157144Y-73824628D01*
X157201560Y-73779404D01*
X157103943Y-73504672D01*
X157102531Y-73500695D01*
X157034971Y-73299079D01*
X156982523Y-73115766D01*
X156943902Y-72944070D01*
X156917826Y-72777303D01*
X156903012Y-72608776D01*
X156898178Y-72431801D01*
X156898663Y-72374328D01*
X156901566Y-72332092D01*
X157083482Y-72332092D01*
X157087751Y-72607854D01*
X157120407Y-72885266D01*
X157182162Y-73162427D01*
X157195619Y-73209596D01*
X157217289Y-73280790D01*
X157237478Y-73342062D01*
X157253123Y-73383860D01*
X157280461Y-73447762D01*
X157861924Y-72866089D01*
X158292553Y-72435303D01*
X158802823Y-72435303D01*
X158805869Y-72795018D01*
X158806793Y-72904067D01*
X158810762Y-73372831D01*
X159094585Y-72686264D01*
X159095477Y-72684106D01*
X159153397Y-72544050D01*
X159209411Y-72408701D01*
X159262154Y-72281350D01*
X159310262Y-72165285D01*
X159352372Y-72063795D01*
X159387119Y-71980171D01*
X159413138Y-71917700D01*
X159429067Y-71879674D01*
X159479726Y-71759651D01*
X159141275Y-72097477D01*
X158953991Y-72284415D01*
X158802823Y-72435303D01*
X158292553Y-72435303D01*
X158443386Y-72284415D01*
X158438592Y-70914039D01*
X158803261Y-70914039D01*
X158803275Y-71000398D01*
X158803384Y-71166607D01*
X158803595Y-71322463D01*
X158803896Y-71465507D01*
X158804279Y-71593283D01*
X158804735Y-71703336D01*
X158805253Y-71793209D01*
X158805825Y-71860445D01*
X158806442Y-71902588D01*
X158807093Y-71917182D01*
X158807238Y-71917104D01*
X158819997Y-71905099D01*
X158851719Y-71874074D01*
X158900345Y-71826072D01*
X158963820Y-71763135D01*
X159040084Y-71687307D01*
X159127080Y-71600631D01*
X159222752Y-71505149D01*
X159325040Y-71402905D01*
X159839155Y-70888628D01*
X160121748Y-70206845D01*
X160517778Y-70206845D01*
X160521586Y-70203365D01*
X160543904Y-70181549D01*
X160584671Y-70141197D01*
X160642158Y-70084035D01*
X160714633Y-70011790D01*
X160800368Y-69926188D01*
X160897631Y-69828957D01*
X161004694Y-69721822D01*
X161119827Y-69606510D01*
X161241299Y-69484747D01*
X161314673Y-69411088D01*
X161431462Y-69293504D01*
X161540255Y-69183550D01*
X161639396Y-69082922D01*
X161727231Y-68993315D01*
X161802104Y-68916426D01*
X161862361Y-68853951D01*
X161906345Y-68807586D01*
X161932403Y-68779026D01*
X161938878Y-68769967D01*
X161894726Y-68784921D01*
X161829453Y-68807945D01*
X161748811Y-68836978D01*
X161656763Y-68870541D01*
X161557268Y-68907154D01*
X161454286Y-68945340D01*
X161351779Y-68983618D01*
X161253706Y-69020510D01*
X161164027Y-69054535D01*
X161086704Y-69084216D01*
X161025696Y-69108073D01*
X160984964Y-69124627D01*
X160968469Y-69132399D01*
X160961960Y-69144304D01*
X160944939Y-69180997D01*
X160919295Y-69238729D01*
X160893369Y-69298251D01*
X160886569Y-69313863D01*
X160848303Y-69402762D01*
X160806036Y-69501789D01*
X160761309Y-69607308D01*
X160715664Y-69715682D01*
X160670640Y-69823274D01*
X160627779Y-69926447D01*
X160588621Y-70021565D01*
X160554707Y-70104991D01*
X160527578Y-70173088D01*
X160519823Y-70194968D01*
X160517778Y-70206845D01*
X160121748Y-70206845D01*
X160168289Y-70094561D01*
X160216383Y-69978424D01*
X160273809Y-69839460D01*
X160326764Y-69710990D01*
X160374243Y-69595473D01*
X160415239Y-69495367D01*
X160448745Y-69413134D01*
X160473755Y-69351230D01*
X160489261Y-69312116D01*
X160494258Y-69298251D01*
X160480334Y-69302721D01*
X160440640Y-69316607D01*
X160377631Y-69339032D01*
X160293757Y-69369112D01*
X160191468Y-69405966D01*
X160073216Y-69448709D01*
X159941449Y-69496460D01*
X159798620Y-69548335D01*
X159647177Y-69603451D01*
X158803261Y-69910896D01*
X158803261Y-70914039D01*
X158438592Y-70914039D01*
X158435688Y-70084049D01*
X158300662Y-70172723D01*
X158205019Y-70238453D01*
X157985838Y-70413740D01*
X157788637Y-70607801D01*
X157614129Y-70818734D01*
X157463025Y-71044636D01*
X157336038Y-71283605D01*
X157233877Y-71533737D01*
X157157257Y-71793131D01*
X157106888Y-72059884D01*
X157083482Y-72332092D01*
X156901566Y-72332092D01*
X156918560Y-72084800D01*
X156966806Y-71802029D01*
X157042320Y-71527756D01*
X157144022Y-71263726D01*
X157270832Y-71011681D01*
X157421671Y-70773366D01*
X157595457Y-70550522D01*
X157791112Y-70344894D01*
X158007554Y-70158225D01*
X158243705Y-69992257D01*
X158498484Y-69848735D01*
X158621291Y-69787400D01*
X158630169Y-69715817D01*
X158651361Y-69560118D01*
X158664946Y-69480216D01*
X158848270Y-69480216D01*
X158850249Y-69489698D01*
X158867023Y-69500767D01*
X158871238Y-69499655D01*
X158899590Y-69490203D01*
X158951800Y-69471978D01*
X159024973Y-69446033D01*
X159116216Y-69413418D01*
X159222635Y-69375188D01*
X159341336Y-69332394D01*
X159469426Y-69286088D01*
X159604010Y-69237323D01*
X159742194Y-69187150D01*
X159881086Y-69136623D01*
X160017791Y-69086793D01*
X160149416Y-69038713D01*
X160273066Y-68993435D01*
X160385849Y-68952010D01*
X160484869Y-68915493D01*
X160567234Y-68884934D01*
X160630050Y-68861386D01*
X160670422Y-68845901D01*
X160685457Y-68839532D01*
X160686583Y-68837380D01*
X160696962Y-68813779D01*
X160716999Y-68766655D01*
X160745448Y-68699020D01*
X160763645Y-68655522D01*
X161158724Y-68655522D01*
X161160942Y-68658456D01*
X161169300Y-68658658D01*
X161186003Y-68655244D01*
X161213251Y-68647461D01*
X161253244Y-68634558D01*
X161308183Y-68615782D01*
X161380269Y-68590380D01*
X161471702Y-68557599D01*
X161584683Y-68516687D01*
X161721414Y-68466892D01*
X161884093Y-68407460D01*
X162571954Y-68155926D01*
X162877188Y-67850693D01*
X163401713Y-67850693D01*
X163410155Y-67848228D01*
X163444495Y-67836564D01*
X163502663Y-67816156D01*
X163582077Y-67787928D01*
X163680154Y-67752805D01*
X163794312Y-67711715D01*
X163921970Y-67665581D01*
X164060546Y-67615330D01*
X164207457Y-67561886D01*
X164998245Y-67273768D01*
X163972275Y-67265864D01*
X163971873Y-67266266D01*
X163679517Y-67558623D01*
X163669949Y-67568198D01*
X163595224Y-67643531D01*
X163529116Y-67711129D01*
X163474169Y-67768317D01*
X163432924Y-67812423D01*
X163407924Y-67840773D01*
X163401713Y-67850693D01*
X162877188Y-67850693D01*
X163016785Y-67711096D01*
X163461615Y-67266266D01*
X162596831Y-67266266D01*
X162425632Y-67266369D01*
X162259802Y-67266756D01*
X162120386Y-67267469D01*
X162005484Y-67268549D01*
X161913194Y-67270036D01*
X161841616Y-67271972D01*
X161835852Y-67272237D01*
X161788849Y-67274398D01*
X161752994Y-67277354D01*
X161732148Y-67280881D01*
X161724411Y-67285020D01*
X161724272Y-67285362D01*
X161716382Y-67304455D01*
X161698223Y-67348307D01*
X161670941Y-67414155D01*
X161635680Y-67499236D01*
X161593585Y-67600787D01*
X161545802Y-67716046D01*
X161493475Y-67842251D01*
X161437750Y-67976638D01*
X161432687Y-67988848D01*
X161377518Y-68122029D01*
X161326113Y-68246355D01*
X161279579Y-68359132D01*
X161239023Y-68457668D01*
X161205553Y-68539268D01*
X161180275Y-68601239D01*
X161164297Y-68640888D01*
X161158724Y-68655522D01*
X160763645Y-68655522D01*
X160781062Y-68613889D01*
X160822595Y-68514273D01*
X160868799Y-68403187D01*
X160918428Y-68283644D01*
X160970236Y-68158656D01*
X161022976Y-68031237D01*
X161075402Y-67904400D01*
X161126266Y-67781159D01*
X161174322Y-67664525D01*
X161218324Y-67557513D01*
X161257024Y-67463136D01*
X161289177Y-67384407D01*
X161313536Y-67324338D01*
X161328853Y-67285944D01*
X161333884Y-67272237D01*
X161329955Y-67271341D01*
X161301688Y-67272375D01*
X161252347Y-67277645D01*
X161188050Y-67286245D01*
X161114915Y-67297271D01*
X161039062Y-67309819D01*
X160966609Y-67322982D01*
X160903674Y-67335857D01*
X160742056Y-67377368D01*
X160484505Y-67467763D01*
X160236677Y-67584711D01*
X160001175Y-67726392D01*
X159780602Y-67890984D01*
X159577560Y-68076666D01*
X159394653Y-68281615D01*
X159234484Y-68504010D01*
X159218435Y-68529569D01*
X159156268Y-68637117D01*
X159092398Y-68759142D01*
X159032461Y-68884524D01*
X158982092Y-69002139D01*
X158970471Y-69033247D01*
X158949166Y-69096632D01*
X158926056Y-69171204D01*
X158902993Y-69250344D01*
X158881831Y-69327434D01*
X158864421Y-69395855D01*
X158852616Y-69448989D01*
X158848270Y-69480216D01*
X158664946Y-69480216D01*
X158677465Y-69406588D01*
X158707725Y-69267830D01*
X158743921Y-69135791D01*
X158787833Y-69002420D01*
X158890548Y-68751446D01*
X159024519Y-68498447D01*
X159182564Y-68260591D01*
X159362894Y-68039674D01*
X159563716Y-67837488D01*
X159783240Y-67655827D01*
X160019673Y-67496486D01*
X160271224Y-67361257D01*
X160536102Y-67251934D01*
X160620122Y-67223889D01*
X160830267Y-67166281D01*
X161046841Y-67122972D01*
X161260107Y-67095707D01*
X161460332Y-67086231D01*
X161610374Y-67086231D01*
X161627178Y-67038027D01*
X161644377Y-66994614D01*
X161677163Y-66922761D01*
X161691212Y-66894314D01*
X161893869Y-66894314D01*
X161895332Y-66894969D01*
X161918811Y-66896996D01*
X161969005Y-66898900D01*
X162043406Y-66900650D01*
X162139511Y-66902216D01*
X162254812Y-66903566D01*
X162386805Y-66904670D01*
X162532982Y-66905497D01*
X162690840Y-66906016D01*
X162857871Y-66906195D01*
X163821872Y-66906195D01*
X164331988Y-66906195D01*
X165172084Y-66905497D01*
X166012180Y-66904798D01*
X166025481Y-66899950D01*
X167086136Y-66899950D01*
X167099615Y-66901194D01*
X167140193Y-66902334D01*
X167204986Y-66903347D01*
X167291111Y-66904208D01*
X167395686Y-66904895D01*
X167515827Y-66905384D01*
X167648653Y-66905651D01*
X167791280Y-66905674D01*
X168502670Y-66905153D01*
X168180106Y-66770034D01*
X168126359Y-66747624D01*
X168037990Y-66711254D01*
X167960483Y-66679945D01*
X167898028Y-66655363D01*
X167854817Y-66639170D01*
X167835039Y-66633031D01*
X167833827Y-66633099D01*
X167811270Y-66639135D01*
X167766005Y-66653634D01*
X167702675Y-66674941D01*
X167625926Y-66701401D01*
X167540402Y-66731357D01*
X167450746Y-66763156D01*
X167361604Y-66795142D01*
X167277620Y-66825660D01*
X167203437Y-66853053D01*
X167143701Y-66875668D01*
X167103056Y-66891848D01*
X167086146Y-66899939D01*
X167086136Y-66899950D01*
X166025481Y-66899950D01*
X166660506Y-66668501D01*
X166775834Y-66626386D01*
X166900942Y-66580505D01*
X167014829Y-66538532D01*
X167114665Y-66501520D01*
X167197618Y-66470524D01*
X167260856Y-66446598D01*
X167284830Y-66437288D01*
X168366268Y-66437288D01*
X168380473Y-66448429D01*
X168412106Y-66465796D01*
X168462913Y-66490196D01*
X168534636Y-66522432D01*
X168629020Y-66563313D01*
X168747809Y-66613642D01*
X168892747Y-66674227D01*
X169447808Y-66905153D01*
X169447856Y-66905173D01*
X170917982Y-66906195D01*
X170403026Y-66391077D01*
X169888070Y-65875958D01*
X169142860Y-66147946D01*
X169083295Y-66169688D01*
X168943061Y-66220895D01*
X168811862Y-66268828D01*
X168692435Y-66312486D01*
X168587516Y-66350867D01*
X168499841Y-66382972D01*
X168432146Y-66407797D01*
X168387638Y-66424170D01*
X168387168Y-66424343D01*
X168367643Y-66431607D01*
X168366268Y-66437288D01*
X167284830Y-66437288D01*
X167301550Y-66430795D01*
X167316867Y-66424170D01*
X167314922Y-66422641D01*
X167291816Y-66411430D01*
X167244987Y-66390492D01*
X167177263Y-66361010D01*
X167091476Y-66324163D01*
X166990452Y-66281134D01*
X166877022Y-66233103D01*
X166754015Y-66181251D01*
X166624259Y-66126760D01*
X166490584Y-66070810D01*
X166355818Y-66014583D01*
X166222792Y-65959260D01*
X166094333Y-65906023D01*
X165973271Y-65856051D01*
X165862436Y-65810527D01*
X165764655Y-65770631D01*
X165682759Y-65737545D01*
X165619576Y-65712450D01*
X165577936Y-65696526D01*
X165560667Y-65690956D01*
X165552339Y-65697307D01*
X165524300Y-65722948D01*
X165478531Y-65766505D01*
X165416959Y-65826094D01*
X165341510Y-65899831D01*
X165254111Y-65985832D01*
X165156686Y-66082212D01*
X165051164Y-66187088D01*
X164939469Y-66298576D01*
X164331988Y-66906195D01*
X163821872Y-66906195D01*
X164503789Y-66224155D01*
X164541686Y-66186231D01*
X164657788Y-66069775D01*
X164766655Y-65960178D01*
X164866534Y-65859228D01*
X164955671Y-65768716D01*
X165032313Y-65690430D01*
X165094706Y-65626159D01*
X165141098Y-65577693D01*
X165169733Y-65546821D01*
X165178860Y-65535332D01*
X165176837Y-65533865D01*
X165151580Y-65523724D01*
X165104565Y-65509087D01*
X165041971Y-65491576D01*
X164969981Y-65472813D01*
X164894774Y-65454421D01*
X164822531Y-65438023D01*
X164759433Y-65425240D01*
X164754929Y-65424416D01*
X164689461Y-65414367D01*
X164617215Y-65407191D01*
X164532395Y-65402563D01*
X164429203Y-65400160D01*
X164301843Y-65399656D01*
X164215308Y-65400058D01*
X164122405Y-65401402D01*
X164047771Y-65404166D01*
X163984727Y-65408888D01*
X163926595Y-65416104D01*
X163866696Y-65426353D01*
X163798352Y-65440171D01*
X163642007Y-65476507D01*
X163471322Y-65526274D01*
X163308940Y-65586304D01*
X163143083Y-65660559D01*
X162954595Y-65760275D01*
X162716600Y-65914888D01*
X162498433Y-66091710D01*
X162300891Y-66290001D01*
X162124771Y-66509023D01*
X161970871Y-66748035D01*
X161947700Y-66789029D01*
X161919912Y-66839969D01*
X161900909Y-66877076D01*
X161893869Y-66894314D01*
X161691212Y-66894314D01*
X161719060Y-66837924D01*
X161766404Y-66747098D01*
X161815533Y-66657275D01*
X161862782Y-66575451D01*
X161904488Y-66508617D01*
X162028018Y-66335527D01*
X162217763Y-66112513D01*
X162426897Y-65911345D01*
X162653926Y-65733161D01*
X162897357Y-65579098D01*
X163155697Y-65450295D01*
X163427455Y-65347889D01*
X163541516Y-65313431D01*
X163705610Y-65272396D01*
X163867571Y-65243574D01*
X164037832Y-65225239D01*
X164226828Y-65215665D01*
X164399334Y-65214675D01*
X164652559Y-65229754D01*
X164892921Y-65265958D01*
X165126497Y-65324309D01*
X165359364Y-65405825D01*
X165514635Y-65467685D01*
X165572844Y-65410613D01*
X165854649Y-65410613D01*
X165863531Y-65414883D01*
X165897962Y-65429888D01*
X165956191Y-65454706D01*
X166035989Y-65488403D01*
X166135127Y-65530044D01*
X166147762Y-65535332D01*
X166251374Y-65578695D01*
X166382500Y-65633422D01*
X166526277Y-65693291D01*
X166680473Y-65757366D01*
X166842860Y-65824713D01*
X166965735Y-65875539D01*
X167122942Y-65940305D01*
X167270670Y-66000875D01*
X167406641Y-66056328D01*
X167528578Y-66105747D01*
X167634204Y-66148213D01*
X167721242Y-66182808D01*
X167787415Y-66208614D01*
X167830446Y-66224711D01*
X167848058Y-66230181D01*
X167848556Y-66230127D01*
X167869018Y-66224075D01*
X167914931Y-66208638D01*
X167983802Y-66184706D01*
X168073135Y-66153168D01*
X168180437Y-66114912D01*
X168303213Y-66070827D01*
X168438969Y-66021803D01*
X168585211Y-65968728D01*
X168739445Y-65912491D01*
X169210997Y-65740162D01*
X170262356Y-65740162D01*
X170845229Y-66323179D01*
X171428102Y-66906195D01*
X173627234Y-66906195D01*
X173609385Y-66872439D01*
X173594810Y-66846028D01*
X173533583Y-66749241D01*
X173455730Y-66641688D01*
X173366371Y-66529605D01*
X173270627Y-66419223D01*
X173173617Y-66316778D01*
X173080461Y-66228501D01*
X172987738Y-66150109D01*
X172759675Y-65984296D01*
X172518610Y-65844259D01*
X172266632Y-65730405D01*
X172005830Y-65643140D01*
X171738294Y-65582874D01*
X171466113Y-65550011D01*
X171191374Y-65544960D01*
X170916168Y-65568128D01*
X170642583Y-65619921D01*
X170372708Y-65700748D01*
X170262356Y-65740162D01*
X169210997Y-65740162D01*
X169606344Y-65595682D01*
X169549604Y-65536445D01*
X169514186Y-65501301D01*
X169441544Y-65435317D01*
X169356144Y-65362994D01*
X169265605Y-65290540D01*
X169177547Y-65224157D01*
X169099592Y-65170050D01*
X169054579Y-65141837D01*
X168945880Y-65079996D01*
X168823823Y-65017117D01*
X168697890Y-64957766D01*
X168577562Y-64906509D01*
X168472320Y-64867915D01*
X168260108Y-64808104D01*
X167982960Y-64756620D01*
X167704562Y-64734002D01*
X167426999Y-64739968D01*
X167152357Y-64774232D01*
X166882721Y-64836508D01*
X166620176Y-64926513D01*
X166366808Y-65043962D01*
X166124702Y-65188569D01*
X166059685Y-65233386D01*
X165990527Y-65283938D01*
X165931794Y-65329937D01*
X165887137Y-65368384D01*
X165860205Y-65396276D01*
X165854649Y-65410613D01*
X165572844Y-65410613D01*
X165628381Y-65356161D01*
X165704634Y-65284184D01*
X165923521Y-65104843D01*
X166157094Y-64950149D01*
X166403224Y-64820356D01*
X166659783Y-64715714D01*
X166924640Y-64636475D01*
X167195665Y-64582891D01*
X167470730Y-64555214D01*
X167747706Y-64553695D01*
X168024462Y-64578587D01*
X168298869Y-64630140D01*
X168568799Y-64708607D01*
X168832121Y-64814240D01*
X169086706Y-64947290D01*
X169149200Y-64985015D01*
X169257614Y-65055996D01*
X169361800Y-65132540D01*
X169467433Y-65219169D01*
X169580185Y-65320405D01*
X169705729Y-65440771D01*
X169863459Y-65595682D01*
X169933596Y-65664565D01*
X170208328Y-65566948D01*
X170212305Y-65565536D01*
X170413921Y-65497977D01*
X170597234Y-65445528D01*
X170768930Y-65406907D01*
X170935697Y-65380831D01*
X171104224Y-65366018D01*
X171281199Y-65361184D01*
X171338672Y-65361669D01*
X171628200Y-65381566D01*
X171910971Y-65429812D01*
X172185244Y-65505326D01*
X172449274Y-65607028D01*
X172701319Y-65733838D01*
X172939634Y-65884676D01*
X173162478Y-66058463D01*
X173368106Y-66254117D01*
X173554775Y-66470560D01*
X173720743Y-66706711D01*
X173833117Y-66906195D01*
X173864265Y-66961489D01*
X173925600Y-67084297D01*
G37*
G36*
X170985699Y-75570206D02*
G01*
X170974007Y-75612520D01*
X170930235Y-75694908D01*
X170863865Y-75759494D01*
X170777225Y-75804364D01*
X170672642Y-75827605D01*
X170625065Y-75830527D01*
X170518485Y-75820260D01*
X170426236Y-75786490D01*
X170351102Y-75730504D01*
X170295864Y-75653586D01*
X170290283Y-75641119D01*
X170273835Y-75596208D01*
X170253009Y-75531966D01*
X170229907Y-75455028D01*
X170206633Y-75372032D01*
X170188359Y-75305577D01*
X170138114Y-75134673D01*
X170089262Y-74985711D01*
X170042410Y-74860237D01*
X169998164Y-74759798D01*
X169957130Y-74685943D01*
X169919915Y-74640218D01*
X169886094Y-74610212D01*
X169894702Y-74775244D01*
X169895802Y-74793707D01*
X169898278Y-74823595D01*
X169902048Y-74856250D01*
X169907547Y-74893552D01*
X169915206Y-74937380D01*
X169925458Y-74989616D01*
X169938737Y-75052140D01*
X169955473Y-75126832D01*
X169976101Y-75215573D01*
X170001052Y-75320242D01*
X170030760Y-75442720D01*
X170065657Y-75584888D01*
X170106176Y-75748626D01*
X170152749Y-75935814D01*
X170205809Y-76148332D01*
X170265789Y-76388062D01*
X170270888Y-76408433D01*
X170330434Y-76646499D01*
X170383044Y-76857360D01*
X170429122Y-77042758D01*
X170469070Y-77204433D01*
X170503292Y-77344126D01*
X170532191Y-77463581D01*
X170556169Y-77564536D01*
X170575630Y-77648735D01*
X170590977Y-77717918D01*
X170602612Y-77773826D01*
X170610939Y-77818202D01*
X170616361Y-77852786D01*
X170619281Y-77879320D01*
X170620101Y-77899545D01*
X170619225Y-77915202D01*
X170610528Y-77965761D01*
X170572683Y-78070870D01*
X170512240Y-78163689D01*
X170433079Y-78239002D01*
X170339083Y-78291596D01*
X170270044Y-78310677D01*
X170174378Y-78320988D01*
X170073060Y-78318740D01*
X169977210Y-78304277D01*
X169897945Y-78277943D01*
X169829204Y-78236066D01*
X169750707Y-78168535D01*
X169682105Y-78089499D01*
X169632670Y-78008381D01*
X169627570Y-77995148D01*
X169613448Y-77950378D01*
X169593179Y-77879922D01*
X169567345Y-77785990D01*
X169536529Y-77670793D01*
X169501313Y-77536539D01*
X169462280Y-77385438D01*
X169420012Y-77219701D01*
X169375093Y-77041536D01*
X169328103Y-76853153D01*
X169292308Y-76709489D01*
X169248224Y-76534159D01*
X169205507Y-76365956D01*
X169164876Y-76207634D01*
X169127052Y-76061944D01*
X169092754Y-75931639D01*
X169062704Y-75819471D01*
X169037622Y-75728192D01*
X169018227Y-75660556D01*
X169005239Y-75619315D01*
X168971997Y-75534191D01*
X168885975Y-75362078D01*
X168776858Y-75191373D01*
X168648619Y-75027971D01*
X168505233Y-74877767D01*
X168480871Y-74855217D01*
X168346832Y-74749340D01*
X168211280Y-74672991D01*
X168073539Y-74625777D01*
X168024877Y-74615208D01*
X167940718Y-74603924D01*
X167877590Y-74608454D01*
X167831708Y-74630128D01*
X167799289Y-74670279D01*
X167776548Y-74730236D01*
X167770631Y-74758399D01*
X167763217Y-74830618D01*
X167760833Y-74920327D01*
X167763376Y-75019606D01*
X167770743Y-75120535D01*
X167782832Y-75215195D01*
X167785831Y-75231330D01*
X167796697Y-75282148D01*
X167813992Y-75358274D01*
X167837124Y-75457256D01*
X167865502Y-75576641D01*
X167898536Y-75713976D01*
X167935633Y-75866810D01*
X167976203Y-76032689D01*
X168019655Y-76209161D01*
X168065396Y-76393774D01*
X168112837Y-76584074D01*
X168142299Y-76702158D01*
X168187826Y-76885705D01*
X168230846Y-77060433D01*
X168270820Y-77224090D01*
X168307211Y-77374424D01*
X168339479Y-77509182D01*
X168367087Y-77626111D01*
X168389496Y-77722959D01*
X168406169Y-77797474D01*
X168416568Y-77847402D01*
X168420154Y-77870491D01*
X168416825Y-77920120D01*
X168389722Y-78023394D01*
X168338613Y-78120396D01*
X168267431Y-78204593D01*
X168180106Y-78269450D01*
X168164519Y-78278137D01*
X168129334Y-78295818D01*
X168096679Y-78306907D01*
X168058419Y-78312929D01*
X168006423Y-78315410D01*
X167932558Y-78315874D01*
X167833873Y-78312716D01*
X167755485Y-78301303D01*
X167689533Y-78278687D01*
X167627445Y-78241924D01*
X167560646Y-78188065D01*
X167557313Y-78185125D01*
X167534009Y-78163856D01*
X167512961Y-78142278D01*
X167493493Y-78118331D01*
X167474931Y-78089958D01*
X167456599Y-78055099D01*
X167437825Y-78011696D01*
X167417932Y-77957690D01*
X167396248Y-77891021D01*
X167372096Y-77809632D01*
X167344803Y-77711464D01*
X167313694Y-77594457D01*
X167278094Y-77456553D01*
X167237330Y-77295694D01*
X167190726Y-77109819D01*
X167137607Y-76896872D01*
X167099875Y-76745637D01*
X167046015Y-76530821D01*
X166998181Y-76341824D01*
X166955758Y-76176598D01*
X166918129Y-76033095D01*
X166884679Y-75909269D01*
X166854792Y-75803072D01*
X166827853Y-75712456D01*
X166803244Y-75635375D01*
X166780352Y-75569781D01*
X166758559Y-75513626D01*
X166737250Y-75464864D01*
X166715809Y-75421447D01*
X166693621Y-75381328D01*
X166670070Y-75342459D01*
X166616852Y-75260269D01*
X166485040Y-75078717D01*
X166352121Y-74926903D01*
X166217876Y-74804643D01*
X166082089Y-74711755D01*
X165944542Y-74648055D01*
X165805018Y-74613360D01*
X165767850Y-74608597D01*
X165700604Y-74605683D01*
X165652610Y-74615432D01*
X165617541Y-74639820D01*
X165589068Y-74680825D01*
X165585206Y-74688839D01*
X165571022Y-74742031D01*
X165562728Y-74817588D01*
X165560183Y-74909739D01*
X165563249Y-75012711D01*
X165571786Y-75120733D01*
X165585654Y-75228032D01*
X165604714Y-75328836D01*
X165627886Y-75427334D01*
X165683449Y-75641601D01*
X165751142Y-75878890D01*
X165830189Y-76136624D01*
X165919811Y-76412228D01*
X166019232Y-76703124D01*
X166049372Y-76790551D01*
X166095049Y-76930145D01*
X166130088Y-77049246D01*
X166155532Y-77152298D01*
X166172420Y-77243747D01*
X166181794Y-77328037D01*
X166184694Y-77409614D01*
X166180513Y-77513645D01*
X166154264Y-77674496D01*
X166103092Y-77820437D01*
X166026042Y-77953891D01*
X165922162Y-78077281D01*
X165911148Y-78088279D01*
X165797768Y-78183015D01*
X165673979Y-78252437D01*
X165532684Y-78300614D01*
X165454335Y-78314272D01*
X165355484Y-78321458D01*
X165249672Y-78321589D01*
X165148187Y-78314661D01*
X165062317Y-78300675D01*
X165004345Y-78284385D01*
X164870941Y-78228922D01*
X164736738Y-78150036D01*
X164607396Y-78051321D01*
X164488576Y-77936370D01*
X164429404Y-77865946D01*
X164339809Y-77738352D01*
X164252589Y-77590483D01*
X164170599Y-77428139D01*
X164096693Y-77257121D01*
X164033728Y-77083230D01*
X163984556Y-76912266D01*
X163975357Y-76874713D01*
X163961754Y-76815317D01*
X163954859Y-76773210D01*
X163954413Y-76751901D01*
X164196285Y-76751901D01*
X164200837Y-76783666D01*
X164211875Y-76832987D01*
X164229704Y-76905664D01*
X164258461Y-77003913D01*
X164304549Y-77130402D01*
X164361423Y-77265217D01*
X164425312Y-77399995D01*
X164492443Y-77526373D01*
X164559046Y-77635987D01*
X164637913Y-77738912D01*
X164743827Y-77846413D01*
X164861161Y-77940101D01*
X164981176Y-78012188D01*
X165109740Y-78075894D01*
X165290907Y-78075555D01*
X165329068Y-78075169D01*
X165434953Y-78069007D01*
X165520964Y-78053443D01*
X165594337Y-78026023D01*
X165662307Y-77984289D01*
X165732111Y-77925785D01*
X165745842Y-77912751D01*
X165833928Y-77808064D01*
X165895961Y-77690232D01*
X165932585Y-77557687D01*
X165944445Y-77408861D01*
X165944093Y-77378945D01*
X165942207Y-77338471D01*
X165937956Y-77297205D01*
X165930522Y-77252082D01*
X165919084Y-77200036D01*
X165902825Y-77138002D01*
X165880924Y-77062914D01*
X165852563Y-76971706D01*
X165816924Y-76861312D01*
X165773186Y-76728668D01*
X165720531Y-76570706D01*
X165662983Y-76397080D01*
X165588614Y-76166866D01*
X165524629Y-75960598D01*
X165470450Y-75776010D01*
X165425497Y-75610835D01*
X165389194Y-75462808D01*
X165360960Y-75329662D01*
X165340219Y-75209131D01*
X165326392Y-75098949D01*
X165318901Y-74996851D01*
X165317383Y-74877544D01*
X165329562Y-74732314D01*
X165358685Y-74611648D01*
X165405065Y-74515223D01*
X165469013Y-74442713D01*
X165550842Y-74393795D01*
X165650862Y-74368142D01*
X165769387Y-74365432D01*
X165906729Y-74385339D01*
X165986888Y-74406251D01*
X166142594Y-74469483D01*
X166296092Y-74561672D01*
X166446579Y-74682137D01*
X166593253Y-74830193D01*
X166735312Y-75005159D01*
X166871951Y-75206352D01*
X166888371Y-75232921D01*
X166913124Y-75274617D01*
X166936114Y-75316408D01*
X166957978Y-75360368D01*
X166979350Y-75408573D01*
X167000866Y-75463097D01*
X167023161Y-75526016D01*
X167046871Y-75599405D01*
X167072630Y-75685339D01*
X167101076Y-75785893D01*
X167132841Y-75903142D01*
X167168563Y-76039162D01*
X167208877Y-76196027D01*
X167254417Y-76375812D01*
X167305820Y-76580593D01*
X167363720Y-76812445D01*
X167398536Y-76951632D01*
X167440696Y-77119001D01*
X167480764Y-77276786D01*
X167518103Y-77422542D01*
X167552076Y-77553827D01*
X167582045Y-77668198D01*
X167607374Y-77763210D01*
X167627427Y-77836420D01*
X167641567Y-77885385D01*
X167649155Y-77907660D01*
X167687372Y-77968818D01*
X167754354Y-78032502D01*
X167837121Y-78070668D01*
X167935711Y-78083340D01*
X167946462Y-78083188D01*
X168033440Y-78069135D01*
X168101632Y-78033202D01*
X168149238Y-77976765D01*
X168174458Y-77901196D01*
X168174651Y-77899329D01*
X168172728Y-77875699D01*
X168165149Y-77831373D01*
X168151699Y-77765423D01*
X168132159Y-77676926D01*
X168106315Y-77564956D01*
X168073950Y-77428586D01*
X168034847Y-77266892D01*
X167988790Y-77078948D01*
X167935562Y-76863828D01*
X167874946Y-76620608D01*
X167849335Y-76517960D01*
X167802601Y-76329720D01*
X167757828Y-76148197D01*
X167715614Y-75975877D01*
X167676556Y-75815246D01*
X167641253Y-75668790D01*
X167610303Y-75538997D01*
X167584304Y-75428351D01*
X167563853Y-75339341D01*
X167549549Y-75274451D01*
X167541989Y-75236169D01*
X167534760Y-75184914D01*
X167525794Y-75081870D01*
X167522099Y-74972411D01*
X167523505Y-74863755D01*
X167529842Y-74763122D01*
X167540940Y-74677728D01*
X167556629Y-74614795D01*
X167582125Y-74558896D01*
X167636788Y-74481800D01*
X167704418Y-74421837D01*
X167778783Y-74385442D01*
X167823471Y-74374567D01*
X167944327Y-74364634D01*
X168075527Y-74378274D01*
X168212637Y-74414456D01*
X168351223Y-74472148D01*
X168486852Y-74550316D01*
X168519266Y-74572818D01*
X168632760Y-74665331D01*
X168749061Y-74779174D01*
X168863424Y-74908709D01*
X168971104Y-75048299D01*
X169067356Y-75192306D01*
X169147436Y-75335095D01*
X169148788Y-75337795D01*
X169166959Y-75375469D01*
X169184580Y-75415251D01*
X169202243Y-75459221D01*
X169220540Y-75509458D01*
X169240064Y-75568041D01*
X169261408Y-75637051D01*
X169285163Y-75718566D01*
X169311922Y-75814666D01*
X169342278Y-75927431D01*
X169376823Y-76058940D01*
X169416149Y-76211272D01*
X169460848Y-76386507D01*
X169511514Y-76586725D01*
X169568738Y-76814005D01*
X169619965Y-77017860D01*
X169666454Y-77202498D01*
X169706885Y-77361963D01*
X169741935Y-77498244D01*
X169772281Y-77613330D01*
X169798601Y-77709211D01*
X169821572Y-77787876D01*
X169841872Y-77851315D01*
X169860178Y-77901516D01*
X169877168Y-77940470D01*
X169893518Y-77970165D01*
X169909906Y-77992592D01*
X169927010Y-78009738D01*
X169945507Y-78023594D01*
X169966074Y-78036149D01*
X169989389Y-78049392D01*
X170005869Y-78058095D01*
X170064456Y-78077253D01*
X170137992Y-78083093D01*
X170190064Y-78080262D01*
X170262061Y-78060597D01*
X170316792Y-78019807D01*
X170359099Y-77955089D01*
X170392420Y-77886504D01*
X170036340Y-76458399D01*
X170015372Y-76374226D01*
X169965293Y-76172553D01*
X169917252Y-75978197D01*
X169871775Y-75793339D01*
X169829390Y-75620157D01*
X169790623Y-75460828D01*
X169756003Y-75317531D01*
X169726055Y-75192445D01*
X169701307Y-75087748D01*
X169682286Y-75005618D01*
X169669519Y-74948233D01*
X169663534Y-74917772D01*
X169662422Y-74910087D01*
X169652766Y-74807170D01*
X169651783Y-74704488D01*
X169658951Y-74609299D01*
X169673749Y-74528865D01*
X169695655Y-74470445D01*
X169701113Y-74461206D01*
X169751444Y-74404645D01*
X169814278Y-74372556D01*
X169885538Y-74364789D01*
X169961146Y-74381191D01*
X170037025Y-74421609D01*
X170109096Y-74485891D01*
X170122231Y-74501367D01*
X170173175Y-74577682D01*
X170226325Y-74681591D01*
X170280974Y-74811319D01*
X170336419Y-74965090D01*
X170391955Y-75141125D01*
X170446878Y-75337650D01*
X170448453Y-75343604D01*
X170474613Y-75435923D01*
X170498502Y-75502768D01*
X170522831Y-75548015D01*
X170550313Y-75575537D01*
X170583661Y-75589209D01*
X170625588Y-75592905D01*
X170628010Y-75592896D01*
X170682022Y-75584455D01*
X170722839Y-75557030D01*
X170731190Y-75548581D01*
X170746247Y-75529731D01*
X170751516Y-75509058D01*
X170747945Y-75477440D01*
X170736483Y-75425754D01*
X170721445Y-75364331D01*
X170691144Y-75252097D01*
X170655897Y-75132216D01*
X170617717Y-75010820D01*
X170578619Y-74894039D01*
X170540617Y-74788007D01*
X170505725Y-74698856D01*
X170475959Y-74632716D01*
X170448352Y-74580842D01*
X170358980Y-74445379D01*
X170258550Y-74337312D01*
X170147440Y-74256875D01*
X170026028Y-74204304D01*
X169894692Y-74179834D01*
X169753810Y-74183700D01*
X169694809Y-74194002D01*
X169567557Y-74236976D01*
X169450293Y-74304666D01*
X169346582Y-74393684D01*
X169259994Y-74500641D01*
X169194096Y-74622149D01*
X169152456Y-74754818D01*
X169143147Y-74794500D01*
X169132225Y-74829343D01*
X169124016Y-74842758D01*
X169123790Y-74842749D01*
X169108962Y-74830969D01*
X169088067Y-74803575D01*
X169078383Y-74789825D01*
X169038319Y-74741200D01*
X168983428Y-74681617D01*
X168919770Y-74617102D01*
X168853405Y-74553682D01*
X168790393Y-74497384D01*
X168736794Y-74454234D01*
X168707084Y-74433012D01*
X168559812Y-74343860D01*
X168400339Y-74270088D01*
X168241072Y-74217619D01*
X168158573Y-74200039D01*
X168016836Y-74182952D01*
X167870370Y-74179048D01*
X167729683Y-74188434D01*
X167605284Y-74211216D01*
X167453867Y-74263757D01*
X167319564Y-74337877D01*
X167206442Y-74431534D01*
X167115807Y-74543405D01*
X167048967Y-74672169D01*
X167007228Y-74816502D01*
X167006790Y-74818799D01*
X166996194Y-74868701D01*
X166986658Y-74904094D01*
X166980199Y-74917449D01*
X166980044Y-74917428D01*
X166967596Y-74905248D01*
X166943334Y-74874973D01*
X166912357Y-74832956D01*
X166854272Y-74759011D01*
X166766357Y-74662928D01*
X166667062Y-74567223D01*
X166564676Y-74479804D01*
X166467492Y-74408580D01*
X166419263Y-74377924D01*
X166251458Y-74289303D01*
X166080105Y-74227890D01*
X165899670Y-74192025D01*
X165704619Y-74180053D01*
X165594442Y-74183613D01*
X165426237Y-74207147D01*
X165275356Y-74253370D01*
X165139493Y-74323078D01*
X165016342Y-74417064D01*
X164999508Y-74432812D01*
X164921455Y-74524070D01*
X164862478Y-74629631D01*
X164821546Y-74752423D01*
X164797629Y-74895373D01*
X164789700Y-75061407D01*
X164790270Y-75109635D01*
X164794909Y-75200894D01*
X164804666Y-75297241D01*
X164820091Y-75400744D01*
X164841737Y-75513472D01*
X164870153Y-75637495D01*
X164905892Y-75774881D01*
X164949504Y-75927699D01*
X165001540Y-76098018D01*
X165062552Y-76287907D01*
X165133090Y-76499435D01*
X165213706Y-76734670D01*
X165304951Y-76995681D01*
X165333500Y-77078530D01*
X165390280Y-77259045D01*
X165430825Y-77415349D01*
X165455096Y-77548188D01*
X165463053Y-77658310D01*
X165454655Y-77746461D01*
X165429863Y-77813389D01*
X165388635Y-77859840D01*
X165330933Y-77886563D01*
X165256716Y-77894304D01*
X165222288Y-77892335D01*
X165127502Y-77870882D01*
X165036686Y-77824305D01*
X164945103Y-77750418D01*
X164913731Y-77719323D01*
X164825231Y-77613604D01*
X164742396Y-77485869D01*
X164664160Y-77334128D01*
X164589461Y-77156392D01*
X164517233Y-76950673D01*
X164497791Y-76892166D01*
X164471313Y-76817251D01*
X164447604Y-76755435D01*
X164428683Y-76711911D01*
X164416572Y-76691872D01*
X164405782Y-76685113D01*
X164361500Y-76673806D01*
X164307082Y-76673574D01*
X164255343Y-76683671D01*
X164219098Y-76703352D01*
X164218506Y-76703944D01*
X164205424Y-76717840D01*
X164197915Y-76731892D01*
X164196285Y-76751901D01*
X163954413Y-76751901D01*
X163954174Y-76740470D01*
X163959204Y-76709174D01*
X163969451Y-76671402D01*
X164006906Y-76585786D01*
X164067089Y-76515597D01*
X164147236Y-76466778D01*
X164246042Y-76440109D01*
X164362205Y-76436368D01*
X164447639Y-76447706D01*
X164523367Y-76473893D01*
X164584771Y-76517581D01*
X164634998Y-76581883D01*
X164677197Y-76669915D01*
X164714517Y-76784788D01*
X164720847Y-76807158D01*
X164771475Y-76964201D01*
X164831119Y-77117654D01*
X164896803Y-77260947D01*
X164965551Y-77387512D01*
X165034386Y-77490779D01*
X165037256Y-77494530D01*
X165080436Y-77545382D01*
X165125449Y-77589918D01*
X165167119Y-77623887D01*
X165200272Y-77643033D01*
X165219730Y-77643103D01*
X165221155Y-77638198D01*
X165220135Y-77609332D01*
X165214005Y-77561583D01*
X165203591Y-77502161D01*
X165200073Y-77484664D01*
X165192705Y-77451245D01*
X165183605Y-77414733D01*
X165171957Y-77372604D01*
X165156943Y-77322334D01*
X165137746Y-77261402D01*
X165113550Y-77187284D01*
X165083537Y-77097456D01*
X165046890Y-76989396D01*
X165002793Y-76860581D01*
X164950428Y-76708486D01*
X164888977Y-76530590D01*
X164864196Y-76458284D01*
X164779059Y-76198571D01*
X164705789Y-75956016D01*
X164645270Y-75733651D01*
X164598389Y-75534510D01*
X164597041Y-75528169D01*
X164582311Y-75454907D01*
X164571748Y-75390662D01*
X164564667Y-75327632D01*
X164560384Y-75258014D01*
X164558215Y-75174005D01*
X164557476Y-75067802D01*
X164557434Y-75028720D01*
X164557953Y-74935415D01*
X164559831Y-74863782D01*
X164563595Y-74807661D01*
X164569775Y-74760889D01*
X164578896Y-74717306D01*
X164591488Y-74670750D01*
X164606290Y-74622888D01*
X164660019Y-74490929D01*
X164729504Y-74376525D01*
X164819445Y-74271449D01*
X164920428Y-74181979D01*
X165064159Y-74088318D01*
X165222292Y-74017037D01*
X165391850Y-73968000D01*
X165569858Y-73941075D01*
X165753339Y-73936127D01*
X165939318Y-73953024D01*
X166124818Y-73991631D01*
X166306862Y-74051814D01*
X166482476Y-74133442D01*
X166648683Y-74236378D01*
X166802507Y-74360491D01*
X166887696Y-74438718D01*
X166932435Y-74374435D01*
X166938584Y-74365757D01*
X167027089Y-74263818D01*
X167137762Y-74169719D01*
X167263432Y-74088833D01*
X167396928Y-74026530D01*
X167437630Y-74011544D01*
X167549222Y-73976566D01*
X167656426Y-73954033D01*
X167770462Y-73941990D01*
X167902552Y-73938483D01*
X168081356Y-73946627D01*
X168271836Y-73976139D01*
X168453164Y-74028665D01*
X168629447Y-74105728D01*
X168804791Y-74208854D01*
X168983305Y-74339566D01*
X169038886Y-74383982D01*
X169067690Y-74347067D01*
X169078204Y-74333722D01*
X169189804Y-74208387D01*
X169305230Y-74109580D01*
X169428758Y-74034134D01*
X169564661Y-73978881D01*
X169683619Y-73950005D01*
X169825631Y-73936041D01*
X169965597Y-73942245D01*
X170093606Y-73968807D01*
X170139119Y-73984524D01*
X170275822Y-74052000D01*
X170403448Y-74145887D01*
X170519656Y-74263921D01*
X170622104Y-74403838D01*
X170708450Y-74563374D01*
X170719052Y-74587188D01*
X170755058Y-74676481D01*
X170795023Y-74786013D01*
X170836717Y-74909044D01*
X170877905Y-75038836D01*
X170916354Y-75168649D01*
X170949831Y-75291745D01*
X170963787Y-75346616D01*
X170980034Y-75414955D01*
X170989511Y-75464979D01*
X170993055Y-75503192D01*
X170992779Y-75509058D01*
X170991505Y-75536100D01*
X170985699Y-75570206D01*
G37*
%TD*%
M02*
