%TF.GenerationSoftware,KiCad,Pcbnew,(6.0.4-0)*%
%TF.CreationDate,2022-04-27T18:10:26-07:00*%
%TF.ProjectId,viper,76697065-722e-46b6-9963-61645f706362,rev?*%
%TF.SameCoordinates,Original*%
%TF.FileFunction,Copper,L2,Bot*%
%TF.FilePolarity,Positive*%
%FSLAX46Y46*%
G04 Gerber Fmt 4.6, Leading zero omitted, Abs format (unit mm)*
G04 Created by KiCad (PCBNEW (6.0.4-0)) date 2022-04-27 18:10:26*
%MOMM*%
%LPD*%
G01*
G04 APERTURE LIST*
%TA.AperFunction,ComponentPad*%
%ADD10C,2.700000*%
%TD*%
%TA.AperFunction,ComponentPad*%
%ADD11R,1.700000X1.700000*%
%TD*%
%TA.AperFunction,ComponentPad*%
%ADD12O,1.700000X1.700000*%
%TD*%
%TA.AperFunction,ComponentPad*%
%ADD13O,1.600000X2.000000*%
%TD*%
%TA.AperFunction,ComponentPad*%
%ADD14R,1.800000X1.800000*%
%TD*%
%TA.AperFunction,ComponentPad*%
%ADD15C,1.800000*%
%TD*%
%TA.AperFunction,ComponentPad*%
%ADD16C,1.600000*%
%TD*%
%TA.AperFunction,ComponentPad*%
%ADD17O,1.600000X1.600000*%
%TD*%
%TA.AperFunction,ComponentPad*%
%ADD18R,4.400000X1.800000*%
%TD*%
%TA.AperFunction,ComponentPad*%
%ADD19O,4.000000X1.800000*%
%TD*%
%TA.AperFunction,ComponentPad*%
%ADD20O,1.800000X4.000000*%
%TD*%
%TA.AperFunction,ViaPad*%
%ADD21C,1.000000*%
%TD*%
%TA.AperFunction,ViaPad*%
%ADD22C,0.800000*%
%TD*%
%TA.AperFunction,Conductor*%
%ADD23C,0.250000*%
%TD*%
%TA.AperFunction,Conductor*%
%ADD24C,1.000000*%
%TD*%
%TA.AperFunction,Conductor*%
%ADD25C,0.200000*%
%TD*%
G04 APERTURE END LIST*
D10*
%TO.P,S7,1,ON*%
%TO.N,unconnected-(S7-Pad1)*%
X254964000Y-225467000D03*
%TO.P,S7,2,COM*%
%TO.N,GND*%
X250264000Y-225467000D03*
%TO.P,S7,3,ON*%
%TO.N,Net-(S7-Pad3)*%
X245564000Y-225467000D03*
%TD*%
D11*
%TO.P,J7,1,Pin_1*%
%TO.N,Net-(J7-Pad1)*%
X111125000Y-221361000D03*
D12*
%TO.P,J7,2,Pin_2*%
%TO.N,Net-(J7-Pad2)*%
X113665000Y-221361000D03*
%TO.P,J7,3,Pin_3*%
%TO.N,Net-(J7-Pad3)*%
X111125000Y-223901000D03*
%TO.P,J7,4,Pin_4*%
%TO.N,Net-(J7-Pad4)*%
X113665000Y-223901000D03*
%TD*%
%TO.P,U2,1,GPIO0*%
%TO.N,Net-(J7-Pad4)*%
X103505000Y-223892000D03*
%TO.P,U2,2,GPIO1*%
%TO.N,Net-(J7-Pad3)*%
X103505000Y-221352000D03*
D11*
%TO.P,U2,3,GND*%
%TO.N,GND*%
X103505000Y-218812000D03*
D12*
%TO.P,U2,4,GPIO2*%
%TO.N,unconnected-(U2-Pad4)*%
X103505000Y-216272000D03*
%TO.P,U2,5,GPIO3*%
%TO.N,unconnected-(U2-Pad5)*%
X103505000Y-213732000D03*
%TO.P,U2,6,GPIO4*%
%TO.N,unconnected-(U2-Pad6)*%
X103505000Y-211192000D03*
%TO.P,U2,7,GPIO5*%
%TO.N,unconnected-(U2-Pad7)*%
X103505000Y-208652000D03*
D11*
%TO.P,U2,8,GND*%
%TO.N,unconnected-(U2-Pad8)*%
X103505000Y-206112000D03*
D12*
%TO.P,U2,9,GPIO6*%
%TO.N,unconnected-(U2-Pad9)*%
X103505000Y-203572000D03*
%TO.P,U2,10,GPIO7*%
%TO.N,unconnected-(U2-Pad10)*%
X103505000Y-201032000D03*
%TO.P,U2,11,GPIO8*%
%TO.N,unconnected-(U2-Pad11)*%
X103505000Y-198492000D03*
%TO.P,U2,12,GPIO9*%
%TO.N,unconnected-(U2-Pad12)*%
X103505000Y-195952000D03*
D11*
%TO.P,U2,13,GND*%
%TO.N,unconnected-(U2-Pad13)*%
X103505000Y-193412000D03*
D12*
%TO.P,U2,14,GPIO10*%
%TO.N,unconnected-(U2-Pad14)*%
X103505000Y-190872000D03*
%TO.P,U2,15,GPIO11*%
%TO.N,unconnected-(U2-Pad15)*%
X103505000Y-188332000D03*
%TO.P,U2,16,GPIO12*%
%TO.N,unconnected-(U2-Pad16)*%
X103505000Y-185792000D03*
%TO.P,U2,17,GPIO13*%
%TO.N,unconnected-(U2-Pad17)*%
X103505000Y-183252000D03*
D11*
%TO.P,U2,18,GND*%
%TO.N,unconnected-(U2-Pad18)*%
X103505000Y-180712000D03*
D12*
%TO.P,U2,19,GPIO14*%
%TO.N,unconnected-(U2-Pad19)*%
X103505000Y-178172000D03*
%TO.P,U2,20,GPIO15*%
%TO.N,unconnected-(U2-Pad20)*%
X103505000Y-175632000D03*
%TO.P,U2,21,GPIO16*%
%TO.N,Net-(U2-Pad21)*%
X85725000Y-175632000D03*
%TO.P,U2,22,GPIO17*%
%TO.N,Net-(U2-Pad22)*%
X85725000Y-178172000D03*
D11*
%TO.P,U2,23,GND*%
%TO.N,unconnected-(U2-Pad23)*%
X85725000Y-180712000D03*
D12*
%TO.P,U2,24,GPIO18*%
%TO.N,unconnected-(U2-Pad24)*%
X85725000Y-183252000D03*
%TO.P,U2,25,GPIO19*%
%TO.N,unconnected-(U2-Pad25)*%
X85725000Y-185792000D03*
%TO.P,U2,26,GPIO20*%
%TO.N,unconnected-(U2-Pad26)*%
X85725000Y-188332000D03*
%TO.P,U2,27,GPIO21*%
%TO.N,unconnected-(U2-Pad27)*%
X85725000Y-190872000D03*
D11*
%TO.P,U2,28,GND*%
%TO.N,unconnected-(U2-Pad28)*%
X85725000Y-193412000D03*
D12*
%TO.P,U2,29,GPIO22*%
%TO.N,unconnected-(U2-Pad29)*%
X85725000Y-195952000D03*
%TO.P,U2,30,RUN*%
%TO.N,unconnected-(U2-Pad30)*%
X85725000Y-198492000D03*
%TO.P,U2,31,GPIO26_ADC0*%
%TO.N,unconnected-(U2-Pad31)*%
X85725000Y-201032000D03*
%TO.P,U2,32,GPIO27_ADC1*%
%TO.N,unconnected-(U2-Pad32)*%
X85725000Y-203572000D03*
D11*
%TO.P,U2,33,AGND*%
%TO.N,unconnected-(U2-Pad33)*%
X85725000Y-206112000D03*
D12*
%TO.P,U2,34,GPIO28_ADC2*%
%TO.N,unconnected-(U2-Pad34)*%
X85725000Y-208652000D03*
%TO.P,U2,35,ADC_VREF*%
%TO.N,unconnected-(U2-Pad35)*%
X85725000Y-211192000D03*
%TO.P,U2,36,3V3*%
%TO.N,unconnected-(U2-Pad36)*%
X85725000Y-213732000D03*
%TO.P,U2,37,3V3_EN*%
%TO.N,unconnected-(U2-Pad37)*%
X85725000Y-216272000D03*
D11*
%TO.P,U2,38,GND*%
%TO.N,unconnected-(U2-Pad38)*%
X85725000Y-218812000D03*
D12*
%TO.P,U2,39,VSYS*%
%TO.N,unconnected-(U2-Pad39)*%
X85725000Y-221352000D03*
%TO.P,U2,40,VBUS*%
%TO.N,VBUS*%
X85725000Y-223892000D03*
%TO.P,U2,41,SWCLK*%
%TO.N,Net-(J7-Pad2)*%
X97155000Y-175862000D03*
D11*
%TO.P,U2,42,GND*%
%TO.N,GND*%
X94615000Y-175862000D03*
D12*
%TO.P,U2,43,SWDIO*%
%TO.N,Net-(J7-Pad1)*%
X92075000Y-175862000D03*
%TD*%
D13*
%TO.P,Brd1,4,SDA*%
%TO.N,Net-(U2-Pad22)*%
X129730000Y-187393000D03*
%TO.P,Brd1,3,SCL*%
%TO.N,Net-(U2-Pad21)*%
X127190000Y-187393000D03*
%TO.P,Brd1,1,GND*%
%TO.N,GND*%
X122110000Y-187393000D03*
%TO.P,Brd1,2,VCC*%
%TO.N,VBUS*%
X124650000Y-187393000D03*
%TD*%
D12*
%TO.P,J15,40,Pin_40*%
%TO.N,unconnected-(J15-Pad40)*%
X203205000Y-175119000D03*
%TO.P,J15,39,Pin_39*%
%TO.N,unconnected-(J15-Pad39)*%
X205745000Y-175119000D03*
%TO.P,J15,38,Pin_38*%
%TO.N,unconnected-(J15-Pad38)*%
X203205000Y-177659000D03*
%TO.P,J15,37,Pin_37*%
%TO.N,unconnected-(J15-Pad37)*%
X205745000Y-177659000D03*
%TO.P,J15,36,Pin_36*%
%TO.N,unconnected-(J15-Pad36)*%
X203205000Y-180199000D03*
%TO.P,J15,35,Pin_35*%
%TO.N,unconnected-(J15-Pad35)*%
X205745000Y-180199000D03*
%TO.P,J15,34,Pin_34*%
%TO.N,unconnected-(J15-Pad34)*%
X203205000Y-182739000D03*
%TO.P,J15,33,Pin_33*%
%TO.N,unconnected-(J15-Pad33)*%
X205745000Y-182739000D03*
%TO.P,J15,32,Pin_32*%
%TO.N,unconnected-(J15-Pad32)*%
X203205000Y-185279000D03*
%TO.P,J15,31,Pin_31*%
%TO.N,unconnected-(J15-Pad31)*%
X205745000Y-185279000D03*
%TO.P,J15,30,Pin_30*%
%TO.N,unconnected-(J15-Pad30)*%
X203205000Y-187819000D03*
%TO.P,J15,29,Pin_29*%
%TO.N,unconnected-(J15-Pad29)*%
X205745000Y-187819000D03*
%TO.P,J15,28,Pin_28*%
%TO.N,unconnected-(J15-Pad28)*%
X203205000Y-190359000D03*
%TO.P,J15,27,Pin_27*%
%TO.N,unconnected-(J15-Pad27)*%
X205745000Y-190359000D03*
%TO.P,J15,26,Pin_26*%
%TO.N,unconnected-(J15-Pad26)*%
X203205000Y-192899000D03*
%TO.P,J15,25,Pin_25*%
%TO.N,unconnected-(J15-Pad25)*%
X205745000Y-192899000D03*
%TO.P,J15,24,Pin_24*%
%TO.N,unconnected-(J15-Pad24)*%
X203205000Y-195439000D03*
%TO.P,J15,23,Pin_23*%
%TO.N,unconnected-(J15-Pad23)*%
X205745000Y-195439000D03*
%TO.P,J15,22,Pin_22*%
%TO.N,unconnected-(J15-Pad22)*%
X203205000Y-197979000D03*
%TO.P,J15,21,Pin_21*%
%TO.N,unconnected-(J15-Pad21)*%
X205745000Y-197979000D03*
%TO.P,J15,20,Pin_20*%
%TO.N,unconnected-(J15-Pad20)*%
X203205000Y-200519000D03*
%TO.P,J15,19,Pin_19*%
%TO.N,unconnected-(J15-Pad19)*%
X205745000Y-200519000D03*
%TO.P,J15,18,Pin_18*%
%TO.N,unconnected-(J15-Pad18)*%
X203205000Y-203059000D03*
%TO.P,J15,17,Pin_17*%
%TO.N,unconnected-(J15-Pad17)*%
X205745000Y-203059000D03*
%TO.P,J15,16,Pin_16*%
%TO.N,unconnected-(J15-Pad16)*%
X203205000Y-205599000D03*
%TO.P,J15,15,Pin_15*%
%TO.N,unconnected-(J15-Pad15)*%
X205745000Y-205599000D03*
%TO.P,J15,14,Pin_14*%
%TO.N,unconnected-(J15-Pad14)*%
X203205000Y-208139000D03*
%TO.P,J15,13,Pin_13*%
%TO.N,unconnected-(J15-Pad13)*%
X205745000Y-208139000D03*
%TO.P,J15,12,Pin_12*%
%TO.N,unconnected-(J15-Pad12)*%
X203205000Y-210679000D03*
%TO.P,J15,11,Pin_11*%
%TO.N,unconnected-(J15-Pad11)*%
X205745000Y-210679000D03*
%TO.P,J15,10,Pin_10*%
%TO.N,unconnected-(J15-Pad10)*%
X203205000Y-213219000D03*
%TO.P,J15,9,Pin_9*%
%TO.N,unconnected-(J15-Pad9)*%
X205745000Y-213219000D03*
%TO.P,J15,8,Pin_8*%
%TO.N,unconnected-(J15-Pad8)*%
X203205000Y-215759000D03*
%TO.P,J15,7,Pin_7*%
%TO.N,unconnected-(J15-Pad7)*%
X205745000Y-215759000D03*
%TO.P,J15,6,Pin_6*%
%TO.N,Net-(J15-Pad6)*%
X203205000Y-218299000D03*
%TO.P,J15,5,Pin_5*%
%TO.N,Net-(J15-Pad5)*%
X205745000Y-218299000D03*
%TO.P,J15,4,Pin_4*%
%TO.N,unconnected-(J15-Pad4)*%
X203205000Y-220839000D03*
%TO.P,J15,3,Pin_3*%
%TO.N,Net-(J15-Pad3)*%
X205745000Y-220839000D03*
%TO.P,J15,2,Pin_2*%
%TO.N,VBUS*%
X203205000Y-223379000D03*
D11*
%TO.P,J15,1,Pin_1*%
%TO.N,Net-(J15-Pad1)*%
X205745000Y-223379000D03*
%TD*%
D14*
%TO.P,D10,1,K*%
%TO.N,GND*%
X178767335Y-46732833D03*
D15*
%TO.P,D10,2,A*%
%TO.N,Net-(D10-Pad2)*%
X176227335Y-46732833D03*
%TD*%
D11*
%TO.P,J2,1,Pin_1*%
%TO.N,/1 3.3V*%
X109479000Y-154087875D03*
D12*
%TO.P,J2,2,Pin_2*%
%TO.N,unconnected-(J2-Pad2)*%
X106939000Y-154087875D03*
%TO.P,J2,3,Pin_3*%
%TO.N,/1 SDA 01*%
X109479000Y-151547875D03*
%TO.P,J2,4,Pin_4*%
%TO.N,VBUS*%
X106939000Y-151547875D03*
%TO.P,J2,5,Pin_5*%
%TO.N,/1 SCL 01*%
X109479000Y-149007875D03*
%TO.P,J2,6,Pin_6*%
%TO.N,GND*%
X106939000Y-149007875D03*
%TO.P,J2,7,Pin_7*%
%TO.N,/1 SDA 03*%
X109479000Y-146467875D03*
%TO.P,J2,8,Pin_8*%
%TO.N,unconnected-(J2-Pad8)*%
X106939000Y-146467875D03*
%TO.P,J2,9,Pin_9*%
%TO.N,unconnected-(J2-Pad9)*%
X109479000Y-143927875D03*
%TO.P,J2,10,Pin_10*%
%TO.N,unconnected-(J2-Pad10)*%
X106939000Y-143927875D03*
%TO.P,J2,11,Pin_11*%
%TO.N,/1 BUSY*%
X109479000Y-141387875D03*
%TO.P,J2,12,Pin_12*%
%TO.N,unconnected-(J2-Pad12)*%
X106939000Y-141387875D03*
%TO.P,J2,13,Pin_13*%
%TO.N,/1 RESET*%
X109479000Y-138847875D03*
%TO.P,J2,14,Pin_14*%
%TO.N,unconnected-(J2-Pad14)*%
X106939000Y-138847875D03*
%TO.P,J2,15,Pin_15*%
%TO.N,/1 DATA*%
X109479000Y-136307875D03*
%TO.P,J2,16,Pin_16*%
%TO.N,/1 GPIO 23*%
X106939000Y-136307875D03*
%TO.P,J2,17,Pin_17*%
%TO.N,unconnected-(J2-Pad17)*%
X109479000Y-133767875D03*
%TO.P,J2,18,Pin_18*%
%TO.N,/1 GPIO 24*%
X106939000Y-133767875D03*
%TO.P,J2,19,Pin_19*%
%TO.N,/1 SPI0 MOSI*%
X109479000Y-131227875D03*
%TO.P,J2,20,Pin_20*%
%TO.N,unconnected-(J2-Pad20)*%
X106939000Y-131227875D03*
%TO.P,J2,21,Pin_21*%
%TO.N,unconnected-(J2-Pad21)*%
X109479000Y-128687875D03*
%TO.P,J2,22,Pin_22*%
%TO.N,unconnected-(J2-Pad22)*%
X106939000Y-128687875D03*
%TO.P,J2,23,Pin_23*%
%TO.N,/1 SPI0 SCLK*%
X109479000Y-126147875D03*
%TO.P,J2,24,Pin_24*%
%TO.N,/1 CS*%
X106939000Y-126147875D03*
%TO.P,J2,25,Pin_25*%
%TO.N,unconnected-(J2-Pad25)*%
X109479000Y-123607875D03*
%TO.P,J2,26,Pin_26*%
%TO.N,unconnected-(J2-Pad26)*%
X106939000Y-123607875D03*
%TO.P,J2,27,Pin_27*%
%TO.N,unconnected-(J2-Pad27)*%
X109479000Y-121067875D03*
%TO.P,J2,28,Pin_28*%
%TO.N,unconnected-(J2-Pad28)*%
X106939000Y-121067875D03*
%TO.P,J2,29,Pin_29*%
%TO.N,/1 SCL 03*%
X109479000Y-118527875D03*
%TO.P,J2,30,Pin_30*%
%TO.N,unconnected-(J2-Pad30)*%
X106939000Y-118527875D03*
%TO.P,J2,31,Pin_31*%
%TO.N,unconnected-(J2-Pad31)*%
X109479000Y-115987875D03*
%TO.P,J2,32,Pin_32*%
%TO.N,unconnected-(J2-Pad32)*%
X106939000Y-115987875D03*
%TO.P,J2,33,Pin_33*%
%TO.N,unconnected-(J2-Pad33)*%
X109479000Y-113447875D03*
%TO.P,J2,34,Pin_34*%
%TO.N,unconnected-(J2-Pad34)*%
X106939000Y-113447875D03*
%TO.P,J2,35,Pin_35*%
%TO.N,unconnected-(J2-Pad35)*%
X109479000Y-110907875D03*
%TO.P,J2,36,Pin_36*%
%TO.N,unconnected-(J2-Pad36)*%
X106939000Y-110907875D03*
%TO.P,J2,37,Pin_37*%
%TO.N,unconnected-(J2-Pad37)*%
X109479000Y-108367875D03*
%TO.P,J2,38,Pin_38*%
%TO.N,unconnected-(J2-Pad38)*%
X106939000Y-108367875D03*
%TO.P,J2,39,Pin_39*%
%TO.N,unconnected-(J2-Pad39)*%
X109479000Y-105827875D03*
%TO.P,J2,40,Pin_40*%
%TO.N,unconnected-(J2-Pad40)*%
X106939000Y-105827875D03*
%TD*%
D10*
%TO.P,S2,1,ON*%
%TO.N,Net-(R3-Pad2)*%
X145616324Y-58547000D03*
%TO.P,S2,2,COM*%
%TO.N,VBUS*%
X145616324Y-63247000D03*
%TO.P,S2,3,ON*%
X145616324Y-67947000D03*
%TD*%
D14*
%TO.P,D13,1,K*%
%TO.N,Net-(D13-Pad1)*%
X178767335Y-79634165D03*
D15*
%TO.P,D13,2,A*%
%TO.N,GND*%
X176227335Y-79634165D03*
%TD*%
D16*
%TO.P,R4,1*%
%TO.N,VBUS*%
X122975349Y-73756000D03*
D17*
%TO.P,R4,2*%
%TO.N,Net-(D4-Pad1)*%
X135675349Y-73756000D03*
%TD*%
D11*
%TO.P,J12,1,Pin_1*%
%TO.N,/1 3.3V*%
X151765000Y-106802000D03*
D12*
%TO.P,J12,2,Pin_2*%
%TO.N,VBUS*%
X154305000Y-106802000D03*
%TO.P,J12,3,Pin_3*%
%TO.N,/1 SDA 01*%
X151765000Y-109342000D03*
%TO.P,J12,4,Pin_4*%
%TO.N,unconnected-(J12-Pad4)*%
X154305000Y-109342000D03*
%TO.P,J12,5,Pin_5*%
%TO.N,/1 SCL 01*%
X151765000Y-111882000D03*
%TO.P,J12,6,Pin_6*%
%TO.N,GND*%
X154305000Y-111882000D03*
%TO.P,J12,7,Pin_7*%
%TO.N,unconnected-(J12-Pad7)*%
X151765000Y-114422000D03*
%TO.P,J12,8,Pin_8*%
%TO.N,unconnected-(J12-Pad8)*%
X154305000Y-114422000D03*
%TO.P,J12,9,Pin_9*%
%TO.N,unconnected-(J12-Pad9)*%
X151765000Y-116962000D03*
%TO.P,J12,10,Pin_10*%
%TO.N,unconnected-(J12-Pad10)*%
X154305000Y-116962000D03*
%TO.P,J12,11,Pin_11*%
%TO.N,/1 BUSY*%
X151765000Y-119502000D03*
%TO.P,J12,12,Pin_12*%
%TO.N,unconnected-(J12-Pad12)*%
X154305000Y-119502000D03*
%TO.P,J12,13,Pin_13*%
%TO.N,/1 RESET*%
X151765000Y-122042000D03*
%TO.P,J12,14,Pin_14*%
%TO.N,unconnected-(J12-Pad14)*%
X154305000Y-122042000D03*
%TO.P,J12,15,Pin_15*%
%TO.N,/1 DATA*%
X151765000Y-124582000D03*
%TO.P,J12,16,Pin_16*%
%TO.N,unconnected-(J12-Pad16)*%
X154305000Y-124582000D03*
%TO.P,J12,17,Pin_17*%
%TO.N,unconnected-(J12-Pad17)*%
X151765000Y-127122000D03*
%TO.P,J12,18,Pin_18*%
%TO.N,unconnected-(J12-Pad18)*%
X154305000Y-127122000D03*
%TO.P,J12,19,Pin_19*%
%TO.N,/1 SPI0 MOSI*%
X151765000Y-129662000D03*
%TO.P,J12,20,Pin_20*%
%TO.N,unconnected-(J12-Pad20)*%
X154305000Y-129662000D03*
%TO.P,J12,21,Pin_21*%
%TO.N,unconnected-(J12-Pad21)*%
X151765000Y-132202000D03*
%TO.P,J12,22,Pin_22*%
%TO.N,unconnected-(J12-Pad22)*%
X154305000Y-132202000D03*
%TO.P,J12,23,Pin_23*%
%TO.N,/1 SPI0 SCLK*%
X151765000Y-134742000D03*
%TO.P,J12,24,Pin_24*%
%TO.N,/1 CS*%
X154305000Y-134742000D03*
%TO.P,J12,25,Pin_25*%
%TO.N,unconnected-(J12-Pad25)*%
X151765000Y-137282000D03*
%TO.P,J12,26,Pin_26*%
%TO.N,unconnected-(J12-Pad26)*%
X154305000Y-137282000D03*
%TO.P,J12,27,Pin_27*%
%TO.N,unconnected-(J12-Pad27)*%
X151765000Y-139822000D03*
%TO.P,J12,28,Pin_28*%
%TO.N,unconnected-(J12-Pad28)*%
X154305000Y-139822000D03*
%TO.P,J12,29,Pin_29*%
%TO.N,unconnected-(J12-Pad29)*%
X151765000Y-142362000D03*
%TO.P,J12,30,Pin_30*%
%TO.N,unconnected-(J12-Pad30)*%
X154305000Y-142362000D03*
%TO.P,J12,31,Pin_31*%
%TO.N,unconnected-(J12-Pad31)*%
X151765000Y-144902000D03*
%TO.P,J12,32,Pin_32*%
%TO.N,unconnected-(J12-Pad32)*%
X154305000Y-144902000D03*
%TO.P,J12,33,Pin_33*%
%TO.N,unconnected-(J12-Pad33)*%
X151765000Y-147442000D03*
%TO.P,J12,34,Pin_34*%
%TO.N,unconnected-(J12-Pad34)*%
X154305000Y-147442000D03*
%TO.P,J12,35,Pin_35*%
%TO.N,unconnected-(J12-Pad35)*%
X151765000Y-149982000D03*
%TO.P,J12,36,Pin_36*%
%TO.N,unconnected-(J12-Pad36)*%
X154305000Y-149982000D03*
%TO.P,J12,37,Pin_37*%
%TO.N,unconnected-(J12-Pad37)*%
X151765000Y-152522000D03*
%TO.P,J12,38,Pin_38*%
%TO.N,unconnected-(J12-Pad38)*%
X154305000Y-152522000D03*
%TO.P,J12,39,Pin_39*%
%TO.N,unconnected-(J12-Pad39)*%
X151765000Y-155062000D03*
%TO.P,J12,40,Pin_40*%
%TO.N,unconnected-(J12-Pad40)*%
X154305000Y-155062000D03*
%TD*%
D16*
%TO.P,R2,1*%
%TO.N,VBUS*%
X106919687Y-73756000D03*
D17*
%TO.P,R2,2*%
%TO.N,Net-(D2-Pad1)*%
X119619687Y-73756000D03*
%TD*%
D16*
%TO.P,R9,1*%
%TO.N,Net-(D8-Pad2)*%
X90864025Y-52738000D03*
D17*
%TO.P,R9,2*%
%TO.N,Net-(R9-Pad2)*%
X103564025Y-52738000D03*
%TD*%
D11*
%TO.P,J13,1,Pin_1*%
%TO.N,unconnected-(J13-Pad1)*%
X184653000Y-106802000D03*
D12*
%TO.P,J13,2,Pin_2*%
%TO.N,VBUS*%
X187193000Y-106802000D03*
%TO.P,J13,3,Pin_3*%
%TO.N,unconnected-(J13-Pad3)*%
X184653000Y-109342000D03*
%TO.P,J13,4,Pin_4*%
%TO.N,VBUS*%
X187193000Y-109342000D03*
%TO.P,J13,5,Pin_5*%
%TO.N,unconnected-(J13-Pad5)*%
X184653000Y-111882000D03*
%TO.P,J13,6,Pin_6*%
%TO.N,GND*%
X187193000Y-111882000D03*
%TO.P,J13,7,Pin_7*%
%TO.N,unconnected-(J13-Pad7)*%
X184653000Y-114422000D03*
%TO.P,J13,8,Pin_8*%
%TO.N,unconnected-(J13-Pad8)*%
X187193000Y-114422000D03*
%TO.P,J13,9,Pin_9*%
%TO.N,unconnected-(J13-Pad9)*%
X184653000Y-116962000D03*
%TO.P,J13,10,Pin_10*%
%TO.N,unconnected-(J13-Pad10)*%
X187193000Y-116962000D03*
%TO.P,J13,11,Pin_11*%
%TO.N,unconnected-(J13-Pad11)*%
X184653000Y-119502000D03*
%TO.P,J13,12,Pin_12*%
%TO.N,unconnected-(J13-Pad12)*%
X187193000Y-119502000D03*
%TO.P,J13,13,Pin_13*%
%TO.N,unconnected-(J13-Pad13)*%
X184653000Y-122042000D03*
%TO.P,J13,14,Pin_14*%
%TO.N,unconnected-(J13-Pad14)*%
X187193000Y-122042000D03*
%TO.P,J13,15,Pin_15*%
%TO.N,unconnected-(J13-Pad15)*%
X184653000Y-124582000D03*
%TO.P,J13,16,Pin_16*%
%TO.N,/1 GPIO 23*%
X187193000Y-124582000D03*
%TO.P,J13,17,Pin_17*%
%TO.N,unconnected-(J13-Pad17)*%
X184653000Y-127122000D03*
%TO.P,J13,18,Pin_18*%
%TO.N,/1 GPIO 24*%
X187193000Y-127122000D03*
%TO.P,J13,19,Pin_19*%
%TO.N,unconnected-(J13-Pad19)*%
X184653000Y-129662000D03*
%TO.P,J13,20,Pin_20*%
%TO.N,unconnected-(J13-Pad20)*%
X187193000Y-129662000D03*
%TO.P,J13,21,Pin_21*%
%TO.N,unconnected-(J13-Pad21)*%
X184653000Y-132202000D03*
%TO.P,J13,22,Pin_22*%
%TO.N,unconnected-(J13-Pad22)*%
X187193000Y-132202000D03*
%TO.P,J13,23,Pin_23*%
%TO.N,unconnected-(J13-Pad23)*%
X184653000Y-134742000D03*
%TO.P,J13,24,Pin_24*%
%TO.N,unconnected-(J13-Pad24)*%
X187193000Y-134742000D03*
%TO.P,J13,25,Pin_25*%
%TO.N,unconnected-(J13-Pad25)*%
X184653000Y-137282000D03*
%TO.P,J13,26,Pin_26*%
%TO.N,unconnected-(J13-Pad26)*%
X187193000Y-137282000D03*
%TO.P,J13,27,Pin_27*%
%TO.N,unconnected-(J13-Pad27)*%
X184653000Y-139822000D03*
%TO.P,J13,28,Pin_28*%
%TO.N,unconnected-(J13-Pad28)*%
X187193000Y-139822000D03*
%TO.P,J13,29,Pin_29*%
%TO.N,unconnected-(J13-Pad29)*%
X184653000Y-142362000D03*
%TO.P,J13,30,Pin_30*%
%TO.N,unconnected-(J13-Pad30)*%
X187193000Y-142362000D03*
%TO.P,J13,31,Pin_31*%
%TO.N,unconnected-(J13-Pad31)*%
X184653000Y-144902000D03*
%TO.P,J13,32,Pin_32*%
%TO.N,unconnected-(J13-Pad32)*%
X187193000Y-144902000D03*
%TO.P,J13,33,Pin_33*%
%TO.N,unconnected-(J13-Pad33)*%
X184653000Y-147442000D03*
%TO.P,J13,34,Pin_34*%
%TO.N,unconnected-(J13-Pad34)*%
X187193000Y-147442000D03*
%TO.P,J13,35,Pin_35*%
%TO.N,unconnected-(J13-Pad35)*%
X184653000Y-149982000D03*
%TO.P,J13,36,Pin_36*%
%TO.N,unconnected-(J13-Pad36)*%
X187193000Y-149982000D03*
%TO.P,J13,37,Pin_37*%
%TO.N,unconnected-(J13-Pad37)*%
X184653000Y-152522000D03*
%TO.P,J13,38,Pin_38*%
%TO.N,unconnected-(J13-Pad38)*%
X187193000Y-152522000D03*
%TO.P,J13,39,Pin_39*%
%TO.N,unconnected-(J13-Pad39)*%
X184653000Y-155062000D03*
%TO.P,J13,40,Pin_40*%
%TO.N,unconnected-(J13-Pad40)*%
X187193000Y-155062000D03*
%TD*%
D16*
%TO.P,R3,1*%
%TO.N,Net-(D3-Pad2)*%
X139031011Y-52738000D03*
D17*
%TO.P,R3,2*%
%TO.N,Net-(R3-Pad2)*%
X151731011Y-52738000D03*
%TD*%
D11*
%TO.P,J4,1,Pin_1*%
%TO.N,/1 3.3V*%
X118999000Y-106637625D03*
D12*
%TO.P,J4,2,Pin_2*%
%TO.N,VBUS*%
X121539000Y-106637625D03*
%TO.P,J4,3,Pin_3*%
%TO.N,/1 SDA 03*%
X118999000Y-109177625D03*
%TO.P,J4,4,Pin_4*%
%TO.N,unconnected-(J4-Pad4)*%
X121539000Y-109177625D03*
%TO.P,J4,5,Pin_5*%
%TO.N,/1 SCL 03*%
X118999000Y-111717625D03*
%TO.P,J4,6,Pin_6*%
%TO.N,GND*%
X121539000Y-111717625D03*
%TO.P,J4,7,Pin_7*%
%TO.N,unconnected-(J4-Pad7)*%
X118999000Y-114257625D03*
%TO.P,J4,8,Pin_8*%
%TO.N,unconnected-(J4-Pad8)*%
X121539000Y-114257625D03*
%TO.P,J4,9,Pin_9*%
%TO.N,unconnected-(J4-Pad9)*%
X118999000Y-116797625D03*
%TO.P,J4,10,Pin_10*%
%TO.N,unconnected-(J4-Pad10)*%
X121539000Y-116797625D03*
%TO.P,J4,11,Pin_11*%
%TO.N,unconnected-(J4-Pad11)*%
X118999000Y-119337625D03*
%TO.P,J4,12,Pin_12*%
%TO.N,unconnected-(J4-Pad12)*%
X121539000Y-119337625D03*
%TO.P,J4,13,Pin_13*%
%TO.N,unconnected-(J4-Pad13)*%
X118999000Y-121877625D03*
%TO.P,J4,14,Pin_14*%
%TO.N,unconnected-(J4-Pad14)*%
X121539000Y-121877625D03*
%TO.P,J4,15,Pin_15*%
%TO.N,unconnected-(J4-Pad15)*%
X118999000Y-124417625D03*
%TO.P,J4,16,Pin_16*%
%TO.N,unconnected-(J4-Pad16)*%
X121539000Y-124417625D03*
%TO.P,J4,17,Pin_17*%
%TO.N,unconnected-(J4-Pad17)*%
X118999000Y-126957625D03*
%TO.P,J4,18,Pin_18*%
%TO.N,unconnected-(J4-Pad18)*%
X121539000Y-126957625D03*
%TO.P,J4,19,Pin_19*%
%TO.N,unconnected-(J4-Pad19)*%
X118999000Y-129497625D03*
%TO.P,J4,20,Pin_20*%
%TO.N,unconnected-(J4-Pad20)*%
X121539000Y-129497625D03*
%TO.P,J4,21,Pin_21*%
%TO.N,unconnected-(J4-Pad21)*%
X118999000Y-132037625D03*
%TO.P,J4,22,Pin_22*%
%TO.N,unconnected-(J4-Pad22)*%
X121539000Y-132037625D03*
%TO.P,J4,23,Pin_23*%
%TO.N,unconnected-(J4-Pad23)*%
X118999000Y-134577625D03*
%TO.P,J4,24,Pin_24*%
%TO.N,unconnected-(J4-Pad24)*%
X121539000Y-134577625D03*
%TO.P,J4,25,Pin_25*%
%TO.N,unconnected-(J4-Pad25)*%
X118999000Y-137117625D03*
%TO.P,J4,26,Pin_26*%
%TO.N,unconnected-(J4-Pad26)*%
X121539000Y-137117625D03*
%TO.P,J4,27,Pin_27*%
%TO.N,unconnected-(J4-Pad27)*%
X118999000Y-139657625D03*
%TO.P,J4,28,Pin_28*%
%TO.N,unconnected-(J4-Pad28)*%
X121539000Y-139657625D03*
%TO.P,J4,29,Pin_29*%
%TO.N,unconnected-(J4-Pad29)*%
X118999000Y-142197625D03*
%TO.P,J4,30,Pin_30*%
%TO.N,unconnected-(J4-Pad30)*%
X121539000Y-142197625D03*
%TO.P,J4,31,Pin_31*%
%TO.N,unconnected-(J4-Pad31)*%
X118999000Y-144737625D03*
%TO.P,J4,32,Pin_32*%
%TO.N,unconnected-(J4-Pad32)*%
X121539000Y-144737625D03*
%TO.P,J4,33,Pin_33*%
%TO.N,unconnected-(J4-Pad33)*%
X118999000Y-147277625D03*
%TO.P,J4,34,Pin_34*%
%TO.N,unconnected-(J4-Pad34)*%
X121539000Y-147277625D03*
%TO.P,J4,35,Pin_35*%
%TO.N,unconnected-(J4-Pad35)*%
X118999000Y-149817625D03*
%TO.P,J4,36,Pin_36*%
%TO.N,unconnected-(J4-Pad36)*%
X121539000Y-149817625D03*
%TO.P,J4,37,Pin_37*%
%TO.N,unconnected-(J4-Pad37)*%
X118999000Y-152357625D03*
%TO.P,J4,38,Pin_38*%
%TO.N,unconnected-(J4-Pad38)*%
X121539000Y-152357625D03*
%TO.P,J4,39,Pin_39*%
%TO.N,unconnected-(J4-Pad39)*%
X118999000Y-154897625D03*
%TO.P,J4,40,Pin_40*%
%TO.N,unconnected-(J4-Pad40)*%
X121539000Y-154897625D03*
%TD*%
D14*
%TO.P,D6,1,K*%
%TO.N,Net-(D6-Pad1)*%
X146656011Y-79740000D03*
D15*
%TO.P,D6,2,A*%
%TO.N,GND*%
X144116011Y-79740000D03*
%TD*%
D11*
%TO.P,J3,1,Pin_1*%
%TO.N,/2 3.3V*%
X281912000Y-105993937D03*
D12*
%TO.P,J3,2,Pin_2*%
%TO.N,unconnected-(J3-Pad2)*%
X284452000Y-105993937D03*
%TO.P,J3,3,Pin_3*%
%TO.N,/2 SDA 01*%
X281912000Y-108533937D03*
%TO.P,J3,4,Pin_4*%
%TO.N,VBUS*%
X284452000Y-108533937D03*
%TO.P,J3,5,Pin_5*%
%TO.N,/2 SCL 01*%
X281912000Y-111073937D03*
%TO.P,J3,6,Pin_6*%
%TO.N,GND*%
X284452000Y-111073937D03*
%TO.P,J3,7,Pin_7*%
%TO.N,/2 SDA 03*%
X281912000Y-113613937D03*
%TO.P,J3,8,Pin_8*%
%TO.N,unconnected-(J3-Pad8)*%
X284452000Y-113613937D03*
%TO.P,J3,9,Pin_9*%
%TO.N,unconnected-(J3-Pad9)*%
X281912000Y-116153937D03*
%TO.P,J3,10,Pin_10*%
%TO.N,unconnected-(J3-Pad10)*%
X284452000Y-116153937D03*
%TO.P,J3,11,Pin_11*%
%TO.N,/2 BUSY*%
X281912000Y-118693937D03*
%TO.P,J3,12,Pin_12*%
%TO.N,unconnected-(J3-Pad12)*%
X284452000Y-118693937D03*
%TO.P,J3,13,Pin_13*%
%TO.N,/2 RESET*%
X281912000Y-121233937D03*
%TO.P,J3,14,Pin_14*%
%TO.N,unconnected-(J3-Pad14)*%
X284452000Y-121233937D03*
%TO.P,J3,15,Pin_15*%
%TO.N,/2 DATA*%
X281912000Y-123773937D03*
%TO.P,J3,16,Pin_16*%
%TO.N,/2 GPIO 23*%
X284452000Y-123773937D03*
%TO.P,J3,17,Pin_17*%
%TO.N,unconnected-(J3-Pad17)*%
X281912000Y-126313937D03*
%TO.P,J3,18,Pin_18*%
%TO.N,/2 GPIO 24*%
X284452000Y-126313937D03*
%TO.P,J3,19,Pin_19*%
%TO.N,/2 SPI0 MOSI*%
X281912000Y-128853937D03*
%TO.P,J3,20,Pin_20*%
%TO.N,unconnected-(J3-Pad20)*%
X284452000Y-128853937D03*
%TO.P,J3,21,Pin_21*%
%TO.N,unconnected-(J3-Pad21)*%
X281912000Y-131393937D03*
%TO.P,J3,22,Pin_22*%
%TO.N,unconnected-(J3-Pad22)*%
X284452000Y-131393937D03*
%TO.P,J3,23,Pin_23*%
%TO.N,/2 SPI0 SCLK*%
X281912000Y-133933937D03*
%TO.P,J3,24,Pin_24*%
%TO.N,/2 CS*%
X284452000Y-133933937D03*
%TO.P,J3,25,Pin_25*%
%TO.N,unconnected-(J3-Pad25)*%
X281912000Y-136473937D03*
%TO.P,J3,26,Pin_26*%
%TO.N,unconnected-(J3-Pad26)*%
X284452000Y-136473937D03*
%TO.P,J3,27,Pin_27*%
%TO.N,unconnected-(J3-Pad27)*%
X281912000Y-139013937D03*
%TO.P,J3,28,Pin_28*%
%TO.N,unconnected-(J3-Pad28)*%
X284452000Y-139013937D03*
%TO.P,J3,29,Pin_29*%
%TO.N,/2 SCL 03*%
X281912000Y-141553937D03*
%TO.P,J3,30,Pin_30*%
%TO.N,unconnected-(J3-Pad30)*%
X284452000Y-141553937D03*
%TO.P,J3,31,Pin_31*%
%TO.N,unconnected-(J3-Pad31)*%
X281912000Y-144093937D03*
%TO.P,J3,32,Pin_32*%
%TO.N,unconnected-(J3-Pad32)*%
X284452000Y-144093937D03*
%TO.P,J3,33,Pin_33*%
%TO.N,unconnected-(J3-Pad33)*%
X281912000Y-146633937D03*
%TO.P,J3,34,Pin_34*%
%TO.N,unconnected-(J3-Pad34)*%
X284452000Y-146633937D03*
%TO.P,J3,35,Pin_35*%
%TO.N,unconnected-(J3-Pad35)*%
X281912000Y-149173937D03*
%TO.P,J3,36,Pin_36*%
%TO.N,unconnected-(J3-Pad36)*%
X284452000Y-149173937D03*
%TO.P,J3,37,Pin_37*%
%TO.N,unconnected-(J3-Pad37)*%
X281912000Y-151713937D03*
%TO.P,J3,38,Pin_38*%
%TO.N,unconnected-(J3-Pad38)*%
X284452000Y-151713937D03*
%TO.P,J3,39,Pin_39*%
%TO.N,unconnected-(J3-Pad39)*%
X281912000Y-154253937D03*
%TO.P,J3,40,Pin_40*%
%TO.N,unconnected-(J3-Pad40)*%
X284452000Y-154253937D03*
%TD*%
D11*
%TO.P,J9,1,Pin_1*%
%TO.N,unconnected-(J9-Pad1)*%
X206756001Y-154243936D03*
D12*
%TO.P,J9,2,Pin_2*%
%TO.N,VBUS*%
X204216001Y-154243936D03*
%TO.P,J9,3,Pin_3*%
%TO.N,unconnected-(J9-Pad3)*%
X206756001Y-151703936D03*
%TO.P,J9,4,Pin_4*%
%TO.N,VBUS*%
X204216001Y-151703936D03*
%TO.P,J9,5,Pin_5*%
%TO.N,unconnected-(J9-Pad5)*%
X206756001Y-149163936D03*
%TO.P,J9,6,Pin_6*%
%TO.N,GND*%
X204216001Y-149163936D03*
%TO.P,J9,7,Pin_7*%
%TO.N,unconnected-(J9-Pad7)*%
X206756001Y-146623936D03*
%TO.P,J9,8,Pin_8*%
%TO.N,unconnected-(J9-Pad8)*%
X204216001Y-146623936D03*
%TO.P,J9,9,Pin_9*%
%TO.N,unconnected-(J9-Pad9)*%
X206756001Y-144083936D03*
%TO.P,J9,10,Pin_10*%
%TO.N,unconnected-(J9-Pad10)*%
X204216001Y-144083936D03*
%TO.P,J9,11,Pin_11*%
%TO.N,unconnected-(J9-Pad11)*%
X206756001Y-141543936D03*
%TO.P,J9,12,Pin_12*%
%TO.N,unconnected-(J9-Pad12)*%
X204216001Y-141543936D03*
%TO.P,J9,13,Pin_13*%
%TO.N,unconnected-(J9-Pad13)*%
X206756001Y-139003936D03*
%TO.P,J9,14,Pin_14*%
%TO.N,unconnected-(J9-Pad14)*%
X204216001Y-139003936D03*
%TO.P,J9,15,Pin_15*%
%TO.N,unconnected-(J9-Pad15)*%
X206756001Y-136463936D03*
%TO.P,J9,16,Pin_16*%
%TO.N,/2 GPIO 23*%
X204216001Y-136463936D03*
%TO.P,J9,17,Pin_17*%
%TO.N,unconnected-(J9-Pad17)*%
X206756001Y-133923936D03*
%TO.P,J9,18,Pin_18*%
%TO.N,/2 GPIO 24*%
X204216001Y-133923936D03*
%TO.P,J9,19,Pin_19*%
%TO.N,unconnected-(J9-Pad19)*%
X206756001Y-131383936D03*
%TO.P,J9,20,Pin_20*%
%TO.N,unconnected-(J9-Pad20)*%
X204216001Y-131383936D03*
%TO.P,J9,21,Pin_21*%
%TO.N,unconnected-(J9-Pad21)*%
X206756001Y-128843936D03*
%TO.P,J9,22,Pin_22*%
%TO.N,unconnected-(J9-Pad22)*%
X204216001Y-128843936D03*
%TO.P,J9,23,Pin_23*%
%TO.N,unconnected-(J9-Pad23)*%
X206756001Y-126303936D03*
%TO.P,J9,24,Pin_24*%
%TO.N,unconnected-(J9-Pad24)*%
X204216001Y-126303936D03*
%TO.P,J9,25,Pin_25*%
%TO.N,unconnected-(J9-Pad25)*%
X206756001Y-123763936D03*
%TO.P,J9,26,Pin_26*%
%TO.N,unconnected-(J9-Pad26)*%
X204216001Y-123763936D03*
%TO.P,J9,27,Pin_27*%
%TO.N,unconnected-(J9-Pad27)*%
X206756001Y-121223936D03*
%TO.P,J9,28,Pin_28*%
%TO.N,unconnected-(J9-Pad28)*%
X204216001Y-121223936D03*
%TO.P,J9,29,Pin_29*%
%TO.N,unconnected-(J9-Pad29)*%
X206756001Y-118683936D03*
%TO.P,J9,30,Pin_30*%
%TO.N,unconnected-(J9-Pad30)*%
X204216001Y-118683936D03*
%TO.P,J9,31,Pin_31*%
%TO.N,unconnected-(J9-Pad31)*%
X206756001Y-116143936D03*
%TO.P,J9,32,Pin_32*%
%TO.N,unconnected-(J9-Pad32)*%
X204216001Y-116143936D03*
%TO.P,J9,33,Pin_33*%
%TO.N,unconnected-(J9-Pad33)*%
X206756001Y-113603936D03*
%TO.P,J9,34,Pin_34*%
%TO.N,unconnected-(J9-Pad34)*%
X204216001Y-113603936D03*
%TO.P,J9,35,Pin_35*%
%TO.N,unconnected-(J9-Pad35)*%
X206756001Y-111063936D03*
%TO.P,J9,36,Pin_36*%
%TO.N,unconnected-(J9-Pad36)*%
X204216001Y-111063936D03*
%TO.P,J9,37,Pin_37*%
%TO.N,unconnected-(J9-Pad37)*%
X206756001Y-108523936D03*
%TO.P,J9,38,Pin_38*%
%TO.N,unconnected-(J9-Pad38)*%
X204216001Y-108523936D03*
%TO.P,J9,39,Pin_39*%
%TO.N,unconnected-(J9-Pad39)*%
X206756001Y-105983936D03*
%TO.P,J9,40,Pin_40*%
%TO.N,unconnected-(J9-Pad40)*%
X204216001Y-105983936D03*
%TD*%
D16*
%TO.P,R6,1*%
%TO.N,VBUS*%
X139031011Y-73756000D03*
D17*
%TO.P,R6,2*%
%TO.N,Net-(D6-Pad1)*%
X151731011Y-73756000D03*
%TD*%
D10*
%TO.P,S4,1,ON*%
%TO.N,Net-(R7-Pad2)*%
X161714236Y-58483499D03*
%TO.P,S4,2,COM*%
%TO.N,VBUS*%
X161714236Y-63183499D03*
%TO.P,S4,3,ON*%
X161714236Y-67883499D03*
%TD*%
D16*
%TO.P,R11,1*%
%TO.N,VBUS*%
X90864025Y-73756000D03*
D17*
%TO.P,R11,2*%
%TO.N,Net-(D11-Pad1)*%
X103564025Y-73756000D03*
%TD*%
D14*
%TO.P,D5,1,K*%
%TO.N,GND*%
X130600349Y-46754000D03*
D15*
%TO.P,D5,2,A*%
%TO.N,Net-(D5-Pad2)*%
X128060349Y-46754000D03*
%TD*%
D14*
%TO.P,D2,1,K*%
%TO.N,Net-(D2-Pad1)*%
X114544687Y-79740000D03*
D15*
%TO.P,D2,2,A*%
%TO.N,GND*%
X112004687Y-79740000D03*
%TD*%
D11*
%TO.P,J10,1,Pin_1*%
%TO.N,Net-(J10-Pad1)*%
X239728000Y-226827000D03*
D12*
%TO.P,J10,2,Pin_2*%
%TO.N,Net-(J10-Pad2)*%
X237188000Y-226827000D03*
%TO.P,J10,3,Pin_3*%
%TO.N,Net-(J10-Pad3)*%
X239728000Y-224287000D03*
%TO.P,J10,4,Pin_4*%
%TO.N,Net-(J10-Pad4)*%
X237188000Y-224287000D03*
%TD*%
D16*
%TO.P,R7,1*%
%TO.N,Net-(D7-Pad2)*%
X155086673Y-52695666D03*
D17*
%TO.P,R7,2*%
%TO.N,Net-(R7-Pad2)*%
X167786673Y-52695666D03*
%TD*%
D16*
%TO.P,R8,1*%
%TO.N,VBUS*%
X155086673Y-73671332D03*
D17*
%TO.P,R8,2*%
%TO.N,Net-(D9-Pad1)*%
X167786673Y-73671332D03*
%TD*%
D14*
%TO.P,D4,1,K*%
%TO.N,Net-(D4-Pad1)*%
X130600349Y-79740000D03*
D15*
%TO.P,D4,2,A*%
%TO.N,GND*%
X128060349Y-79740000D03*
%TD*%
D14*
%TO.P,D3,1,K*%
%TO.N,GND*%
X146656011Y-46754000D03*
D15*
%TO.P,D3,2,A*%
%TO.N,Net-(D3-Pad2)*%
X144116011Y-46754000D03*
%TD*%
D11*
%TO.P,J14,1,Pin_1*%
%TO.N,Net-(J14-Pad1)*%
X172974000Y-227965000D03*
D12*
%TO.P,J14,2,Pin_2*%
%TO.N,Net-(J14-Pad2)*%
X170434000Y-227965000D03*
%TO.P,J14,3,Pin_3*%
%TO.N,Net-(J14-Pad3)*%
X172974000Y-225425000D03*
%TO.P,J14,4,Pin_4*%
%TO.N,Net-(J14-Pad4)*%
X170434000Y-225425000D03*
%TD*%
D14*
%TO.P,D11,1,K*%
%TO.N,Net-(D11-Pad1)*%
X98489025Y-79740000D03*
D15*
%TO.P,D11,2,A*%
%TO.N,GND*%
X95949025Y-79740000D03*
%TD*%
D11*
%TO.P,J6,1,Pin_1*%
%TO.N,/2 3.3V*%
X239702000Y-154243937D03*
D12*
%TO.P,J6,2,Pin_2*%
%TO.N,VBUS*%
X237162000Y-154243937D03*
%TO.P,J6,3,Pin_3*%
%TO.N,/2 SDA 01*%
X239702000Y-151703937D03*
%TO.P,J6,4,Pin_4*%
%TO.N,unconnected-(J6-Pad4)*%
X237162000Y-151703937D03*
%TO.P,J6,5,Pin_5*%
%TO.N,/2 SCL 01*%
X239702000Y-149163937D03*
%TO.P,J6,6,Pin_6*%
%TO.N,GND*%
X237162000Y-149163937D03*
%TO.P,J6,7,Pin_7*%
%TO.N,unconnected-(J6-Pad7)*%
X239702000Y-146623937D03*
%TO.P,J6,8,Pin_8*%
%TO.N,unconnected-(J6-Pad8)*%
X237162000Y-146623937D03*
%TO.P,J6,9,Pin_9*%
%TO.N,unconnected-(J6-Pad9)*%
X239702000Y-144083937D03*
%TO.P,J6,10,Pin_10*%
%TO.N,unconnected-(J6-Pad10)*%
X237162000Y-144083937D03*
%TO.P,J6,11,Pin_11*%
%TO.N,/2 BUSY*%
X239702000Y-141543937D03*
%TO.P,J6,12,Pin_12*%
%TO.N,unconnected-(J6-Pad12)*%
X237162000Y-141543937D03*
%TO.P,J6,13,Pin_13*%
%TO.N,/2 RESET*%
X239702000Y-139003937D03*
%TO.P,J6,14,Pin_14*%
%TO.N,unconnected-(J6-Pad14)*%
X237162000Y-139003937D03*
%TO.P,J6,15,Pin_15*%
%TO.N,/2 DATA*%
X239702000Y-136463937D03*
%TO.P,J6,16,Pin_16*%
%TO.N,unconnected-(J6-Pad16)*%
X237162000Y-136463937D03*
%TO.P,J6,17,Pin_17*%
%TO.N,unconnected-(J6-Pad17)*%
X239702000Y-133923937D03*
%TO.P,J6,18,Pin_18*%
%TO.N,unconnected-(J6-Pad18)*%
X237162000Y-133923937D03*
%TO.P,J6,19,Pin_19*%
%TO.N,/2 SPI0 MOSI*%
X239702000Y-131383937D03*
%TO.P,J6,20,Pin_20*%
%TO.N,unconnected-(J6-Pad20)*%
X237162000Y-131383937D03*
%TO.P,J6,21,Pin_21*%
%TO.N,unconnected-(J6-Pad21)*%
X239702000Y-128843937D03*
%TO.P,J6,22,Pin_22*%
%TO.N,unconnected-(J6-Pad22)*%
X237162000Y-128843937D03*
%TO.P,J6,23,Pin_23*%
%TO.N,/2 SPI0 SCLK*%
X239702000Y-126303937D03*
%TO.P,J6,24,Pin_24*%
%TO.N,/2 CS*%
X237162000Y-126303937D03*
%TO.P,J6,25,Pin_25*%
%TO.N,unconnected-(J6-Pad25)*%
X239702000Y-123763937D03*
%TO.P,J6,26,Pin_26*%
%TO.N,unconnected-(J6-Pad26)*%
X237162000Y-123763937D03*
%TO.P,J6,27,Pin_27*%
%TO.N,unconnected-(J6-Pad27)*%
X239702000Y-121223937D03*
%TO.P,J6,28,Pin_28*%
%TO.N,unconnected-(J6-Pad28)*%
X237162000Y-121223937D03*
%TO.P,J6,29,Pin_29*%
%TO.N,unconnected-(J6-Pad29)*%
X239702000Y-118683937D03*
%TO.P,J6,30,Pin_30*%
%TO.N,unconnected-(J6-Pad30)*%
X237162000Y-118683937D03*
%TO.P,J6,31,Pin_31*%
%TO.N,unconnected-(J6-Pad31)*%
X239702000Y-116143937D03*
%TO.P,J6,32,Pin_32*%
%TO.N,unconnected-(J6-Pad32)*%
X237162000Y-116143937D03*
%TO.P,J6,33,Pin_33*%
%TO.N,unconnected-(J6-Pad33)*%
X239702000Y-113603937D03*
%TO.P,J6,34,Pin_34*%
%TO.N,unconnected-(J6-Pad34)*%
X237162000Y-113603937D03*
%TO.P,J6,35,Pin_35*%
%TO.N,unconnected-(J6-Pad35)*%
X239702000Y-111063937D03*
%TO.P,J6,36,Pin_36*%
%TO.N,unconnected-(J6-Pad36)*%
X237162000Y-111063937D03*
%TO.P,J6,37,Pin_37*%
%TO.N,unconnected-(J6-Pad37)*%
X239702000Y-108523937D03*
%TO.P,J6,38,Pin_38*%
%TO.N,unconnected-(J6-Pad38)*%
X237162000Y-108523937D03*
%TO.P,J6,39,Pin_39*%
%TO.N,unconnected-(J6-Pad39)*%
X239702000Y-105983937D03*
%TO.P,J6,40,Pin_40*%
%TO.N,unconnected-(J6-Pad40)*%
X237162000Y-105983937D03*
%TD*%
D16*
%TO.P,R12,1*%
%TO.N,VBUS*%
X171142335Y-73671332D03*
D17*
%TO.P,R12,2*%
%TO.N,Net-(D13-Pad1)*%
X183842335Y-73671332D03*
%TD*%
D16*
%TO.P,R10,1*%
%TO.N,Net-(D10-Pad2)*%
X171142335Y-52695666D03*
D17*
%TO.P,R10,2*%
%TO.N,Net-(R10-Pad2)*%
X183842335Y-52695666D03*
%TD*%
D12*
%TO.P,U4,43,SWDIO*%
%TO.N,Net-(J14-Pad1)*%
X156337000Y-171553000D03*
D11*
%TO.P,U4,42,GND*%
%TO.N,GND*%
X158877000Y-171553000D03*
D12*
%TO.P,U4,41,SWCLK*%
%TO.N,Net-(J14-Pad2)*%
X161417000Y-171553000D03*
%TO.P,U4,40,VBUS*%
%TO.N,VBUS*%
X149987000Y-219583000D03*
%TO.P,U4,39,VSYS*%
%TO.N,unconnected-(U4-Pad39)*%
X149987000Y-217043000D03*
D11*
%TO.P,U4,38,GND*%
%TO.N,Net-(J15-Pad6)*%
X149987000Y-214503000D03*
D12*
%TO.P,U4,37,3V3_EN*%
%TO.N,Net-(J15-Pad1)*%
X149987000Y-211963000D03*
%TO.P,U4,36,3V3*%
%TO.N,unconnected-(U4-Pad36)*%
X149987000Y-209423000D03*
%TO.P,U4,35,ADC_VREF*%
%TO.N,unconnected-(U4-Pad35)*%
X149987000Y-206883000D03*
%TO.P,U4,34,GPIO28_ADC2*%
%TO.N,unconnected-(U4-Pad34)*%
X149987000Y-204343000D03*
D11*
%TO.P,U4,33,AGND*%
%TO.N,unconnected-(U4-Pad33)*%
X149987000Y-201803000D03*
D12*
%TO.P,U4,32,GPIO27_ADC1*%
%TO.N,unconnected-(U4-Pad32)*%
X149987000Y-199263000D03*
%TO.P,U4,31,GPIO26_ADC0*%
%TO.N,unconnected-(U4-Pad31)*%
X149987000Y-196723000D03*
%TO.P,U4,30,RUN*%
%TO.N,unconnected-(U4-Pad30)*%
X149987000Y-194183000D03*
%TO.P,U4,29,GPIO22*%
%TO.N,unconnected-(U4-Pad29)*%
X149987000Y-191643000D03*
D11*
%TO.P,U4,28,GND*%
%TO.N,unconnected-(U4-Pad28)*%
X149987000Y-189103000D03*
D12*
%TO.P,U4,27,GPIO21*%
%TO.N,unconnected-(U4-Pad27)*%
X149987000Y-186563000D03*
%TO.P,U4,26,GPIO20*%
%TO.N,unconnected-(U4-Pad26)*%
X149987000Y-184023000D03*
%TO.P,U4,25,GPIO19*%
%TO.N,unconnected-(U4-Pad25)*%
X149987000Y-181483000D03*
%TO.P,U4,24,GPIO18*%
%TO.N,unconnected-(U4-Pad24)*%
X149987000Y-178943000D03*
D11*
%TO.P,U4,23,GND*%
%TO.N,unconnected-(U4-Pad23)*%
X149987000Y-176403000D03*
D12*
%TO.P,U4,22,GPIO17*%
%TO.N,Net-(J15-Pad3)*%
X149987000Y-173863000D03*
%TO.P,U4,21,GPIO16*%
%TO.N,Net-(J15-Pad5)*%
X149987000Y-171323000D03*
%TO.P,U4,20,GPIO15*%
%TO.N,unconnected-(U4-Pad20)*%
X167767000Y-171323000D03*
%TO.P,U4,19,GPIO14*%
%TO.N,unconnected-(U4-Pad19)*%
X167767000Y-173863000D03*
D11*
%TO.P,U4,18,GND*%
%TO.N,unconnected-(U4-Pad18)*%
X167767000Y-176403000D03*
D12*
%TO.P,U4,17,GPIO13*%
%TO.N,unconnected-(U4-Pad17)*%
X167767000Y-178943000D03*
%TO.P,U4,16,GPIO12*%
%TO.N,unconnected-(U4-Pad16)*%
X167767000Y-181483000D03*
%TO.P,U4,15,GPIO11*%
%TO.N,unconnected-(U4-Pad15)*%
X167767000Y-184023000D03*
%TO.P,U4,14,GPIO10*%
%TO.N,unconnected-(U4-Pad14)*%
X167767000Y-186563000D03*
D11*
%TO.P,U4,13,GND*%
%TO.N,unconnected-(U4-Pad13)*%
X167767000Y-189103000D03*
D12*
%TO.P,U4,12,GPIO9*%
%TO.N,unconnected-(U4-Pad12)*%
X167767000Y-191643000D03*
%TO.P,U4,11,GPIO8*%
%TO.N,unconnected-(U4-Pad11)*%
X167767000Y-194183000D03*
%TO.P,U4,10,GPIO7*%
%TO.N,unconnected-(U4-Pad10)*%
X167767000Y-196723000D03*
%TO.P,U4,9,GPIO6*%
%TO.N,unconnected-(U4-Pad9)*%
X167767000Y-199263000D03*
D11*
%TO.P,U4,8,GND*%
%TO.N,unconnected-(U4-Pad8)*%
X167767000Y-201803000D03*
D12*
%TO.P,U4,7,GPIO5*%
%TO.N,unconnected-(U4-Pad7)*%
X167767000Y-204343000D03*
%TO.P,U4,6,GPIO4*%
%TO.N,unconnected-(U4-Pad6)*%
X167767000Y-206883000D03*
%TO.P,U4,5,GPIO3*%
%TO.N,unconnected-(U4-Pad5)*%
X167767000Y-209423000D03*
%TO.P,U4,4,GPIO2*%
%TO.N,unconnected-(U4-Pad4)*%
X167767000Y-211963000D03*
D11*
%TO.P,U4,3,GND*%
%TO.N,GND*%
X167767000Y-214503000D03*
D12*
%TO.P,U4,2,GPIO1*%
%TO.N,Net-(J14-Pad3)*%
X167767000Y-217043000D03*
%TO.P,U4,1,GPIO0*%
%TO.N,Net-(J14-Pad4)*%
X167767000Y-219583000D03*
%TD*%
D11*
%TO.P,J5,1,Pin_1*%
%TO.N,/2 3.3V*%
X272316000Y-154243937D03*
D12*
%TO.P,J5,2,Pin_2*%
%TO.N,VBUS*%
X269776000Y-154243937D03*
%TO.P,J5,3,Pin_3*%
%TO.N,/2 SDA 03*%
X272316000Y-151703937D03*
%TO.P,J5,4,Pin_4*%
%TO.N,unconnected-(J5-Pad4)*%
X269776000Y-151703937D03*
%TO.P,J5,5,Pin_5*%
%TO.N,/2 SCL 03*%
X272316000Y-149163937D03*
%TO.P,J5,6,Pin_6*%
%TO.N,GND*%
X269776000Y-149163937D03*
%TO.P,J5,7,Pin_7*%
%TO.N,unconnected-(J5-Pad7)*%
X272316000Y-146623937D03*
%TO.P,J5,8,Pin_8*%
%TO.N,unconnected-(J5-Pad8)*%
X269776000Y-146623937D03*
%TO.P,J5,9,Pin_9*%
%TO.N,unconnected-(J5-Pad9)*%
X272316000Y-144083937D03*
%TO.P,J5,10,Pin_10*%
%TO.N,unconnected-(J5-Pad10)*%
X269776000Y-144083937D03*
%TO.P,J5,11,Pin_11*%
%TO.N,unconnected-(J5-Pad11)*%
X272316000Y-141543937D03*
%TO.P,J5,12,Pin_12*%
%TO.N,unconnected-(J5-Pad12)*%
X269776000Y-141543937D03*
%TO.P,J5,13,Pin_13*%
%TO.N,unconnected-(J5-Pad13)*%
X272316000Y-139003937D03*
%TO.P,J5,14,Pin_14*%
%TO.N,unconnected-(J5-Pad14)*%
X269776000Y-139003937D03*
%TO.P,J5,15,Pin_15*%
%TO.N,unconnected-(J5-Pad15)*%
X272316000Y-136463937D03*
%TO.P,J5,16,Pin_16*%
%TO.N,unconnected-(J5-Pad16)*%
X269776000Y-136463937D03*
%TO.P,J5,17,Pin_17*%
%TO.N,unconnected-(J5-Pad17)*%
X272316000Y-133923937D03*
%TO.P,J5,18,Pin_18*%
%TO.N,unconnected-(J5-Pad18)*%
X269776000Y-133923937D03*
%TO.P,J5,19,Pin_19*%
%TO.N,unconnected-(J5-Pad19)*%
X272316000Y-131383937D03*
%TO.P,J5,20,Pin_20*%
%TO.N,unconnected-(J5-Pad20)*%
X269776000Y-131383937D03*
%TO.P,J5,21,Pin_21*%
%TO.N,unconnected-(J5-Pad21)*%
X272316000Y-128843937D03*
%TO.P,J5,22,Pin_22*%
%TO.N,unconnected-(J5-Pad22)*%
X269776000Y-128843937D03*
%TO.P,J5,23,Pin_23*%
%TO.N,unconnected-(J5-Pad23)*%
X272316000Y-126303937D03*
%TO.P,J5,24,Pin_24*%
%TO.N,unconnected-(J5-Pad24)*%
X269776000Y-126303937D03*
%TO.P,J5,25,Pin_25*%
%TO.N,unconnected-(J5-Pad25)*%
X272316000Y-123763937D03*
%TO.P,J5,26,Pin_26*%
%TO.N,unconnected-(J5-Pad26)*%
X269776000Y-123763937D03*
%TO.P,J5,27,Pin_27*%
%TO.N,unconnected-(J5-Pad27)*%
X272316000Y-121223937D03*
%TO.P,J5,28,Pin_28*%
%TO.N,unconnected-(J5-Pad28)*%
X269776000Y-121223937D03*
%TO.P,J5,29,Pin_29*%
%TO.N,unconnected-(J5-Pad29)*%
X272316000Y-118683937D03*
%TO.P,J5,30,Pin_30*%
%TO.N,unconnected-(J5-Pad30)*%
X269776000Y-118683937D03*
%TO.P,J5,31,Pin_31*%
%TO.N,unconnected-(J5-Pad31)*%
X272316000Y-116143937D03*
%TO.P,J5,32,Pin_32*%
%TO.N,unconnected-(J5-Pad32)*%
X269776000Y-116143937D03*
%TO.P,J5,33,Pin_33*%
%TO.N,unconnected-(J5-Pad33)*%
X272316000Y-113603937D03*
%TO.P,J5,34,Pin_34*%
%TO.N,unconnected-(J5-Pad34)*%
X269776000Y-113603937D03*
%TO.P,J5,35,Pin_35*%
%TO.N,unconnected-(J5-Pad35)*%
X272316000Y-111063937D03*
%TO.P,J5,36,Pin_36*%
%TO.N,unconnected-(J5-Pad36)*%
X269776000Y-111063937D03*
%TO.P,J5,37,Pin_37*%
%TO.N,unconnected-(J5-Pad37)*%
X272316000Y-108523937D03*
%TO.P,J5,38,Pin_38*%
%TO.N,unconnected-(J5-Pad38)*%
X269776000Y-108523937D03*
%TO.P,J5,39,Pin_39*%
%TO.N,unconnected-(J5-Pad39)*%
X272316000Y-105983937D03*
%TO.P,J5,40,Pin_40*%
%TO.N,unconnected-(J5-Pad40)*%
X269776000Y-105983937D03*
%TD*%
D14*
%TO.P,D1,1,K*%
%TO.N,GND*%
X114544687Y-46754000D03*
D15*
%TO.P,D1,2,A*%
%TO.N,Net-(D1-Pad2)*%
X112004687Y-46754000D03*
%TD*%
D10*
%TO.P,S3,1,ON*%
%TO.N,Net-(R5-Pad2)*%
X129680393Y-58547000D03*
%TO.P,S3,2,COM*%
%TO.N,VBUS*%
X129680393Y-63247000D03*
%TO.P,S3,3,ON*%
X129680393Y-67947000D03*
%TD*%
D18*
%TO.P,J1,1*%
%TO.N,GND*%
X83687613Y-55826700D03*
D19*
%TO.P,J1,2*%
%TO.N,VBUS*%
X83687613Y-50026700D03*
D20*
%TO.P,J1,3*%
%TO.N,N/C*%
X78887613Y-52826700D03*
%TD*%
D16*
%TO.P,R1,1*%
%TO.N,Net-(D1-Pad2)*%
X106919687Y-52738000D03*
D17*
%TO.P,R1,2*%
%TO.N,Net-(R1-Pad2)*%
X119619687Y-52738000D03*
%TD*%
D12*
%TO.P,U1,1,GPIO0*%
%TO.N,Net-(J10-Pad4)*%
X235532000Y-218059000D03*
%TO.P,U1,2,GPIO1*%
%TO.N,Net-(J10-Pad3)*%
X235532000Y-215519000D03*
D11*
%TO.P,U1,3,GND*%
%TO.N,GND*%
X235532000Y-212979000D03*
D12*
%TO.P,U1,4,GPIO2*%
%TO.N,unconnected-(U1-Pad4)*%
X235532000Y-210439000D03*
%TO.P,U1,5,GPIO3*%
%TO.N,unconnected-(U1-Pad5)*%
X235532000Y-207899000D03*
%TO.P,U1,6,GPIO4*%
%TO.N,unconnected-(U1-Pad6)*%
X235532000Y-205359000D03*
%TO.P,U1,7,GPIO5*%
%TO.N,unconnected-(U1-Pad7)*%
X235532000Y-202819000D03*
D11*
%TO.P,U1,8,GND*%
%TO.N,unconnected-(U1-Pad8)*%
X235532000Y-200279000D03*
D12*
%TO.P,U1,9,GPIO6*%
%TO.N,unconnected-(U1-Pad9)*%
X235532000Y-197739000D03*
%TO.P,U1,10,GPIO7*%
%TO.N,unconnected-(U1-Pad10)*%
X235532000Y-195199000D03*
%TO.P,U1,11,GPIO8*%
%TO.N,unconnected-(U1-Pad11)*%
X235532000Y-192659000D03*
%TO.P,U1,12,GPIO9*%
%TO.N,unconnected-(U1-Pad12)*%
X235532000Y-190119000D03*
D11*
%TO.P,U1,13,GND*%
%TO.N,unconnected-(U1-Pad13)*%
X235532000Y-187579000D03*
D12*
%TO.P,U1,14,GPIO10*%
%TO.N,unconnected-(U1-Pad14)*%
X235532000Y-185039000D03*
%TO.P,U1,15,GPIO11*%
%TO.N,unconnected-(U1-Pad15)*%
X235532000Y-182499000D03*
%TO.P,U1,16,GPIO12*%
%TO.N,unconnected-(U1-Pad16)*%
X235532000Y-179959000D03*
%TO.P,U1,17,GPIO13*%
%TO.N,unconnected-(U1-Pad17)*%
X235532000Y-177419000D03*
D11*
%TO.P,U1,18,GND*%
%TO.N,unconnected-(U1-Pad18)*%
X235532000Y-174879000D03*
D12*
%TO.P,U1,19,GPIO14*%
%TO.N,unconnected-(U1-Pad19)*%
X235532000Y-172339000D03*
%TO.P,U1,20,GPIO15*%
%TO.N,Net-(S7-Pad3)*%
X235532000Y-169799000D03*
%TO.P,U1,21,GPIO16*%
%TO.N,Net-(J11-Pad2)*%
X217752000Y-169799000D03*
%TO.P,U1,22,GPIO17*%
%TO.N,Net-(J11-Pad1)*%
X217752000Y-172339000D03*
D11*
%TO.P,U1,23,GND*%
%TO.N,unconnected-(U1-Pad23)*%
X217752000Y-174879000D03*
D12*
%TO.P,U1,24,GPIO18*%
%TO.N,unconnected-(U1-Pad24)*%
X217752000Y-177419000D03*
%TO.P,U1,25,GPIO19*%
%TO.N,unconnected-(U1-Pad25)*%
X217752000Y-179959000D03*
%TO.P,U1,26,GPIO20*%
%TO.N,unconnected-(U1-Pad26)*%
X217752000Y-182499000D03*
%TO.P,U1,27,GPIO21*%
%TO.N,unconnected-(U1-Pad27)*%
X217752000Y-185039000D03*
D11*
%TO.P,U1,28,GND*%
%TO.N,unconnected-(U1-Pad28)*%
X217752000Y-187579000D03*
D12*
%TO.P,U1,29,GPIO22*%
%TO.N,unconnected-(U1-Pad29)*%
X217752000Y-190119000D03*
%TO.P,U1,30,RUN*%
%TO.N,unconnected-(U1-Pad30)*%
X217752000Y-192659000D03*
%TO.P,U1,31,GPIO26_ADC0*%
%TO.N,unconnected-(U1-Pad31)*%
X217752000Y-195199000D03*
%TO.P,U1,32,GPIO27_ADC1*%
%TO.N,unconnected-(U1-Pad32)*%
X217752000Y-197739000D03*
D11*
%TO.P,U1,33,AGND*%
%TO.N,unconnected-(U1-Pad33)*%
X217752000Y-200279000D03*
D12*
%TO.P,U1,34,GPIO28_ADC2*%
%TO.N,unconnected-(U1-Pad34)*%
X217752000Y-202819000D03*
%TO.P,U1,35,ADC_VREF*%
%TO.N,unconnected-(U1-Pad35)*%
X217752000Y-205359000D03*
%TO.P,U1,36,3V3*%
%TO.N,unconnected-(U1-Pad36)*%
X217752000Y-207899000D03*
%TO.P,U1,37,3V3_EN*%
%TO.N,unconnected-(U1-Pad37)*%
X217752000Y-210439000D03*
D11*
%TO.P,U1,38,GND*%
%TO.N,Net-(J11-Pad3)*%
X217752000Y-212979000D03*
D12*
%TO.P,U1,39,VSYS*%
%TO.N,unconnected-(U1-Pad39)*%
X217752000Y-215519000D03*
%TO.P,U1,40,VBUS*%
%TO.N,VBUS*%
X217752000Y-218059000D03*
%TO.P,U1,41,SWCLK*%
%TO.N,Net-(J10-Pad2)*%
X229182000Y-170029000D03*
D11*
%TO.P,U1,42,GND*%
%TO.N,GND*%
X226642000Y-170029000D03*
D12*
%TO.P,U1,43,SWDIO*%
%TO.N,Net-(J10-Pad1)*%
X224102000Y-170029000D03*
%TD*%
D14*
%TO.P,D8,1,K*%
%TO.N,GND*%
X98489025Y-46754000D03*
D15*
%TO.P,D8,2,A*%
%TO.N,Net-(D8-Pad2)*%
X95949025Y-46754000D03*
%TD*%
D14*
%TO.P,D7,1,K*%
%TO.N,GND*%
X162711673Y-46732833D03*
D15*
%TO.P,D7,2,A*%
%TO.N,Net-(D7-Pad2)*%
X160171673Y-46732833D03*
%TD*%
D10*
%TO.P,S5,1,ON*%
%TO.N,Net-(R9-Pad2)*%
X97451000Y-58547000D03*
%TO.P,S5,2,COM*%
%TO.N,VBUS*%
X97451000Y-63247000D03*
%TO.P,S5,3,ON*%
X97451000Y-67947000D03*
%TD*%
%TO.P,S1,1,ON*%
%TO.N,Net-(R1-Pad2)*%
X113544762Y-58547000D03*
%TO.P,S1,2,COM*%
%TO.N,VBUS*%
X113544762Y-63247000D03*
%TO.P,S1,3,ON*%
X113544762Y-67947000D03*
%TD*%
%TO.P,S6,1,ON*%
%TO.N,Net-(R10-Pad2)*%
X177742298Y-58483499D03*
%TO.P,S6,2,COM*%
%TO.N,VBUS*%
X177742298Y-63183499D03*
%TO.P,S6,3,ON*%
X177742298Y-67883499D03*
%TD*%
D14*
%TO.P,D9,1,K*%
%TO.N,Net-(D9-Pad1)*%
X162711673Y-79634165D03*
D15*
%TO.P,D9,2,A*%
%TO.N,GND*%
X160171673Y-79634165D03*
%TD*%
D11*
%TO.P,J11,1,Pin_1*%
%TO.N,Net-(J11-Pad1)*%
X245438000Y-188346000D03*
D12*
%TO.P,J11,2,Pin_2*%
%TO.N,Net-(J11-Pad2)*%
X245438000Y-190886000D03*
%TO.P,J11,3,Pin_3*%
%TO.N,Net-(J11-Pad3)*%
X245438000Y-193426000D03*
%TO.P,J11,4,Pin_4*%
%TO.N,VBUS*%
X245438000Y-195966000D03*
%TO.P,J11,5,Pin_5*%
X245438000Y-198506000D03*
%TD*%
D16*
%TO.P,R5,1*%
%TO.N,Net-(D5-Pad2)*%
X122975349Y-52738000D03*
D17*
%TO.P,R5,2*%
%TO.N,Net-(R5-Pad2)*%
X135675349Y-52738000D03*
%TD*%
D21*
%TO.N,GND*%
X261112000Y-96393000D03*
X261112000Y-167259000D03*
D22*
%TO.N,Net-(J15-Pad3)*%
X171577000Y-183261000D03*
%TO.N,Net-(J15-Pad5)*%
X172466000Y-177038000D03*
%TO.N,Net-(J15-Pad1)*%
X183261000Y-210693000D03*
%TO.N,Net-(J15-Pad6)*%
X189357000Y-215773000D03*
X152019000Y-214503000D03*
%TO.N,Net-(J15-Pad1)*%
X152019000Y-211963000D03*
%TO.N,Net-(J7-Pad2)*%
X113665000Y-218567000D03*
%TO.N,Net-(J7-Pad1)*%
X111125000Y-218567000D03*
D21*
%TO.N,VBUS*%
X169418000Y-86106000D03*
X153416000Y-86106000D03*
X137414000Y-86106000D03*
%TO.N,GND*%
X197739000Y-96815875D03*
X197739000Y-105578875D03*
D22*
%TO.N,/2 CS*%
X234442000Y-164887875D03*
%TO.N,/2 DATA*%
X245110000Y-161077875D03*
D21*
%TO.N,GND*%
X234799600Y-102646375D03*
D22*
%TO.N,/2 RESET*%
X244348000Y-160315875D03*
%TO.N,/2 BUSY*%
X243586000Y-159553875D03*
%TO.N,/2 SDA 03*%
X272415000Y-158791875D03*
%TO.N,/2 SCL 01*%
X242697000Y-158029875D03*
%TO.N,/2 SDA 01*%
X241935000Y-157267875D03*
%TO.N,/2 SPI0 SCLK*%
X247015000Y-164125875D03*
%TO.N,/2 SPI0 MOSI*%
X245999000Y-163363875D03*
D21*
%TO.N,GND*%
X287544795Y-97142375D03*
X267462000Y-97184975D03*
D22*
%TO.N,/2 SCL 03*%
X272415000Y-165735000D03*
D21*
%TO.N,GND*%
X287528000Y-102784875D03*
X234799600Y-97173475D03*
X267462000Y-101346000D03*
%TO.N,VBUS*%
X200660000Y-104181875D03*
%TO.N,GND*%
X201906600Y-97173475D03*
%TO.N,VBUS*%
X190754000Y-156886875D03*
D22*
%TO.N,GND*%
X142113000Y-83693000D03*
X109982000Y-83693000D03*
X116459000Y-83693000D03*
D21*
X123952000Y-163883775D03*
D22*
X132588000Y-83693000D03*
X158115000Y-83693000D03*
X174244000Y-83693000D03*
X148590000Y-83693000D03*
D21*
X123952000Y-158410875D03*
D22*
X125984000Y-83693000D03*
X164719000Y-83693000D03*
X100457000Y-83693000D03*
D21*
X156614400Y-158422375D03*
X189507400Y-163895275D03*
X103886000Y-158283875D03*
X103869205Y-163926375D03*
X156614400Y-163895275D03*
D22*
%TO.N,/1 SDA 01*%
X149479000Y-103800875D03*
%TO.N,/1 SCL 01*%
X148717000Y-103038875D03*
%TO.N,/1 SDA 03*%
X118999000Y-102276875D03*
%TO.N,/1 BUSY*%
X147828000Y-101514875D03*
%TO.N,/1 RESET*%
X147066000Y-100752875D03*
%TO.N,/1 DATA*%
X146304000Y-99990875D03*
%TO.N,/1 CS*%
X156972000Y-96180875D03*
%TO.N,/1 SCL 03*%
X118999000Y-95291875D03*
%TO.N,/1 SPI0 MOSI*%
X145415000Y-97704875D03*
%TO.N,/1 SPI0 SCLK*%
X144399000Y-96942875D03*
%TO.N,Net-(R1-Pad2)*%
X116713000Y-58547000D03*
X121285000Y-52705000D03*
%TO.N,Net-(R3-Pad2)*%
X148844000Y-58547000D03*
X153416000Y-52705000D03*
%TO.N,Net-(R5-Pad2)*%
X132842000Y-58547000D03*
X137414000Y-52705000D03*
%TO.N,Net-(R7-Pad2)*%
X164973000Y-58547000D03*
X169545000Y-52705000D03*
%TO.N,Net-(R9-Pad2)*%
X100711000Y-58547000D03*
X105283000Y-52705000D03*
%TO.N,Net-(R10-Pad2)*%
X185547000Y-52705000D03*
X180975000Y-58547000D03*
%TD*%
D23*
%TO.N,Net-(J7-Pad2)*%
X113665000Y-218567000D02*
X107569000Y-212471000D01*
X107569000Y-212471000D02*
X102870000Y-212471000D01*
X102870000Y-212471000D02*
X97155000Y-206756000D01*
X97155000Y-206756000D02*
X97155000Y-175744000D01*
%TO.N,Net-(J7-Pad1)*%
X111125000Y-218567000D02*
X107569000Y-215011000D01*
X107569000Y-215011000D02*
X102870000Y-215011000D01*
X102870000Y-215011000D02*
X92075000Y-204216000D01*
X92075000Y-204216000D02*
X92075000Y-175744000D01*
D24*
%TO.N,GND*%
X267462000Y-101346000D02*
X267462000Y-97184975D01*
D23*
%TO.N,/2 SDA 03*%
X272415000Y-158791875D02*
X271018000Y-157394875D01*
X271018000Y-157394875D02*
X271018000Y-153288125D01*
X271018000Y-153288125D02*
X272415000Y-151891125D01*
D24*
%TO.N,GND*%
X261112000Y-167259000D02*
X261112000Y-96393000D01*
D23*
%TO.N,Net-(J10-Pad1)*%
X239728000Y-226827000D02*
X238336000Y-228219000D01*
X238336000Y-228219000D02*
X236601000Y-228219000D01*
X236601000Y-228219000D02*
X231775000Y-223393000D01*
X231775000Y-223393000D02*
X231775000Y-177702000D01*
X231775000Y-177702000D02*
X224102000Y-170029000D01*
%TO.N,Net-(J10-Pad2)*%
X237188000Y-226827000D02*
X232664000Y-222303000D01*
X232664000Y-222303000D02*
X232664000Y-173511000D01*
X232664000Y-173511000D02*
X229182000Y-170029000D01*
D24*
%TO.N,VBUS*%
X259334000Y-229870000D02*
X257937000Y-231267000D01*
X251079000Y-216027000D02*
X259334000Y-224282000D01*
X259334000Y-224282000D02*
X259334000Y-229870000D01*
X257937000Y-231267000D02*
X228092000Y-231267000D01*
X228092000Y-231267000D02*
X217752000Y-220927000D01*
X217752000Y-220927000D02*
X217752000Y-218059000D01*
X251079000Y-192278000D02*
X251079000Y-216027000D01*
X251079000Y-189865000D02*
X251079000Y-192278000D01*
X251079000Y-192278000D02*
X251079000Y-192865000D01*
X251079000Y-192865000D02*
X245438000Y-198506000D01*
X251079000Y-104521000D02*
X251079000Y-189865000D01*
X251079000Y-189865000D02*
X251079000Y-190325000D01*
X251079000Y-190325000D02*
X245438000Y-195966000D01*
X250190000Y-103378000D02*
X250952000Y-104140000D01*
X178562000Y-90678000D02*
X237490000Y-90678000D01*
X237490000Y-90678000D02*
X250190000Y-103378000D01*
X173990000Y-90678000D02*
X178562000Y-90678000D01*
X169418000Y-86106000D02*
X173990000Y-90678000D01*
D23*
%TO.N,GND*%
X235532000Y-212979000D02*
X233627000Y-214884000D01*
X233627000Y-214884000D02*
X233627000Y-218694000D01*
X245820883Y-228092000D02*
X247639000Y-228092000D01*
X234770000Y-219837000D02*
X237945000Y-219837000D01*
X237945000Y-219837000D02*
X243889489Y-225781489D01*
X233627000Y-218694000D02*
X234770000Y-219837000D01*
X243889489Y-225781489D02*
X243889489Y-226160606D01*
X243889489Y-226160606D02*
X245820883Y-228092000D01*
X247639000Y-228092000D02*
X250264000Y-225467000D01*
%TO.N,Net-(J15-Pad1)*%
X183261000Y-210693000D02*
X153289000Y-210693000D01*
X153289000Y-210693000D02*
X152019000Y-211963000D01*
%TO.N,Net-(J15-Pad3)*%
X171577000Y-183261000D02*
X171577000Y-181483000D01*
X171577000Y-181483000D02*
X170307000Y-180213000D01*
X170307000Y-180213000D02*
X156337000Y-180213000D01*
X156337000Y-180213000D02*
X149987000Y-173863000D01*
%TO.N,Net-(J15-Pad5)*%
X172466000Y-177038000D02*
X170561000Y-175133000D01*
X170561000Y-175133000D02*
X153797000Y-175133000D01*
X153797000Y-175133000D02*
X149987000Y-171323000D01*
D24*
%TO.N,VBUS*%
X177482500Y-197656500D02*
X193113000Y-213287000D01*
X193113000Y-213287000D02*
X197494500Y-217668500D01*
X184658000Y-230505000D02*
X193113000Y-222050000D01*
X193113000Y-222050000D02*
X193113000Y-213287000D01*
X197494500Y-217668500D02*
X203205000Y-223379000D01*
X184658000Y-230505000D02*
X160909000Y-230505000D01*
X160909000Y-230505000D02*
X149987000Y-219583000D01*
D23*
%TO.N,Net-(J15-Pad6)*%
X152019000Y-214503000D02*
X165417978Y-214503000D01*
X165417978Y-214503000D02*
X166687978Y-215773000D01*
X166687978Y-215773000D02*
X189357000Y-215773000D01*
D24*
%TO.N,VBUS*%
X153416000Y-86106000D02*
X177482500Y-110172500D01*
X177482500Y-110172500D02*
X177482500Y-197656500D01*
X134747000Y-91059000D02*
X137414000Y-88392000D01*
X137414000Y-88392000D02*
X137414000Y-86106000D01*
X134747000Y-91059000D02*
X134747000Y-176022000D01*
X134747000Y-176022000D02*
X134747000Y-186563000D01*
X124604000Y-187449000D02*
X126760000Y-185293000D01*
X126760000Y-185293000D02*
X126760000Y-185279000D01*
X126760000Y-185279000D02*
X134747000Y-177292000D01*
X134747000Y-177292000D02*
X134747000Y-176022000D01*
X134747000Y-186563000D02*
X134747000Y-216789000D01*
X134747000Y-216789000D02*
X124841000Y-226695000D01*
X124841000Y-226695000D02*
X88646000Y-226695000D01*
X88646000Y-226695000D02*
X85725000Y-223774000D01*
%TO.N,GND*%
X197739000Y-105578875D02*
X197739000Y-96815875D01*
D23*
%TO.N,/2 CS*%
X234442000Y-128993750D02*
X237109000Y-126326750D01*
X234442000Y-164887875D02*
X234442000Y-128993750D01*
%TO.N,/2 SPI0 MOSI*%
X245999000Y-163363875D02*
X245999000Y-137756750D01*
%TO.N,/2 DATA*%
X245110000Y-141947750D02*
X239649000Y-136486750D01*
%TO.N,/2 SPI0 SCLK*%
X247015000Y-133692750D02*
X239649000Y-126326750D01*
X247015000Y-164125875D02*
X247015000Y-133692750D01*
%TO.N,/2 SPI0 MOSI*%
X245999000Y-137756750D02*
X239649000Y-131406750D01*
%TO.N,/2 SCL 03*%
X272415000Y-165776875D02*
X273050000Y-165776875D01*
X273812000Y-165014875D02*
X273812000Y-150748125D01*
X273812000Y-150748125D02*
X272415000Y-149351125D01*
X273050000Y-165776875D02*
X273812000Y-165014875D01*
D24*
%TO.N,GND*%
X201906600Y-102646375D02*
X201906600Y-146926625D01*
D23*
%TO.N,/2 BUSY*%
X243586000Y-145503750D02*
X239649000Y-141566750D01*
%TO.N,/2 RESET*%
X244348000Y-160315875D02*
X244348000Y-143725750D01*
%TO.N,/2 SCL 01*%
X242697000Y-152234750D02*
X239649000Y-149186750D01*
%TO.N,/2 BUSY*%
X243586000Y-159553875D02*
X243586000Y-145503750D01*
D24*
%TO.N,GND*%
X201906600Y-146926625D02*
X201960875Y-146926625D01*
D23*
%TO.N,/2 SCL 01*%
X242697000Y-158029875D02*
X242697000Y-152234750D01*
%TO.N,/2 DATA*%
X245110000Y-161077875D02*
X245110000Y-141947750D01*
%TO.N,/2 RESET*%
X244348000Y-143725750D02*
X239649000Y-139026750D01*
D24*
%TO.N,GND*%
X287544795Y-102768080D02*
X287528000Y-102784875D01*
D23*
%TO.N,/2 SDA 01*%
X241935000Y-154012750D02*
X239649000Y-151726750D01*
X241935000Y-157267875D02*
X241935000Y-154012750D01*
D24*
%TO.N,GND*%
X201906600Y-102531275D02*
X201906600Y-97173475D01*
X234799600Y-102531275D02*
X234799600Y-97173475D01*
X201960875Y-146926625D02*
X204221000Y-149186750D01*
X287544795Y-97142375D02*
X287544795Y-102768080D01*
%TO.N,VBUS*%
X200660000Y-148165750D02*
X200660000Y-150705750D01*
X200660000Y-150705750D02*
X204221000Y-154266750D01*
X200660000Y-148165750D02*
X204221000Y-151726750D01*
X200660000Y-104181875D02*
X200660000Y-148165750D01*
X190754000Y-156886875D02*
X190754000Y-112903000D01*
X190754000Y-112903000D02*
X190754000Y-110363000D01*
X190754000Y-110363000D02*
X187193000Y-106802000D01*
X190754000Y-112903000D02*
X187193000Y-109342000D01*
%TO.N,GND*%
X103869205Y-163926375D02*
X103869205Y-158300670D01*
X123952000Y-158525975D02*
X123952000Y-163883775D01*
X189507400Y-158537475D02*
X189507400Y-163895275D01*
D25*
X174244000Y-83693000D02*
X164719000Y-83693000D01*
X142113000Y-83693000D02*
X132588000Y-83693000D01*
D24*
X189453125Y-114142125D02*
X187193000Y-111882000D01*
D25*
X158115000Y-83693000D02*
X148590000Y-83693000D01*
D24*
X156614400Y-158537475D02*
X156614400Y-163895275D01*
D25*
X109982000Y-83693000D02*
X100457000Y-83693000D01*
X125984000Y-83693000D02*
X116459000Y-83693000D01*
D24*
X103869205Y-158300670D02*
X103886000Y-158283875D01*
X189507400Y-114142125D02*
X189453125Y-114142125D01*
X189507400Y-158422375D02*
X189507400Y-114142125D01*
D23*
%TO.N,/1 SDA 01*%
X149479000Y-107056000D02*
X151765000Y-109342000D01*
X149479000Y-103800875D02*
X149479000Y-107056000D01*
%TO.N,/1 SCL 01*%
X148717000Y-108834000D02*
X151765000Y-111882000D01*
X148717000Y-103038875D02*
X148717000Y-108834000D01*
%TO.N,/1 SDA 03*%
X120269000Y-103546875D02*
X120269000Y-107907625D01*
X118999000Y-102276875D02*
X120269000Y-103546875D01*
X120269000Y-107907625D02*
X118999000Y-109177625D01*
%TO.N,/1 BUSY*%
X147828000Y-101514875D02*
X147828000Y-115565000D01*
X147828000Y-115565000D02*
X151765000Y-119502000D01*
%TO.N,/1 RESET*%
X147066000Y-117343000D02*
X151765000Y-122042000D01*
X147066000Y-100752875D02*
X147066000Y-117343000D01*
%TO.N,/1 DATA*%
X146304000Y-99990875D02*
X146304000Y-119121000D01*
X146304000Y-119121000D02*
X151765000Y-124582000D01*
%TO.N,/1 CS*%
X156972000Y-96180875D02*
X156972000Y-132075000D01*
X156972000Y-132075000D02*
X154305000Y-134742000D01*
%TO.N,/1 SCL 03*%
X117602000Y-96053875D02*
X117602000Y-110320625D01*
X117602000Y-110320625D02*
X118999000Y-111717625D01*
X118364000Y-95291875D02*
X117602000Y-96053875D01*
X118999000Y-95291875D02*
X118364000Y-95291875D01*
%TO.N,/1 SPI0 MOSI*%
X145415000Y-123312000D02*
X151765000Y-129662000D01*
X145415000Y-97704875D02*
X145415000Y-123312000D01*
%TO.N,/1 SPI0 SCLK*%
X144399000Y-127376000D02*
X151765000Y-134742000D01*
X144399000Y-96942875D02*
X144399000Y-127376000D01*
%TO.N,Net-(R1-Pad2)*%
X116713000Y-58547000D02*
X121285000Y-53975000D01*
X121285000Y-53975000D02*
X121285000Y-52705000D01*
%TO.N,Net-(R3-Pad2)*%
X153416000Y-53975000D02*
X153416000Y-52705000D01*
X148844000Y-58547000D02*
X153416000Y-53975000D01*
%TO.N,Net-(R5-Pad2)*%
X132842000Y-58547000D02*
X137414000Y-53975000D01*
X137414000Y-53975000D02*
X137414000Y-52705000D01*
%TO.N,Net-(R7-Pad2)*%
X164973000Y-58547000D02*
X169545000Y-53975000D01*
X169545000Y-53975000D02*
X169545000Y-52705000D01*
%TO.N,Net-(R9-Pad2)*%
X100711000Y-58547000D02*
X105283000Y-53975000D01*
X105283000Y-53975000D02*
X105283000Y-52705000D01*
%TO.N,Net-(R10-Pad2)*%
X185547000Y-53975000D02*
X185547000Y-52705000D01*
X180975000Y-58547000D02*
X185547000Y-53975000D01*
%TD*%
M02*
