%TF.GenerationSoftware,KiCad,Pcbnew,(6.0.4-0)*%
%TF.CreationDate,2022-04-28T13:26:29-07:00*%
%TF.ProjectId,viper,76697065-722e-46b6-9963-61645f706362,rev?*%
%TF.SameCoordinates,Original*%
%TF.FileFunction,Legend,Bot*%
%TF.FilePolarity,Positive*%
%FSLAX46Y46*%
G04 Gerber Fmt 4.6, Leading zero omitted, Abs format (unit mm)*
G04 Created by KiCad (PCBNEW (6.0.4-0)) date 2022-04-28 13:26:29*
%MOMM*%
%LPD*%
G01*
G04 APERTURE LIST*
%ADD10C,0.300000*%
G04 APERTURE END LIST*
D10*
X312590142Y-41272071D02*
X312090142Y-42772071D01*
X311590142Y-41272071D01*
X311090142Y-42772071D02*
X311090142Y-41272071D01*
X310375857Y-42772071D02*
X310375857Y-41272071D01*
X309804428Y-41272071D01*
X309661571Y-41343500D01*
X309590142Y-41414928D01*
X309518714Y-41557785D01*
X309518714Y-41772071D01*
X309590142Y-41914928D01*
X309661571Y-41986357D01*
X309804428Y-42057785D01*
X310375857Y-42057785D01*
X308875857Y-41986357D02*
X308375857Y-41986357D01*
X308161571Y-42772071D02*
X308875857Y-42772071D01*
X308875857Y-41272071D01*
X308161571Y-41272071D01*
X306661571Y-42772071D02*
X307161571Y-42057785D01*
X307518714Y-42772071D02*
X307518714Y-41272071D01*
X306947285Y-41272071D01*
X306804428Y-41343500D01*
X306733000Y-41414928D01*
X306661571Y-41557785D01*
X306661571Y-41772071D01*
X306733000Y-41914928D01*
X306804428Y-41986357D01*
X306947285Y-42057785D01*
X307518714Y-42057785D01*
X304375857Y-41986357D02*
X304161571Y-42057785D01*
X304090142Y-42129214D01*
X304018714Y-42272071D01*
X304018714Y-42486357D01*
X304090142Y-42629214D01*
X304161571Y-42700642D01*
X304304428Y-42772071D01*
X304875857Y-42772071D01*
X304875857Y-41272071D01*
X304375857Y-41272071D01*
X304233000Y-41343500D01*
X304161571Y-41414928D01*
X304090142Y-41557785D01*
X304090142Y-41700642D01*
X304161571Y-41843500D01*
X304233000Y-41914928D01*
X304375857Y-41986357D01*
X304875857Y-41986357D01*
X303161571Y-42772071D02*
X303304428Y-42700642D01*
X303375857Y-42629214D01*
X303447285Y-42486357D01*
X303447285Y-42057785D01*
X303375857Y-41914928D01*
X303304428Y-41843500D01*
X303161571Y-41772071D01*
X302947285Y-41772071D01*
X302804428Y-41843500D01*
X302733000Y-41914928D01*
X302661571Y-42057785D01*
X302661571Y-42486357D01*
X302733000Y-42629214D01*
X302804428Y-42700642D01*
X302947285Y-42772071D01*
X303161571Y-42772071D01*
X301375857Y-42772071D02*
X301375857Y-41986357D01*
X301447285Y-41843500D01*
X301590142Y-41772071D01*
X301875857Y-41772071D01*
X302018714Y-41843500D01*
X301375857Y-42700642D02*
X301518714Y-42772071D01*
X301875857Y-42772071D01*
X302018714Y-42700642D01*
X302090142Y-42557785D01*
X302090142Y-42414928D01*
X302018714Y-42272071D01*
X301875857Y-42200642D01*
X301518714Y-42200642D01*
X301375857Y-42129214D01*
X300661571Y-42772071D02*
X300661571Y-41772071D01*
X300661571Y-42057785D02*
X300590142Y-41914928D01*
X300518714Y-41843500D01*
X300375857Y-41772071D01*
X300233000Y-41772071D01*
X299090142Y-42772071D02*
X299090142Y-41272071D01*
X299090142Y-42700642D02*
X299233000Y-42772071D01*
X299518714Y-42772071D01*
X299661571Y-42700642D01*
X299733000Y-42629214D01*
X299804428Y-42486357D01*
X299804428Y-42057785D01*
X299733000Y-41914928D01*
X299661571Y-41843500D01*
X299518714Y-41772071D01*
X299233000Y-41772071D01*
X299090142Y-41843500D01*
X298375857Y-42629214D02*
X298304428Y-42700642D01*
X298375857Y-42772071D01*
X298447285Y-42700642D01*
X298375857Y-42629214D01*
X298375857Y-42772071D01*
X311518714Y-45044214D02*
X311590142Y-45115642D01*
X311804428Y-45187071D01*
X311947285Y-45187071D01*
X312161571Y-45115642D01*
X312304428Y-44972785D01*
X312375857Y-44829928D01*
X312447285Y-44544214D01*
X312447285Y-44329928D01*
X312375857Y-44044214D01*
X312304428Y-43901357D01*
X312161571Y-43758500D01*
X311947285Y-43687071D01*
X311804428Y-43687071D01*
X311590142Y-43758500D01*
X311518714Y-43829928D01*
X310875857Y-45187071D02*
X310875857Y-44187071D01*
X310875857Y-44472785D02*
X310804428Y-44329928D01*
X310733000Y-44258500D01*
X310590142Y-44187071D01*
X310447285Y-44187071D01*
X309375857Y-45115642D02*
X309518714Y-45187071D01*
X309804428Y-45187071D01*
X309947285Y-45115642D01*
X310018714Y-44972785D01*
X310018714Y-44401357D01*
X309947285Y-44258500D01*
X309804428Y-44187071D01*
X309518714Y-44187071D01*
X309375857Y-44258500D01*
X309304428Y-44401357D01*
X309304428Y-44544214D01*
X310018714Y-44687071D01*
X308018714Y-45187071D02*
X308018714Y-44401357D01*
X308090142Y-44258500D01*
X308233000Y-44187071D01*
X308518714Y-44187071D01*
X308661571Y-44258500D01*
X308018714Y-45115642D02*
X308161571Y-45187071D01*
X308518714Y-45187071D01*
X308661571Y-45115642D01*
X308733000Y-44972785D01*
X308733000Y-44829928D01*
X308661571Y-44687071D01*
X308518714Y-44615642D01*
X308161571Y-44615642D01*
X308018714Y-44544214D01*
X307518714Y-44187071D02*
X306947285Y-44187071D01*
X307304428Y-43687071D02*
X307304428Y-44972785D01*
X307233000Y-45115642D01*
X307090142Y-45187071D01*
X306947285Y-45187071D01*
X305875857Y-45115642D02*
X306018714Y-45187071D01*
X306304428Y-45187071D01*
X306447285Y-45115642D01*
X306518714Y-44972785D01*
X306518714Y-44401357D01*
X306447285Y-44258500D01*
X306304428Y-44187071D01*
X306018714Y-44187071D01*
X305875857Y-44258500D01*
X305804428Y-44401357D01*
X305804428Y-44544214D01*
X306518714Y-44687071D01*
X304518714Y-45187071D02*
X304518714Y-43687071D01*
X304518714Y-45115642D02*
X304661571Y-45187071D01*
X304947285Y-45187071D01*
X305090142Y-45115642D01*
X305161571Y-45044214D01*
X305233000Y-44901357D01*
X305233000Y-44472785D01*
X305161571Y-44329928D01*
X305090142Y-44258500D01*
X304947285Y-44187071D01*
X304661571Y-44187071D01*
X304518714Y-44258500D01*
X302661571Y-45187071D02*
X302661571Y-43687071D01*
X302661571Y-44258500D02*
X302518714Y-44187071D01*
X302233000Y-44187071D01*
X302090142Y-44258500D01*
X302018714Y-44329928D01*
X301947285Y-44472785D01*
X301947285Y-44901357D01*
X302018714Y-45044214D01*
X302090142Y-45115642D01*
X302233000Y-45187071D01*
X302518714Y-45187071D01*
X302661571Y-45115642D01*
X301447285Y-44187071D02*
X301090142Y-45187071D01*
X300733000Y-44187071D02*
X301090142Y-45187071D01*
X301233000Y-45544214D01*
X301304428Y-45615642D01*
X301447285Y-45687071D01*
X299018714Y-45187071D02*
X299018714Y-43687071D01*
X298518714Y-44758500D01*
X298018714Y-43687071D01*
X298018714Y-45187071D01*
X296661571Y-45187071D02*
X296661571Y-44401357D01*
X296733000Y-44258500D01*
X296875857Y-44187071D01*
X297161571Y-44187071D01*
X297304428Y-44258500D01*
X296661571Y-45115642D02*
X296804428Y-45187071D01*
X297161571Y-45187071D01*
X297304428Y-45115642D01*
X297375857Y-44972785D01*
X297375857Y-44829928D01*
X297304428Y-44687071D01*
X297161571Y-44615642D01*
X296804428Y-44615642D01*
X296661571Y-44544214D01*
X296161571Y-44187071D02*
X295590142Y-44187071D01*
X295947285Y-43687071D02*
X295947285Y-44972785D01*
X295875857Y-45115642D01*
X295733000Y-45187071D01*
X295590142Y-45187071D01*
X295304428Y-44187071D02*
X294733000Y-44187071D01*
X295090142Y-43687071D02*
X295090142Y-44972785D01*
X295018714Y-45115642D01*
X294875857Y-45187071D01*
X294733000Y-45187071D01*
X292304428Y-43758500D02*
X292447285Y-43687071D01*
X292661571Y-43687071D01*
X292875857Y-43758500D01*
X293018714Y-43901357D01*
X293090142Y-44044214D01*
X293161571Y-44329928D01*
X293161571Y-44544214D01*
X293090142Y-44829928D01*
X293018714Y-44972785D01*
X292875857Y-45115642D01*
X292661571Y-45187071D01*
X292518714Y-45187071D01*
X292304428Y-45115642D01*
X292233000Y-45044214D01*
X292233000Y-44544214D01*
X292518714Y-44544214D01*
X291375857Y-45187071D02*
X291518714Y-45115642D01*
X291590142Y-44972785D01*
X291590142Y-43687071D01*
X290233000Y-45115642D02*
X290375857Y-45187071D01*
X290661571Y-45187071D01*
X290804428Y-45115642D01*
X290875857Y-44972785D01*
X290875857Y-44401357D01*
X290804428Y-44258500D01*
X290661571Y-44187071D01*
X290375857Y-44187071D01*
X290233000Y-44258500D01*
X290161571Y-44401357D01*
X290161571Y-44544214D01*
X290875857Y-44687071D01*
X289518714Y-45187071D02*
X289518714Y-44187071D01*
X289518714Y-43687071D02*
X289590142Y-43758500D01*
X289518714Y-43829928D01*
X289447285Y-43758500D01*
X289518714Y-43687071D01*
X289518714Y-43829928D01*
X288161571Y-45115642D02*
X288304428Y-45187071D01*
X288590142Y-45187071D01*
X288733000Y-45115642D01*
X288804428Y-45044214D01*
X288875857Y-44901357D01*
X288875857Y-44472785D01*
X288804428Y-44329928D01*
X288733000Y-44258500D01*
X288590142Y-44187071D01*
X288304428Y-44187071D01*
X288161571Y-44258500D01*
X287518714Y-45187071D02*
X287518714Y-43687071D01*
X286875857Y-45187071D02*
X286875857Y-44401357D01*
X286947285Y-44258500D01*
X287090142Y-44187071D01*
X287304428Y-44187071D01*
X287447285Y-44258500D01*
X287518714Y-44329928D01*
X285018714Y-45187071D02*
X285018714Y-44187071D01*
X285018714Y-43687071D02*
X285090142Y-43758500D01*
X285018714Y-43829928D01*
X284947285Y-43758500D01*
X285018714Y-43687071D01*
X285018714Y-43829928D01*
X284304428Y-44187071D02*
X284304428Y-45187071D01*
X284304428Y-44329928D02*
X284233000Y-44258500D01*
X284090142Y-44187071D01*
X283875857Y-44187071D01*
X283733000Y-44258500D01*
X283661571Y-44401357D01*
X283661571Y-45187071D01*
X282018714Y-44187071D02*
X281447285Y-44187071D01*
X281804428Y-43687071D02*
X281804428Y-44972785D01*
X281733000Y-45115642D01*
X281590142Y-45187071D01*
X281447285Y-45187071D01*
X280947285Y-45187071D02*
X280947285Y-43687071D01*
X280304428Y-45187071D02*
X280304428Y-44401357D01*
X280375857Y-44258500D01*
X280518714Y-44187071D01*
X280733000Y-44187071D01*
X280875857Y-44258500D01*
X280947285Y-44329928D01*
X279018714Y-45115642D02*
X279161571Y-45187071D01*
X279447285Y-45187071D01*
X279590142Y-45115642D01*
X279661571Y-44972785D01*
X279661571Y-44401357D01*
X279590142Y-44258500D01*
X279447285Y-44187071D01*
X279161571Y-44187071D01*
X279018714Y-44258500D01*
X278947285Y-44401357D01*
X278947285Y-44544214D01*
X279661571Y-44687071D01*
X277233000Y-45115642D02*
X277090142Y-45187071D01*
X276804428Y-45187071D01*
X276661571Y-45115642D01*
X276590142Y-44972785D01*
X276590142Y-44901357D01*
X276661571Y-44758500D01*
X276804428Y-44687071D01*
X277018714Y-44687071D01*
X277161571Y-44615642D01*
X277233000Y-44472785D01*
X277233000Y-44401357D01*
X277161571Y-44258500D01*
X277018714Y-44187071D01*
X276804428Y-44187071D01*
X276661571Y-44258500D01*
X275947285Y-44187071D02*
X275947285Y-45687071D01*
X275947285Y-44258500D02*
X275804428Y-44187071D01*
X275518714Y-44187071D01*
X275375857Y-44258500D01*
X275304428Y-44329928D01*
X275233000Y-44472785D01*
X275233000Y-44901357D01*
X275304428Y-45044214D01*
X275375857Y-45115642D01*
X275518714Y-45187071D01*
X275804428Y-45187071D01*
X275947285Y-45115642D01*
X274590142Y-45187071D02*
X274590142Y-44187071D01*
X274590142Y-44472785D02*
X274518714Y-44329928D01*
X274447285Y-44258500D01*
X274304428Y-44187071D01*
X274161571Y-44187071D01*
X273661571Y-45187071D02*
X273661571Y-44187071D01*
X273661571Y-43687071D02*
X273733000Y-43758500D01*
X273661571Y-43829928D01*
X273590142Y-43758500D01*
X273661571Y-43687071D01*
X273661571Y-43829928D01*
X272947285Y-44187071D02*
X272947285Y-45187071D01*
X272947285Y-44329928D02*
X272875857Y-44258500D01*
X272733000Y-44187071D01*
X272518714Y-44187071D01*
X272375857Y-44258500D01*
X272304428Y-44401357D01*
X272304428Y-45187071D01*
X270947285Y-44187071D02*
X270947285Y-45401357D01*
X271018714Y-45544214D01*
X271090142Y-45615642D01*
X271233000Y-45687071D01*
X271447285Y-45687071D01*
X271590142Y-45615642D01*
X270947285Y-45115642D02*
X271090142Y-45187071D01*
X271375857Y-45187071D01*
X271518714Y-45115642D01*
X271590142Y-45044214D01*
X271661571Y-44901357D01*
X271661571Y-44472785D01*
X271590142Y-44329928D01*
X271518714Y-44258500D01*
X271375857Y-44187071D01*
X271090142Y-44187071D01*
X270947285Y-44258500D01*
X268875857Y-45187071D02*
X269018714Y-45115642D01*
X269090142Y-45044214D01*
X269161571Y-44901357D01*
X269161571Y-44472785D01*
X269090142Y-44329928D01*
X269018714Y-44258500D01*
X268875857Y-44187071D01*
X268661571Y-44187071D01*
X268518714Y-44258500D01*
X268447285Y-44329928D01*
X268375857Y-44472785D01*
X268375857Y-44901357D01*
X268447285Y-45044214D01*
X268518714Y-45115642D01*
X268661571Y-45187071D01*
X268875857Y-45187071D01*
X267947285Y-44187071D02*
X267375857Y-44187071D01*
X267733000Y-45187071D02*
X267733000Y-43901357D01*
X267661571Y-43758500D01*
X267518714Y-43687071D01*
X267375857Y-43687071D01*
X265804428Y-43829928D02*
X265733000Y-43758500D01*
X265590142Y-43687071D01*
X265233000Y-43687071D01*
X265090142Y-43758500D01*
X265018714Y-43829928D01*
X264947285Y-43972785D01*
X264947285Y-44115642D01*
X265018714Y-44329928D01*
X265875857Y-45187071D01*
X264947285Y-45187071D01*
X264018714Y-43687071D02*
X263875857Y-43687071D01*
X263733000Y-43758500D01*
X263661571Y-43829928D01*
X263590142Y-43972785D01*
X263518714Y-44258500D01*
X263518714Y-44615642D01*
X263590142Y-44901357D01*
X263661571Y-45044214D01*
X263733000Y-45115642D01*
X263875857Y-45187071D01*
X264018714Y-45187071D01*
X264161571Y-45115642D01*
X264233000Y-45044214D01*
X264304428Y-44901357D01*
X264375857Y-44615642D01*
X264375857Y-44258500D01*
X264304428Y-43972785D01*
X264233000Y-43829928D01*
X264161571Y-43758500D01*
X264018714Y-43687071D01*
X262947285Y-43829928D02*
X262875857Y-43758500D01*
X262733000Y-43687071D01*
X262375857Y-43687071D01*
X262233000Y-43758500D01*
X262161571Y-43829928D01*
X262090142Y-43972785D01*
X262090142Y-44115642D01*
X262161571Y-44329928D01*
X263018714Y-45187071D01*
X262090142Y-45187071D01*
X261518714Y-43829928D02*
X261447285Y-43758500D01*
X261304428Y-43687071D01*
X260947285Y-43687071D01*
X260804428Y-43758500D01*
X260733000Y-43829928D01*
X260661571Y-43972785D01*
X260661571Y-44115642D01*
X260733000Y-44329928D01*
X261590142Y-45187071D01*
X260661571Y-45187071D01*
X312375857Y-50017071D02*
X312375857Y-48517071D01*
X311875857Y-49588500D01*
X311375857Y-48517071D01*
X311375857Y-50017071D01*
X310733000Y-49588500D02*
X310018714Y-49588500D01*
X310875857Y-50017071D02*
X310375857Y-48517071D01*
X309875857Y-50017071D01*
X308518714Y-50017071D02*
X309018714Y-49302785D01*
X309375857Y-50017071D02*
X309375857Y-48517071D01*
X308804428Y-48517071D01*
X308661571Y-48588500D01*
X308590142Y-48659928D01*
X308518714Y-48802785D01*
X308518714Y-49017071D01*
X308590142Y-49159928D01*
X308661571Y-49231357D01*
X308804428Y-49302785D01*
X309375857Y-49302785D01*
X307875857Y-50017071D02*
X307875857Y-48517071D01*
X307018714Y-50017071D02*
X307661571Y-49159928D01*
X307018714Y-48517071D02*
X307875857Y-49374214D01*
X305233000Y-50017071D02*
X305233000Y-48517071D01*
X304518714Y-49874214D02*
X304447285Y-49945642D01*
X304518714Y-50017071D01*
X304590142Y-49945642D01*
X304518714Y-49874214D01*
X304518714Y-50017071D01*
X304518714Y-49088500D02*
X304447285Y-49159928D01*
X304518714Y-49231357D01*
X304590142Y-49159928D01*
X304518714Y-49088500D01*
X304518714Y-49231357D01*
X300447285Y-49945642D02*
X300304428Y-50017071D01*
X300018714Y-50017071D01*
X299875857Y-49945642D01*
X299804428Y-49802785D01*
X299804428Y-49731357D01*
X299875857Y-49588500D01*
X300018714Y-49517071D01*
X300233000Y-49517071D01*
X300375857Y-49445642D01*
X300447285Y-49302785D01*
X300447285Y-49231357D01*
X300375857Y-49088500D01*
X300233000Y-49017071D01*
X300018714Y-49017071D01*
X299875857Y-49088500D01*
X299233000Y-49945642D02*
X299090142Y-50017071D01*
X298804428Y-50017071D01*
X298661571Y-49945642D01*
X298590142Y-49802785D01*
X298590142Y-49731357D01*
X298661571Y-49588500D01*
X298804428Y-49517071D01*
X299018714Y-49517071D01*
X299161571Y-49445642D01*
X299233000Y-49302785D01*
X299233000Y-49231357D01*
X299161571Y-49088500D01*
X299018714Y-49017071D01*
X298804428Y-49017071D01*
X298661571Y-49088500D01*
X297947285Y-50017071D02*
X297947285Y-48517071D01*
X297304428Y-50017071D02*
X297304428Y-49231357D01*
X297375857Y-49088500D01*
X297518714Y-49017071D01*
X297733000Y-49017071D01*
X297875857Y-49088500D01*
X297947285Y-49159928D01*
X295447285Y-50017071D02*
X295447285Y-49017071D01*
X295447285Y-49159928D02*
X295375857Y-49088500D01*
X295233000Y-49017071D01*
X295018714Y-49017071D01*
X294875857Y-49088500D01*
X294804428Y-49231357D01*
X294804428Y-50017071D01*
X294804428Y-49231357D02*
X294733000Y-49088500D01*
X294590142Y-49017071D01*
X294375857Y-49017071D01*
X294233000Y-49088500D01*
X294161571Y-49231357D01*
X294161571Y-50017071D01*
X292804428Y-50017071D02*
X292804428Y-49231357D01*
X292875857Y-49088500D01*
X293018714Y-49017071D01*
X293304428Y-49017071D01*
X293447285Y-49088500D01*
X292804428Y-49945642D02*
X292947285Y-50017071D01*
X293304428Y-50017071D01*
X293447285Y-49945642D01*
X293518714Y-49802785D01*
X293518714Y-49659928D01*
X293447285Y-49517071D01*
X293304428Y-49445642D01*
X292947285Y-49445642D01*
X292804428Y-49374214D01*
X292090142Y-50017071D02*
X292090142Y-49017071D01*
X292090142Y-49302785D02*
X292018714Y-49159928D01*
X291947285Y-49088500D01*
X291804428Y-49017071D01*
X291661571Y-49017071D01*
X291161571Y-50017071D02*
X291161571Y-48517071D01*
X291018714Y-49445642D02*
X290590142Y-50017071D01*
X290590142Y-49017071D02*
X291161571Y-49588500D01*
X289947285Y-50017071D02*
X289947285Y-49017071D01*
X289947285Y-48517071D02*
X290018714Y-48588500D01*
X289947285Y-48659928D01*
X289875857Y-48588500D01*
X289947285Y-48517071D01*
X289947285Y-48659928D01*
X289233000Y-49874214D02*
X289161571Y-49945642D01*
X289233000Y-50017071D01*
X289304428Y-49945642D01*
X289233000Y-49874214D01*
X289233000Y-50017071D01*
X288304428Y-50017071D02*
X288447285Y-49945642D01*
X288518714Y-49802785D01*
X288518714Y-48517071D01*
X287518714Y-50017071D02*
X287661571Y-49945642D01*
X287733000Y-49874214D01*
X287804428Y-49731357D01*
X287804428Y-49302785D01*
X287733000Y-49159928D01*
X287661571Y-49088500D01*
X287518714Y-49017071D01*
X287304428Y-49017071D01*
X287161571Y-49088500D01*
X287090142Y-49159928D01*
X287018714Y-49302785D01*
X287018714Y-49731357D01*
X287090142Y-49874214D01*
X287161571Y-49945642D01*
X287304428Y-50017071D01*
X287518714Y-50017071D01*
X285733000Y-49945642D02*
X285875857Y-50017071D01*
X286161571Y-50017071D01*
X286304428Y-49945642D01*
X286375857Y-49874214D01*
X286447285Y-49731357D01*
X286447285Y-49302785D01*
X286375857Y-49159928D01*
X286304428Y-49088500D01*
X286161571Y-49017071D01*
X285875857Y-49017071D01*
X285733000Y-49088500D01*
X284447285Y-50017071D02*
X284447285Y-49231357D01*
X284518714Y-49088500D01*
X284661571Y-49017071D01*
X284947285Y-49017071D01*
X285090142Y-49088500D01*
X284447285Y-49945642D02*
X284590142Y-50017071D01*
X284947285Y-50017071D01*
X285090142Y-49945642D01*
X285161571Y-49802785D01*
X285161571Y-49659928D01*
X285090142Y-49517071D01*
X284947285Y-49445642D01*
X284590142Y-49445642D01*
X284447285Y-49374214D01*
X283518714Y-50017071D02*
X283661571Y-49945642D01*
X283733000Y-49802785D01*
X283733000Y-48517071D01*
X312375857Y-52432071D02*
X312375857Y-50932071D01*
X311875857Y-52003500D01*
X311375857Y-50932071D01*
X311375857Y-52432071D01*
X310733000Y-52003500D02*
X310018714Y-52003500D01*
X310875857Y-52432071D02*
X310375857Y-50932071D01*
X309875857Y-52432071D01*
X308518714Y-52432071D02*
X309018714Y-51717785D01*
X309375857Y-52432071D02*
X309375857Y-50932071D01*
X308804428Y-50932071D01*
X308661571Y-51003500D01*
X308590142Y-51074928D01*
X308518714Y-51217785D01*
X308518714Y-51432071D01*
X308590142Y-51574928D01*
X308661571Y-51646357D01*
X308804428Y-51717785D01*
X309375857Y-51717785D01*
X307875857Y-52432071D02*
X307875857Y-50932071D01*
X307018714Y-52432071D02*
X307661571Y-51574928D01*
X307018714Y-50932071D02*
X307875857Y-51789214D01*
X305233000Y-52432071D02*
X305233000Y-50932071D01*
X304518714Y-52432071D02*
X304518714Y-50932071D01*
X303804428Y-52289214D02*
X303733000Y-52360642D01*
X303804428Y-52432071D01*
X303875857Y-52360642D01*
X303804428Y-52289214D01*
X303804428Y-52432071D01*
X303804428Y-51503500D02*
X303733000Y-51574928D01*
X303804428Y-51646357D01*
X303875857Y-51574928D01*
X303804428Y-51503500D01*
X303804428Y-51646357D01*
X300875857Y-52360642D02*
X300733000Y-52432071D01*
X300447285Y-52432071D01*
X300304428Y-52360642D01*
X300233000Y-52217785D01*
X300233000Y-52146357D01*
X300304428Y-52003500D01*
X300447285Y-51932071D01*
X300661571Y-51932071D01*
X300804428Y-51860642D01*
X300875857Y-51717785D01*
X300875857Y-51646357D01*
X300804428Y-51503500D01*
X300661571Y-51432071D01*
X300447285Y-51432071D01*
X300304428Y-51503500D01*
X299661571Y-52360642D02*
X299518714Y-52432071D01*
X299233000Y-52432071D01*
X299090142Y-52360642D01*
X299018714Y-52217785D01*
X299018714Y-52146357D01*
X299090142Y-52003500D01*
X299233000Y-51932071D01*
X299447285Y-51932071D01*
X299590142Y-51860642D01*
X299661571Y-51717785D01*
X299661571Y-51646357D01*
X299590142Y-51503500D01*
X299447285Y-51432071D01*
X299233000Y-51432071D01*
X299090142Y-51503500D01*
X298375857Y-52432071D02*
X298375857Y-50932071D01*
X297733000Y-52432071D02*
X297733000Y-51646357D01*
X297804428Y-51503500D01*
X297947285Y-51432071D01*
X298161571Y-51432071D01*
X298304428Y-51503500D01*
X298375857Y-51574928D01*
X295875857Y-52432071D02*
X295875857Y-51432071D01*
X295875857Y-51574928D02*
X295804428Y-51503500D01*
X295661571Y-51432071D01*
X295447285Y-51432071D01*
X295304428Y-51503500D01*
X295233000Y-51646357D01*
X295233000Y-52432071D01*
X295233000Y-51646357D02*
X295161571Y-51503500D01*
X295018714Y-51432071D01*
X294804428Y-51432071D01*
X294661571Y-51503500D01*
X294590142Y-51646357D01*
X294590142Y-52432071D01*
X293233000Y-52432071D02*
X293233000Y-51646357D01*
X293304428Y-51503500D01*
X293447285Y-51432071D01*
X293733000Y-51432071D01*
X293875857Y-51503500D01*
X293233000Y-52360642D02*
X293375857Y-52432071D01*
X293733000Y-52432071D01*
X293875857Y-52360642D01*
X293947285Y-52217785D01*
X293947285Y-52074928D01*
X293875857Y-51932071D01*
X293733000Y-51860642D01*
X293375857Y-51860642D01*
X293233000Y-51789214D01*
X292518714Y-52432071D02*
X292518714Y-51432071D01*
X292518714Y-51717785D02*
X292447285Y-51574928D01*
X292375857Y-51503500D01*
X292233000Y-51432071D01*
X292090142Y-51432071D01*
X291590142Y-52432071D02*
X291590142Y-50932071D01*
X291447285Y-51860642D02*
X291018714Y-52432071D01*
X291018714Y-51432071D02*
X291590142Y-52003500D01*
X290375857Y-52432071D02*
X290375857Y-51432071D01*
X290375857Y-50932071D02*
X290447285Y-51003500D01*
X290375857Y-51074928D01*
X290304428Y-51003500D01*
X290375857Y-50932071D01*
X290375857Y-51074928D01*
X289661571Y-52432071D02*
X289661571Y-51432071D01*
X289661571Y-50932071D02*
X289733000Y-51003500D01*
X289661571Y-51074928D01*
X289590142Y-51003500D01*
X289661571Y-50932071D01*
X289661571Y-51074928D01*
X288947285Y-52289214D02*
X288875857Y-52360642D01*
X288947285Y-52432071D01*
X289018714Y-52360642D01*
X288947285Y-52289214D01*
X288947285Y-52432071D01*
X288018714Y-52432071D02*
X288161571Y-52360642D01*
X288233000Y-52217785D01*
X288233000Y-50932071D01*
X287233000Y-52432071D02*
X287375857Y-52360642D01*
X287447285Y-52289214D01*
X287518714Y-52146357D01*
X287518714Y-51717785D01*
X287447285Y-51574928D01*
X287375857Y-51503500D01*
X287233000Y-51432071D01*
X287018714Y-51432071D01*
X286875857Y-51503500D01*
X286804428Y-51574928D01*
X286733000Y-51717785D01*
X286733000Y-52146357D01*
X286804428Y-52289214D01*
X286875857Y-52360642D01*
X287018714Y-52432071D01*
X287233000Y-52432071D01*
X285447285Y-52360642D02*
X285590142Y-52432071D01*
X285875857Y-52432071D01*
X286018714Y-52360642D01*
X286090142Y-52289214D01*
X286161571Y-52146357D01*
X286161571Y-51717785D01*
X286090142Y-51574928D01*
X286018714Y-51503500D01*
X285875857Y-51432071D01*
X285590142Y-51432071D01*
X285447285Y-51503500D01*
X284161571Y-52432071D02*
X284161571Y-51646357D01*
X284233000Y-51503500D01*
X284375857Y-51432071D01*
X284661571Y-51432071D01*
X284804428Y-51503500D01*
X284161571Y-52360642D02*
X284304428Y-52432071D01*
X284661571Y-52432071D01*
X284804428Y-52360642D01*
X284875857Y-52217785D01*
X284875857Y-52074928D01*
X284804428Y-51932071D01*
X284661571Y-51860642D01*
X284304428Y-51860642D01*
X284161571Y-51789214D01*
X283233000Y-52432071D02*
X283375857Y-52360642D01*
X283447285Y-52217785D01*
X283447285Y-50932071D01*
X312375857Y-54847071D02*
X312375857Y-53347071D01*
X311875857Y-54418500D01*
X311375857Y-53347071D01*
X311375857Y-54847071D01*
X310733000Y-54418500D02*
X310018714Y-54418500D01*
X310875857Y-54847071D02*
X310375857Y-53347071D01*
X309875857Y-54847071D01*
X308518714Y-54847071D02*
X309018714Y-54132785D01*
X309375857Y-54847071D02*
X309375857Y-53347071D01*
X308804428Y-53347071D01*
X308661571Y-53418500D01*
X308590142Y-53489928D01*
X308518714Y-53632785D01*
X308518714Y-53847071D01*
X308590142Y-53989928D01*
X308661571Y-54061357D01*
X308804428Y-54132785D01*
X309375857Y-54132785D01*
X307875857Y-54847071D02*
X307875857Y-53347071D01*
X307018714Y-54847071D02*
X307661571Y-53989928D01*
X307018714Y-53347071D02*
X307875857Y-54204214D01*
X305233000Y-54847071D02*
X305233000Y-53347071D01*
X304518714Y-54847071D02*
X304518714Y-53347071D01*
X303804428Y-54847071D02*
X303804428Y-53347071D01*
X303090142Y-54704214D02*
X303018714Y-54775642D01*
X303090142Y-54847071D01*
X303161571Y-54775642D01*
X303090142Y-54704214D01*
X303090142Y-54847071D01*
X303090142Y-53918500D02*
X303018714Y-53989928D01*
X303090142Y-54061357D01*
X303161571Y-53989928D01*
X303090142Y-53918500D01*
X303090142Y-54061357D01*
X301233000Y-53847071D02*
X301233000Y-55347071D01*
X301233000Y-53918500D02*
X301090142Y-53847071D01*
X300804428Y-53847071D01*
X300661571Y-53918500D01*
X300590142Y-53989928D01*
X300518714Y-54132785D01*
X300518714Y-54561357D01*
X300590142Y-54704214D01*
X300661571Y-54775642D01*
X300804428Y-54847071D01*
X301090142Y-54847071D01*
X301233000Y-54775642D01*
X299875857Y-54847071D02*
X299875857Y-53847071D01*
X299875857Y-54132785D02*
X299804428Y-53989928D01*
X299733000Y-53918500D01*
X299590142Y-53847071D01*
X299447285Y-53847071D01*
X298733000Y-54847071D02*
X298875857Y-54775642D01*
X298947285Y-54704214D01*
X299018714Y-54561357D01*
X299018714Y-54132785D01*
X298947285Y-53989928D01*
X298875857Y-53918500D01*
X298733000Y-53847071D01*
X298518714Y-53847071D01*
X298375857Y-53918500D01*
X298304428Y-53989928D01*
X298233000Y-54132785D01*
X298233000Y-54561357D01*
X298304428Y-54704214D01*
X298375857Y-54775642D01*
X298518714Y-54847071D01*
X298733000Y-54847071D01*
X297590142Y-54847071D02*
X297590142Y-53347071D01*
X297590142Y-53918500D02*
X297447285Y-53847071D01*
X297161571Y-53847071D01*
X297018714Y-53918500D01*
X296947285Y-53989928D01*
X296875857Y-54132785D01*
X296875857Y-54561357D01*
X296947285Y-54704214D01*
X297018714Y-54775642D01*
X297161571Y-54847071D01*
X297447285Y-54847071D01*
X297590142Y-54775642D01*
X295661571Y-54775642D02*
X295804428Y-54847071D01*
X296090142Y-54847071D01*
X296233000Y-54775642D01*
X296304428Y-54632785D01*
X296304428Y-54061357D01*
X296233000Y-53918500D01*
X296090142Y-53847071D01*
X295804428Y-53847071D01*
X295661571Y-53918500D01*
X295590142Y-54061357D01*
X295590142Y-54204214D01*
X296304428Y-54347071D01*
X294947285Y-54275642D02*
X293804428Y-54275642D01*
X293090142Y-54847071D02*
X293090142Y-53847071D01*
X293090142Y-54132785D02*
X293018714Y-53989928D01*
X292947285Y-53918500D01*
X292804428Y-53847071D01*
X292661571Y-53847071D01*
X291518714Y-53847071D02*
X291518714Y-54847071D01*
X292161571Y-53847071D02*
X292161571Y-54632785D01*
X292090142Y-54775642D01*
X291947285Y-54847071D01*
X291733000Y-54847071D01*
X291590142Y-54775642D01*
X291518714Y-54704214D01*
X290804428Y-53847071D02*
X290804428Y-54847071D01*
X290804428Y-53989928D02*
X290733000Y-53918500D01*
X290590142Y-53847071D01*
X290375857Y-53847071D01*
X290233000Y-53918500D01*
X290161571Y-54061357D01*
X290161571Y-54847071D01*
X312375857Y-57262071D02*
X312375857Y-55762071D01*
X311875857Y-56833500D01*
X311375857Y-55762071D01*
X311375857Y-57262071D01*
X310733000Y-56833500D02*
X310018714Y-56833500D01*
X310875857Y-57262071D02*
X310375857Y-55762071D01*
X309875857Y-57262071D01*
X308518714Y-57262071D02*
X309018714Y-56547785D01*
X309375857Y-57262071D02*
X309375857Y-55762071D01*
X308804428Y-55762071D01*
X308661571Y-55833500D01*
X308590142Y-55904928D01*
X308518714Y-56047785D01*
X308518714Y-56262071D01*
X308590142Y-56404928D01*
X308661571Y-56476357D01*
X308804428Y-56547785D01*
X309375857Y-56547785D01*
X307875857Y-57262071D02*
X307875857Y-55762071D01*
X307018714Y-57262071D02*
X307661571Y-56404928D01*
X307018714Y-55762071D02*
X307875857Y-56619214D01*
X305233000Y-57262071D02*
X305233000Y-55762071D01*
X304733000Y-55762071D02*
X304233000Y-57262071D01*
X303733000Y-55762071D01*
X303233000Y-57119214D02*
X303161571Y-57190642D01*
X303233000Y-57262071D01*
X303304428Y-57190642D01*
X303233000Y-57119214D01*
X303233000Y-57262071D01*
X303233000Y-56333500D02*
X303161571Y-56404928D01*
X303233000Y-56476357D01*
X303304428Y-56404928D01*
X303233000Y-56333500D01*
X303233000Y-56476357D01*
X300233000Y-56262071D02*
X300233000Y-57762071D01*
X300233000Y-56333500D02*
X300090142Y-56262071D01*
X299804428Y-56262071D01*
X299661571Y-56333500D01*
X299590142Y-56404928D01*
X299518714Y-56547785D01*
X299518714Y-56976357D01*
X299590142Y-57119214D01*
X299661571Y-57190642D01*
X299804428Y-57262071D01*
X300090142Y-57262071D01*
X300233000Y-57190642D01*
X298875857Y-57262071D02*
X298875857Y-56262071D01*
X298875857Y-56547785D02*
X298804428Y-56404928D01*
X298733000Y-56333500D01*
X298590142Y-56262071D01*
X298447285Y-56262071D01*
X297733000Y-57262071D02*
X297875857Y-57190642D01*
X297947285Y-57119214D01*
X298018714Y-56976357D01*
X298018714Y-56547785D01*
X297947285Y-56404928D01*
X297875857Y-56333500D01*
X297733000Y-56262071D01*
X297518714Y-56262071D01*
X297375857Y-56333500D01*
X297304428Y-56404928D01*
X297233000Y-56547785D01*
X297233000Y-56976357D01*
X297304428Y-57119214D01*
X297375857Y-57190642D01*
X297518714Y-57262071D01*
X297733000Y-57262071D01*
X296590142Y-57262071D02*
X296590142Y-55762071D01*
X296590142Y-56333500D02*
X296447285Y-56262071D01*
X296161571Y-56262071D01*
X296018714Y-56333500D01*
X295947285Y-56404928D01*
X295875857Y-56547785D01*
X295875857Y-56976357D01*
X295947285Y-57119214D01*
X296018714Y-57190642D01*
X296161571Y-57262071D01*
X296447285Y-57262071D01*
X296590142Y-57190642D01*
X294661571Y-57190642D02*
X294804428Y-57262071D01*
X295090142Y-57262071D01*
X295233000Y-57190642D01*
X295304428Y-57047785D01*
X295304428Y-56476357D01*
X295233000Y-56333500D01*
X295090142Y-56262071D01*
X294804428Y-56262071D01*
X294661571Y-56333500D01*
X294590142Y-56476357D01*
X294590142Y-56619214D01*
X295304428Y-56762071D01*
X293947285Y-56690642D02*
X292804428Y-56690642D01*
X292090142Y-57262071D02*
X292090142Y-56262071D01*
X292090142Y-56547785D02*
X292018714Y-56404928D01*
X291947285Y-56333500D01*
X291804428Y-56262071D01*
X291661571Y-56262071D01*
X290518714Y-56262071D02*
X290518714Y-57262071D01*
X291161571Y-56262071D02*
X291161571Y-57047785D01*
X291090142Y-57190642D01*
X290947285Y-57262071D01*
X290733000Y-57262071D01*
X290590142Y-57190642D01*
X290518714Y-57119214D01*
X289804428Y-56262071D02*
X289804428Y-57262071D01*
X289804428Y-56404928D02*
X289733000Y-56333500D01*
X289590142Y-56262071D01*
X289375857Y-56262071D01*
X289233000Y-56333500D01*
X289161571Y-56476357D01*
X289161571Y-57262071D01*
X312375857Y-59677071D02*
X312375857Y-58177071D01*
X311875857Y-59248500D01*
X311375857Y-58177071D01*
X311375857Y-59677071D01*
X310733000Y-59248500D02*
X310018714Y-59248500D01*
X310875857Y-59677071D02*
X310375857Y-58177071D01*
X309875857Y-59677071D01*
X308518714Y-59677071D02*
X309018714Y-58962785D01*
X309375857Y-59677071D02*
X309375857Y-58177071D01*
X308804428Y-58177071D01*
X308661571Y-58248500D01*
X308590142Y-58319928D01*
X308518714Y-58462785D01*
X308518714Y-58677071D01*
X308590142Y-58819928D01*
X308661571Y-58891357D01*
X308804428Y-58962785D01*
X309375857Y-58962785D01*
X307875857Y-59677071D02*
X307875857Y-58177071D01*
X307018714Y-59677071D02*
X307661571Y-58819928D01*
X307018714Y-58177071D02*
X307875857Y-59034214D01*
X305447285Y-58177071D02*
X304947285Y-59677071D01*
X304447285Y-58177071D01*
X303947285Y-59534214D02*
X303875857Y-59605642D01*
X303947285Y-59677071D01*
X304018714Y-59605642D01*
X303947285Y-59534214D01*
X303947285Y-59677071D01*
X303947285Y-58748500D02*
X303875857Y-58819928D01*
X303947285Y-58891357D01*
X304018714Y-58819928D01*
X303947285Y-58748500D01*
X303947285Y-58891357D01*
X299804428Y-58677071D02*
X299804428Y-60177071D01*
X299804428Y-58748500D02*
X299661571Y-58677071D01*
X299375857Y-58677071D01*
X299233000Y-58748500D01*
X299161571Y-58819928D01*
X299090142Y-58962785D01*
X299090142Y-59391357D01*
X299161571Y-59534214D01*
X299233000Y-59605642D01*
X299375857Y-59677071D01*
X299661571Y-59677071D01*
X299804428Y-59605642D01*
X298447285Y-59677071D02*
X298447285Y-58677071D01*
X298447285Y-58962785D02*
X298375857Y-58819928D01*
X298304428Y-58748500D01*
X298161571Y-58677071D01*
X298018714Y-58677071D01*
X297304428Y-59677071D02*
X297447285Y-59605642D01*
X297518714Y-59534214D01*
X297590142Y-59391357D01*
X297590142Y-58962785D01*
X297518714Y-58819928D01*
X297447285Y-58748500D01*
X297304428Y-58677071D01*
X297090142Y-58677071D01*
X296947285Y-58748500D01*
X296875857Y-58819928D01*
X296804428Y-58962785D01*
X296804428Y-59391357D01*
X296875857Y-59534214D01*
X296947285Y-59605642D01*
X297090142Y-59677071D01*
X297304428Y-59677071D01*
X296161571Y-59677071D02*
X296161571Y-58177071D01*
X296161571Y-58748500D02*
X296018714Y-58677071D01*
X295733000Y-58677071D01*
X295590142Y-58748500D01*
X295518714Y-58819928D01*
X295447285Y-58962785D01*
X295447285Y-59391357D01*
X295518714Y-59534214D01*
X295590142Y-59605642D01*
X295733000Y-59677071D01*
X296018714Y-59677071D01*
X296161571Y-59605642D01*
X294233000Y-59605642D02*
X294375857Y-59677071D01*
X294661571Y-59677071D01*
X294804428Y-59605642D01*
X294875857Y-59462785D01*
X294875857Y-58891357D01*
X294804428Y-58748500D01*
X294661571Y-58677071D01*
X294375857Y-58677071D01*
X294233000Y-58748500D01*
X294161571Y-58891357D01*
X294161571Y-59034214D01*
X294875857Y-59177071D01*
X293518714Y-59105642D02*
X292375857Y-59105642D01*
X291661571Y-59677071D02*
X291661571Y-58677071D01*
X291661571Y-58962785D02*
X291590142Y-58819928D01*
X291518714Y-58748500D01*
X291375857Y-58677071D01*
X291233000Y-58677071D01*
X290090142Y-58677071D02*
X290090142Y-59677071D01*
X290733000Y-58677071D02*
X290733000Y-59462785D01*
X290661571Y-59605642D01*
X290518714Y-59677071D01*
X290304428Y-59677071D01*
X290161571Y-59605642D01*
X290090142Y-59534214D01*
X289375857Y-58677071D02*
X289375857Y-59677071D01*
X289375857Y-58819928D02*
X289304428Y-58748500D01*
X289161571Y-58677071D01*
X288947285Y-58677071D01*
X288804428Y-58748500D01*
X288733000Y-58891357D01*
X288733000Y-59677071D01*
M02*
