%TF.GenerationSoftware,KiCad,Pcbnew,(6.0.5-0)*%
%TF.CreationDate,2022-05-19T11:08:02-04:00*%
%TF.ProjectId,viper,76697065-722e-46b6-9963-61645f706362,rev?*%
%TF.SameCoordinates,Original*%
%TF.FileFunction,Soldermask,Bot*%
%TF.FilePolarity,Negative*%
%FSLAX46Y46*%
G04 Gerber Fmt 4.6, Leading zero omitted, Abs format (unit mm)*
G04 Created by KiCad (PCBNEW (6.0.5-0)) date 2022-05-19 11:08:02*
%MOMM*%
%LPD*%
G01*
G04 APERTURE LIST*
%ADD10R,1.700000X1.700000*%
%ADD11O,1.700000X1.700000*%
%ADD12R,1.800000X1.800000*%
%ADD13C,1.800000*%
%ADD14C,2.700000*%
%ADD15C,1.600000*%
%ADD16O,1.600000X1.600000*%
%ADD17O,1.500000X1.500000*%
%ADD18O,1.800000X1.800000*%
%ADD19R,4.400000X1.800000*%
%ADD20O,4.000000X1.800000*%
%ADD21O,1.800000X4.000000*%
%ADD22O,1.600000X2.000000*%
G04 APERTURE END LIST*
D10*
%TO.C,J15*%
X203195000Y-175129000D03*
D11*
X205735000Y-175129000D03*
X203195000Y-177669000D03*
X205735000Y-177669000D03*
X203195000Y-180209000D03*
X205735000Y-180209000D03*
X203195000Y-182749000D03*
X205735000Y-182749000D03*
X203195000Y-185289000D03*
X205735000Y-185289000D03*
X203195000Y-187829000D03*
X205735000Y-187829000D03*
X203195000Y-190369000D03*
X205735000Y-190369000D03*
X203195000Y-192909000D03*
X205735000Y-192909000D03*
X203195000Y-195449000D03*
X205735000Y-195449000D03*
X203195000Y-197989000D03*
X205735000Y-197989000D03*
X203195000Y-200529000D03*
X205735000Y-200529000D03*
X203195000Y-203069000D03*
X205735000Y-203069000D03*
X203195000Y-205609000D03*
X205735000Y-205609000D03*
X203195000Y-208149000D03*
X205735000Y-208149000D03*
X203195000Y-210689000D03*
X205735000Y-210689000D03*
X203195000Y-213229000D03*
X205735000Y-213229000D03*
X203195000Y-215769000D03*
X205735000Y-215769000D03*
X203195000Y-218309000D03*
X205735000Y-218309000D03*
X203195000Y-220849000D03*
X205735000Y-220849000D03*
X203195000Y-223389000D03*
X205735000Y-223389000D03*
%TD*%
D12*
%TO.C,D10*%
X178767335Y-46732833D03*
D13*
X176227335Y-46732833D03*
%TD*%
D10*
%TO.C,J2*%
X106874500Y-107719625D03*
D11*
X109414500Y-107719625D03*
X106874500Y-110259625D03*
X109414500Y-110259625D03*
X106874500Y-112799625D03*
X109414500Y-112799625D03*
X106874500Y-115339625D03*
X109414500Y-115339625D03*
X106874500Y-117879625D03*
X109414500Y-117879625D03*
X106874500Y-120419625D03*
X109414500Y-120419625D03*
X106874500Y-122959625D03*
X109414500Y-122959625D03*
X106874500Y-125499625D03*
X109414500Y-125499625D03*
X106874500Y-128039625D03*
X109414500Y-128039625D03*
X106874500Y-130579625D03*
X109414500Y-130579625D03*
X106874500Y-133119625D03*
X109414500Y-133119625D03*
X106874500Y-135659625D03*
X109414500Y-135659625D03*
X106874500Y-138199625D03*
X109414500Y-138199625D03*
X106874500Y-140739625D03*
X109414500Y-140739625D03*
X106874500Y-143279625D03*
X109414500Y-143279625D03*
X106874500Y-145819625D03*
X109414500Y-145819625D03*
X106874500Y-148359625D03*
X109414500Y-148359625D03*
X106874500Y-150899625D03*
X109414500Y-150899625D03*
X106874500Y-153439625D03*
X109414500Y-153439625D03*
X106874500Y-155979625D03*
X109414500Y-155979625D03*
%TD*%
D14*
%TO.C,S2*%
X145616324Y-58547000D03*
X145616324Y-63247000D03*
X145616324Y-67947000D03*
%TD*%
D12*
%TO.C,D13*%
X178767335Y-79634165D03*
D13*
X176227335Y-79634165D03*
%TD*%
D15*
%TO.C,R4*%
X122975349Y-73756000D03*
D16*
X135675349Y-73756000D03*
%TD*%
D14*
%TO.C,S7*%
X254964000Y-225467000D03*
X250264000Y-225467000D03*
X245564000Y-225467000D03*
%TD*%
D10*
%TO.C,J12*%
X154315000Y-155052000D03*
D11*
X151775000Y-155052000D03*
X154315000Y-152512000D03*
X151775000Y-152512000D03*
X154315000Y-149972000D03*
X151775000Y-149972000D03*
X154315000Y-147432000D03*
X151775000Y-147432000D03*
X154315000Y-144892000D03*
X151775000Y-144892000D03*
X154315000Y-142352000D03*
X151775000Y-142352000D03*
X154315000Y-139812000D03*
X151775000Y-139812000D03*
X154315000Y-137272000D03*
X151775000Y-137272000D03*
X154315000Y-134732000D03*
X151775000Y-134732000D03*
X154315000Y-132192000D03*
X151775000Y-132192000D03*
X154315000Y-129652000D03*
X151775000Y-129652000D03*
X154315000Y-127112000D03*
X151775000Y-127112000D03*
X154315000Y-124572000D03*
X151775000Y-124572000D03*
X154315000Y-122032000D03*
X151775000Y-122032000D03*
X154315000Y-119492000D03*
X151775000Y-119492000D03*
X154315000Y-116952000D03*
X151775000Y-116952000D03*
X154315000Y-114412000D03*
X151775000Y-114412000D03*
X154315000Y-111872000D03*
X151775000Y-111872000D03*
X154315000Y-109332000D03*
X151775000Y-109332000D03*
X154315000Y-106792000D03*
X151775000Y-106792000D03*
%TD*%
D17*
%TO.C,U2*%
X92190000Y-220732000D03*
D18*
X91890000Y-223762000D03*
X97340000Y-223762000D03*
D17*
X97040000Y-220732000D03*
D11*
X103505000Y-223892000D03*
X103505000Y-221352000D03*
D10*
X103505000Y-218812000D03*
D11*
X103505000Y-216272000D03*
X103505000Y-213732000D03*
X103505000Y-211192000D03*
X103505000Y-208652000D03*
D10*
X103505000Y-206112000D03*
D11*
X103505000Y-203572000D03*
X103505000Y-201032000D03*
X103505000Y-198492000D03*
X103505000Y-195952000D03*
D10*
X103505000Y-193412000D03*
D11*
X103505000Y-190872000D03*
X103505000Y-188332000D03*
X103505000Y-185792000D03*
X103505000Y-183252000D03*
D10*
X103505000Y-180712000D03*
D11*
X103505000Y-178172000D03*
X103505000Y-175632000D03*
X85725000Y-175632000D03*
X85725000Y-178172000D03*
D10*
X85725000Y-180712000D03*
D11*
X85725000Y-183252000D03*
X85725000Y-185792000D03*
X85725000Y-188332000D03*
X85725000Y-190872000D03*
D10*
X85725000Y-193412000D03*
D11*
X85725000Y-195952000D03*
X85725000Y-198492000D03*
X85725000Y-201032000D03*
X85725000Y-203572000D03*
D10*
X85725000Y-206112000D03*
D11*
X85725000Y-208652000D03*
X85725000Y-211192000D03*
X85725000Y-213732000D03*
X85725000Y-216272000D03*
D10*
X85725000Y-218812000D03*
D11*
X85725000Y-221352000D03*
X85725000Y-223892000D03*
X97155000Y-175862000D03*
D10*
X94615000Y-175862000D03*
D11*
X92075000Y-175862000D03*
%TD*%
D15*
%TO.C,R2*%
X106919687Y-73756000D03*
D16*
X119619687Y-73756000D03*
%TD*%
D10*
%TO.C,J5*%
X270119000Y-106520250D03*
D11*
X272659000Y-106520250D03*
X270119000Y-109060250D03*
X272659000Y-109060250D03*
X270119000Y-111600250D03*
X272659000Y-111600250D03*
X270119000Y-114140250D03*
X272659000Y-114140250D03*
X270119000Y-116680250D03*
X272659000Y-116680250D03*
X270119000Y-119220250D03*
X272659000Y-119220250D03*
X270119000Y-121760250D03*
X272659000Y-121760250D03*
X270119000Y-124300250D03*
X272659000Y-124300250D03*
X270119000Y-126840250D03*
X272659000Y-126840250D03*
X270119000Y-129380250D03*
X272659000Y-129380250D03*
X270119000Y-131920250D03*
X272659000Y-131920250D03*
X270119000Y-134460250D03*
X272659000Y-134460250D03*
X270119000Y-137000250D03*
X272659000Y-137000250D03*
X270119000Y-139540250D03*
X272659000Y-139540250D03*
X270119000Y-142080250D03*
X272659000Y-142080250D03*
X270119000Y-144620250D03*
X272659000Y-144620250D03*
X270119000Y-147160250D03*
X272659000Y-147160250D03*
X270119000Y-149700250D03*
X272659000Y-149700250D03*
X270119000Y-152240250D03*
X272659000Y-152240250D03*
X270119000Y-154780250D03*
X272659000Y-154780250D03*
%TD*%
D15*
%TO.C,R9*%
X90864025Y-52738000D03*
D16*
X103564025Y-52738000D03*
%TD*%
D10*
%TO.C,J13*%
X187198000Y-154813000D03*
D11*
X184658000Y-154813000D03*
X187198000Y-152273000D03*
X184658000Y-152273000D03*
X187198000Y-149733000D03*
X184658000Y-149733000D03*
X187198000Y-147193000D03*
X184658000Y-147193000D03*
X187198000Y-144653000D03*
X184658000Y-144653000D03*
X187198000Y-142113000D03*
X184658000Y-142113000D03*
X187198000Y-139573000D03*
X184658000Y-139573000D03*
X187198000Y-137033000D03*
X184658000Y-137033000D03*
X187198000Y-134493000D03*
X184658000Y-134493000D03*
X187198000Y-131953000D03*
X184658000Y-131953000D03*
X187198000Y-129413000D03*
X184658000Y-129413000D03*
X187198000Y-126873000D03*
X184658000Y-126873000D03*
X187198000Y-124333000D03*
X184658000Y-124333000D03*
X187198000Y-121793000D03*
X184658000Y-121793000D03*
X187198000Y-119253000D03*
X184658000Y-119253000D03*
X187198000Y-116713000D03*
X184658000Y-116713000D03*
X187198000Y-114173000D03*
X184658000Y-114173000D03*
X187198000Y-111633000D03*
X184658000Y-111633000D03*
X187198000Y-109093000D03*
X184658000Y-109093000D03*
X187198000Y-106553000D03*
X184658000Y-106553000D03*
%TD*%
D15*
%TO.C,R3*%
X139031011Y-52738000D03*
D16*
X151731011Y-52738000D03*
%TD*%
D10*
%TO.C,J4*%
X121549000Y-154887625D03*
D11*
X119009000Y-154887625D03*
X121549000Y-152347625D03*
X119009000Y-152347625D03*
X121549000Y-149807625D03*
X119009000Y-149807625D03*
X121549000Y-147267625D03*
X119009000Y-147267625D03*
X121549000Y-144727625D03*
X119009000Y-144727625D03*
X121549000Y-142187625D03*
X119009000Y-142187625D03*
X121549000Y-139647625D03*
X119009000Y-139647625D03*
X121549000Y-137107625D03*
X119009000Y-137107625D03*
X121549000Y-134567625D03*
X119009000Y-134567625D03*
X121549000Y-132027625D03*
X119009000Y-132027625D03*
X121549000Y-129487625D03*
X119009000Y-129487625D03*
X121549000Y-126947625D03*
X119009000Y-126947625D03*
X121549000Y-124407625D03*
X119009000Y-124407625D03*
X121549000Y-121867625D03*
X119009000Y-121867625D03*
X121549000Y-119327625D03*
X119009000Y-119327625D03*
X121549000Y-116787625D03*
X119009000Y-116787625D03*
X121549000Y-114247625D03*
X119009000Y-114247625D03*
X121549000Y-111707625D03*
X119009000Y-111707625D03*
X121549000Y-109167625D03*
X119009000Y-109167625D03*
X121549000Y-106627625D03*
X119009000Y-106627625D03*
%TD*%
D12*
%TO.C,D6*%
X146656011Y-79740000D03*
D13*
X144116011Y-79740000D03*
%TD*%
D15*
%TO.C,R6*%
X139031011Y-73756000D03*
D16*
X151731011Y-73756000D03*
%TD*%
D14*
%TO.C,S4*%
X161714236Y-58483499D03*
X161714236Y-63183499D03*
X161714236Y-67883499D03*
%TD*%
D15*
%TO.C,R11*%
X90864025Y-73756000D03*
D16*
X103564025Y-73756000D03*
%TD*%
D12*
%TO.C,D5*%
X130600349Y-46754000D03*
D13*
X128060349Y-46754000D03*
%TD*%
D10*
%TO.C,J6*%
X237353000Y-106355875D03*
D11*
X239893000Y-106355875D03*
X237353000Y-108895875D03*
X239893000Y-108895875D03*
X237353000Y-111435875D03*
X239893000Y-111435875D03*
X237353000Y-113975875D03*
X239893000Y-113975875D03*
X237353000Y-116515875D03*
X239893000Y-116515875D03*
X237353000Y-119055875D03*
X239893000Y-119055875D03*
X237353000Y-121595875D03*
X239893000Y-121595875D03*
X237353000Y-124135875D03*
X239893000Y-124135875D03*
X237353000Y-126675875D03*
X239893000Y-126675875D03*
X237353000Y-129215875D03*
X239893000Y-129215875D03*
X237353000Y-131755875D03*
X239893000Y-131755875D03*
X237353000Y-134295875D03*
X239893000Y-134295875D03*
X237353000Y-136835875D03*
X239893000Y-136835875D03*
X237353000Y-139375875D03*
X239893000Y-139375875D03*
X237353000Y-141915875D03*
X239893000Y-141915875D03*
X237353000Y-144455875D03*
X239893000Y-144455875D03*
X237353000Y-146995875D03*
X239893000Y-146995875D03*
X237353000Y-149535875D03*
X239893000Y-149535875D03*
X237353000Y-152075875D03*
X239893000Y-152075875D03*
X237353000Y-154615875D03*
X239893000Y-154615875D03*
%TD*%
D12*
%TO.C,D2*%
X114544687Y-79740000D03*
D13*
X112004687Y-79740000D03*
%TD*%
D10*
%TO.C,J10*%
X239728000Y-226827000D03*
D11*
X237188000Y-226827000D03*
X239728000Y-224287000D03*
X237188000Y-224287000D03*
%TD*%
D15*
%TO.C,R7*%
X155086673Y-52695666D03*
D16*
X167786673Y-52695666D03*
%TD*%
D15*
%TO.C,R8*%
X155086673Y-73671332D03*
D16*
X167786673Y-73671332D03*
%TD*%
D12*
%TO.C,D4*%
X130600349Y-79740000D03*
D13*
X128060349Y-79740000D03*
%TD*%
D12*
%TO.C,D3*%
X146656011Y-46754000D03*
D13*
X144116011Y-46754000D03*
%TD*%
D10*
%TO.C,J14*%
X172974000Y-227965000D03*
D11*
X170434000Y-227965000D03*
X172974000Y-225425000D03*
X170434000Y-225425000D03*
%TD*%
D10*
%TO.C,J7*%
X111125000Y-221361000D03*
D11*
X113665000Y-221361000D03*
X111125000Y-223901000D03*
X113665000Y-223901000D03*
%TD*%
D12*
%TO.C,D11*%
X98489025Y-79740000D03*
D13*
X95949025Y-79740000D03*
%TD*%
D15*
%TO.C,R12*%
X171142335Y-73671332D03*
D16*
X183842335Y-73671332D03*
%TD*%
D15*
%TO.C,R10*%
X171142335Y-52695666D03*
D16*
X183842335Y-52695666D03*
%TD*%
D10*
%TO.C,J3*%
X284793500Y-153688250D03*
D11*
X282253500Y-153688250D03*
X284793500Y-151148250D03*
X282253500Y-151148250D03*
X284793500Y-148608250D03*
X282253500Y-148608250D03*
X284793500Y-146068250D03*
X282253500Y-146068250D03*
X284793500Y-143528250D03*
X282253500Y-143528250D03*
X284793500Y-140988250D03*
X282253500Y-140988250D03*
X284793500Y-138448250D03*
X282253500Y-138448250D03*
X284793500Y-135908250D03*
X282253500Y-135908250D03*
X284793500Y-133368250D03*
X282253500Y-133368250D03*
X284793500Y-130828250D03*
X282253500Y-130828250D03*
X284793500Y-128288250D03*
X282253500Y-128288250D03*
X284793500Y-125748250D03*
X282253500Y-125748250D03*
X284793500Y-123208250D03*
X282253500Y-123208250D03*
X284793500Y-120668250D03*
X282253500Y-120668250D03*
X284793500Y-118128250D03*
X282253500Y-118128250D03*
X284793500Y-115588250D03*
X282253500Y-115588250D03*
X284793500Y-113048250D03*
X282253500Y-113048250D03*
X284793500Y-110508250D03*
X282253500Y-110508250D03*
X284793500Y-107968250D03*
X282253500Y-107968250D03*
X284793500Y-105428250D03*
X282253500Y-105428250D03*
%TD*%
D17*
%TO.C,U4*%
X161302000Y-216423000D03*
D18*
X156152000Y-219453000D03*
D17*
X156452000Y-216423000D03*
D18*
X161602000Y-219453000D03*
D11*
X167767000Y-219583000D03*
X167767000Y-217043000D03*
D10*
X167767000Y-214503000D03*
D11*
X167767000Y-211963000D03*
X167767000Y-209423000D03*
X167767000Y-206883000D03*
X167767000Y-204343000D03*
D10*
X167767000Y-201803000D03*
D11*
X167767000Y-199263000D03*
X167767000Y-196723000D03*
X167767000Y-194183000D03*
X167767000Y-191643000D03*
D10*
X167767000Y-189103000D03*
D11*
X167767000Y-186563000D03*
X167767000Y-184023000D03*
X167767000Y-181483000D03*
X167767000Y-178943000D03*
D10*
X167767000Y-176403000D03*
D11*
X167767000Y-173863000D03*
X167767000Y-171323000D03*
X149987000Y-171323000D03*
X149987000Y-173863000D03*
D10*
X149987000Y-176403000D03*
D11*
X149987000Y-178943000D03*
X149987000Y-181483000D03*
X149987000Y-184023000D03*
X149987000Y-186563000D03*
D10*
X149987000Y-189103000D03*
D11*
X149987000Y-191643000D03*
X149987000Y-194183000D03*
X149987000Y-196723000D03*
X149987000Y-199263000D03*
D10*
X149987000Y-201803000D03*
D11*
X149987000Y-204343000D03*
X149987000Y-206883000D03*
X149987000Y-209423000D03*
X149987000Y-211963000D03*
D10*
X149987000Y-214503000D03*
D11*
X149987000Y-217043000D03*
X149987000Y-219583000D03*
X161417000Y-171553000D03*
D10*
X158877000Y-171553000D03*
D11*
X156337000Y-171553000D03*
%TD*%
D12*
%TO.C,D1*%
X114544687Y-46754000D03*
D13*
X112004687Y-46754000D03*
%TD*%
D14*
%TO.C,S3*%
X129680393Y-58547000D03*
X129680393Y-63247000D03*
X129680393Y-67947000D03*
%TD*%
D19*
%TO.C,J1*%
X83687613Y-55826700D03*
D20*
X83687613Y-50026700D03*
D21*
X78887613Y-52826700D03*
%TD*%
D15*
%TO.C,R1*%
X106919687Y-52738000D03*
D16*
X119619687Y-52738000D03*
%TD*%
D18*
%TO.C,U1*%
X229367000Y-217929000D03*
D17*
X224217000Y-214899000D03*
D18*
X223917000Y-217929000D03*
D17*
X229067000Y-214899000D03*
D11*
X235532000Y-218059000D03*
X235532000Y-215519000D03*
D10*
X235532000Y-212979000D03*
D11*
X235532000Y-210439000D03*
X235532000Y-207899000D03*
X235532000Y-205359000D03*
X235532000Y-202819000D03*
D10*
X235532000Y-200279000D03*
D11*
X235532000Y-197739000D03*
X235532000Y-195199000D03*
X235532000Y-192659000D03*
X235532000Y-190119000D03*
D10*
X235532000Y-187579000D03*
D11*
X235532000Y-185039000D03*
X235532000Y-182499000D03*
X235532000Y-179959000D03*
X235532000Y-177419000D03*
D10*
X235532000Y-174879000D03*
D11*
X235532000Y-172339000D03*
X235532000Y-169799000D03*
X217752000Y-169799000D03*
X217752000Y-172339000D03*
D10*
X217752000Y-174879000D03*
D11*
X217752000Y-177419000D03*
X217752000Y-179959000D03*
X217752000Y-182499000D03*
X217752000Y-185039000D03*
D10*
X217752000Y-187579000D03*
D11*
X217752000Y-190119000D03*
X217752000Y-192659000D03*
X217752000Y-195199000D03*
X217752000Y-197739000D03*
D10*
X217752000Y-200279000D03*
D11*
X217752000Y-202819000D03*
X217752000Y-205359000D03*
X217752000Y-207899000D03*
X217752000Y-210439000D03*
D10*
X217752000Y-212979000D03*
D11*
X217752000Y-215519000D03*
X217752000Y-218059000D03*
X229182000Y-170029000D03*
D10*
X226642000Y-170029000D03*
D11*
X224102000Y-170029000D03*
%TD*%
D12*
%TO.C,D8*%
X98489025Y-46754000D03*
D13*
X95949025Y-46754000D03*
%TD*%
D12*
%TO.C,D7*%
X162711673Y-46732833D03*
D13*
X160171673Y-46732833D03*
%TD*%
D14*
%TO.C,S5*%
X97451000Y-58547000D03*
X97451000Y-63247000D03*
X97451000Y-67947000D03*
%TD*%
%TO.C,S1*%
X113544762Y-58547000D03*
X113544762Y-63247000D03*
X113544762Y-67947000D03*
%TD*%
D10*
%TO.C,J9*%
X204470000Y-106594875D03*
D11*
X207010000Y-106594875D03*
X204470000Y-109134875D03*
X207010000Y-109134875D03*
X204470000Y-111674875D03*
X207010000Y-111674875D03*
X204470000Y-114214875D03*
X207010000Y-114214875D03*
X204470000Y-116754875D03*
X207010000Y-116754875D03*
X204470000Y-119294875D03*
X207010000Y-119294875D03*
X204470000Y-121834875D03*
X207010000Y-121834875D03*
X204470000Y-124374875D03*
X207010000Y-124374875D03*
X204470000Y-126914875D03*
X207010000Y-126914875D03*
X204470000Y-129454875D03*
X207010000Y-129454875D03*
X204470000Y-131994875D03*
X207010000Y-131994875D03*
X204470000Y-134534875D03*
X207010000Y-134534875D03*
X204470000Y-137074875D03*
X207010000Y-137074875D03*
X204470000Y-139614875D03*
X207010000Y-139614875D03*
X204470000Y-142154875D03*
X207010000Y-142154875D03*
X204470000Y-144694875D03*
X207010000Y-144694875D03*
X204470000Y-147234875D03*
X207010000Y-147234875D03*
X204470000Y-149774875D03*
X207010000Y-149774875D03*
X204470000Y-152314875D03*
X207010000Y-152314875D03*
X204470000Y-154854875D03*
X207010000Y-154854875D03*
%TD*%
D14*
%TO.C,S6*%
X177742298Y-58483499D03*
X177742298Y-63183499D03*
X177742298Y-67883499D03*
%TD*%
D12*
%TO.C,D9*%
X162711673Y-79634165D03*
D13*
X160171673Y-79634165D03*
%TD*%
D10*
%TO.C,J11*%
X274188000Y-170942000D03*
D11*
X271648000Y-170942000D03*
X269108000Y-170942000D03*
X266568000Y-170942000D03*
X264028000Y-170942000D03*
%TD*%
D22*
%TO.C,Brd1*%
X122110000Y-187393000D03*
X124650000Y-187393000D03*
X127190000Y-187393000D03*
X129730000Y-187393000D03*
%TD*%
D15*
%TO.C,R5*%
X122975349Y-52738000D03*
D16*
X135675349Y-52738000D03*
%TD*%
M02*
